**ABCDEFGHIJKLMNOPQRSTUVWXYZabcdefghijklmnopqrstuvwxyz**************************
**PARASOLID !"#$%&'()*+,-./:;<=>?@[\]^_`{|}~0123456789**************************
**PART1;
MC=AMD64;
MC_MODEL=Intel64 Family 6 Model 158 Stepping 10, GenuineIntel;
MC_ID=unknown;
OS=Windows_NT;
OS_RELEASE=unknown;
FRU=CAD Exchanger 3.6.1 (cadexchanger.com);
APPL=unknown;
SITE=unknown;
USER=unknown;
FORMAT=text;
GUISE=transmit;
KEY=CAPC0402(1005)60_L_CMP-001-00056-2;
FILE=CAPC0402(1005)60_L_CMP-001-00056-2.x_t;
DATE=Mon Jun 08 09:31:48 2020;
**PART2;
SCH=SCH_1200000_12006;
USFLD_SIZE=0;
**PART3;
**END_OF_HEADER*****************************************************************
T51 : TRANSMIT FILE created by modeller version 120000017 SCH_1200000_120060 12
 1 412 0 2 0 0 0 0 1000 1e-008 0 0 0 1 0 1 1 38 6 12 10 35 11 9 70 2 0 1 0 0 4 1
 20 0 3 3 1 T74 20 3 1 0 4 0 0 0 0 0 0 0 0 0 0 0 0 0 0 0 0 0 0 0 81 1 4 7 32 5 0
 0 41 0 34 14 5 5 4 1e-008 39 0 7 38 6 -0 0 39 0 36 50 6 6 0 5 40 0 0 +0.0004999
999562886087 0.0002500000611959395 0.0006000000109278466 -7.642741863815873e-015
 4.371138828673789e-008 -0.9999999999999991 -1.748455531469489e-007 0.9999999999
999838 4.371138828673856e-008 15 7 8 0 8 5 0 17 8 0 7 16 28 9 13 11 0 21 -18 9 9
 0 8 0 14 10 ?1 29 10 10 0 9 15 0 -0.0003500000349691006 0.0001999999125772202 0
.0006000000087422773 16 11 11 0 ?13 0 19 12 0 0 1 30 12 12 0 11 20 0 0 +-0.00035
00000437113783 0.0002499999125772194 0.0006000000109278466 1.748455532553691e-00
7 -0.9999999999999838 -4.371138828673856e-008 17 13 0 434 439 435 14 8 11 0 28 +
18 14 13 0 13 9 17 15 ?1 29 15 14 0 14 18 10 -0.0003499999650308795 -0.000200000
0874227734 0.0005999999912577219 17 16 0 7 22 8 17 21 19 0 253 +18 17 15 0 16 14
 23 18 ?1 29 18 16 0 17 24 15 -0.0004500000349690992 0.0001999998950926649 0.000
6000000087422773 16 19 17 0 ?16 11 25 20 0 0 1 30 20 18 0 19 26 12 0 +0.00049999
99650308864 0.0002000000611959404 0.0006000000087422773 -0.9999999999999848 -1.7
48455531469491e-007 0 17 21 0 240 241 253 9 16 19 0 435 -17 22 0 7 28 16 23 27 2
5 0 31 +18 23 19 0 477 17 45 24 ?1 29 24 20 0 23 46 18 -0.000449999965030878 -0.
0002000001049073286 0.0005999999912577219 16 25 21 0 ?22 19 29 26 0 0 1 30 26 22
 0 25 30 20 0 +-0.0004500000437113769 0.0002499998950926641 0.000600000010927846
6 1.748455531469489e-007 -0.9999999999999838 -4.371138828673856e-008 17 27 0 496
 497 477 17 22 25 0 500 -17 28 0 7 8 22 14 31 29 0 442 +16 29 23 0 ?28 25 47 30
 0 0 1 30 30 24 0 29 48 26 0 +0.0005000000349691076 -0.0001999999388040532 0.000
5999999912577219 0.9999999999999848 1.748455531469491e-007 0 17 31 0 72 85 81 23
 28 29 0 88 -80 1 32 0 33 8001 0 0 0 0 3 5 0 0 FFFFTFTFFFFFFF2 79 15 33 SDL/TYSA
_COLOUR83 3 34 1 1 1 19 35 1 0 1 37 0 36 V13 36 2 0 1 0 0 0 0 35 5 19 37 3 0 1 0
 35 38 S13 38 4 0 1 0 5 0 0 37 0 14 39 25 41 1e-008 68 5 43 38 40 -0 0 68 5 36 5
0 40 26 0 39 69 6 0 +0.0004999999562886087 0.0002500000611959395 0.0006000000109
278466 -7.642741863815873e-015 4.371138828673789e-008 -0.9999999999999991 -1.748
455531469489e-007 0.9999999999999838 4.371138828673856e-008 81 1 41 27 32 39 0 0
 70 4 42 83 3 42 1 1 1 15 43 28 0 44 39 0 17 44 0 43 52 64 45 49 47 0 57 -18 45
 29 0 99 23 50 46 ?1 29 46 30 0 45 51 24 0.0003500000349691099 -0.00019999996503
08861 0.0005999999912577219 16 47 31 0 ?49 29 55 48 0 0 1 30 48 32 0 47 56 30 0
 +0.000349999956288611 0.0002500000349691066 0.0006000000109278466 -1.7484555325
53691e-007 0.9999999999999838 4.371138828673856e-008 17 49 0 434 435 439 50 44 4
7 0 438 +18 50 33 0 270 45 53 51 ?1 29 51 34 0 50 54 46 0.0003499999650308886 0.
0002000000349691074 0.0006000000087422773 17 52 0 43 58 44 53 57 55 0 63 +18 53
 35 0 546 50 59 54 ?1 29 54 36 0 53 60 51 0.0004500000349691084 -0.0001999999475
463308 0.0005999999912577219 16 55 37 0 ?52 47 61 56 0 0 1 30 56 38 0 55 62 48 0
 +0.0005000000349691076 -0.0001999999388040532 0.0005999999912577219 0.999999999
9999848 1.748455531469491e-007 0 17 57 0 93 94 106 45 52 55 0 439 -17 58 0 43 64
 52 59 63 61 0 67 +18 59 39 0 574 53 74 60 ?1 29 60 40 0 59 75 54 0.000449999965
0308872 0.0002000000524536627 0.0006000000087422773 16 61 41 0 ?58 55 65 62 0 0
 1 30 62 42 0 61 66 56 0 +0.0004499999562886095 0.0002500000524536619 0.00060000
00109278466 -1.748455531469489e-007 0.9999999999999838 4.371138828673856e-008 17
 63 0 573 549 574 53 58 61 0 0 -17 64 0 43 44 58 50 67 65 0 0 +16 65 43 0 ?64 61
 76 66 0 0 1 30 66 44 0 65 77 62 0 +0.0004999999650308864 0.0002000000611959404
 0.0006000000087422773 -0.9999999999999848 -1.748455531469491e-007 0 17 67 0 261
 274 270 59 64 65 0 0 -14 68 45 70 1e-008 89 39 72 38 69 +0 0 89 39 36 51 69 46
 0 68 90 40 0 +0.0005000000349691073 -0.0001999999366184838 0.000549999991257722
 0.9999999999999848 1.748455531469491e-007 0 5e-005 -1.748455531469489e-007 0.99
99999999999838 4.371138828673856e-008 81 1 70 47 32 68 0 0 91 41 71 83 3 71 1 1
 1 15 72 48 0 73 68 0 17 73 0 72 81 85 74 78 76 0 84 -18 74 49 0 422 59 79 75 ?1
 29 75 50 0 74 80 60 -0.0003499999562886022 -0.0002500000852372032 0.00054999998
90721525 16 76 51 0 ?78 65 82 77 0 0 1 30 77 52 0 76 83 66 0 +-0.000499999956288
5998 -0.000250000111464036 0.0005499999890721525 -0.9999999999999848 -1.74845553
1469491e-007 0 17 78 0 114 121 115 79 73 76 0 464 +18 79 53 0 126 74 95 80 ?1 29
 80 54 0 79 96 75 -0.0004499999562886007 -0.0002500001027217585 0.00054999998907
21525 17 81 0 72 31 73 14 84 82 0 0 +16 82 55 0 ?81 76 86 83 0 0 1 31 83 56 0 82
 87 77 0 +-0.0003499999650308798 -0.0002000000852372039 0.000549999991257722 -0.
9999999999999848 -1.748455531469491e-007 -1.577721810442024e-030 -1.748455531469
489e-007 0.9999999999999838 4.371138828673856e-008 5e-005 17 84 0 491 425 442 74
 81 82 0 0 -17 85 0 72 73 31 79 88 86 0 0 +16 86 57 0 ?85 82 97 87 0 0 1 31 87 5
8 0 86 98 83 0 +-0.0004499999650308784 -0.0002000001027217593 0.0005499999912577
22 0.9999999999999848 1.748455531469491e-007 1.577721810442024e-030 1.7484555314
69489e-007 -0.9999999999999838 -4.371138828673856e-008 5e-005 17 88 0 473 474 46
4 23 85 86 0 0 -14 89 59 91 1e-008 110 68 93 38 90 +0 0 110 68 36 51 90 60 0 89
 111 69 0 +0.0005000000349691073 -0.0001999999366184838 0.000549999991257722 0.9
999999999999848 1.748455531469491e-007 0 5e-005 -1.748455531469489e-007 0.999999
9999999838 4.371138828673856e-008 81 1 91 61 32 89 0 0 112 70 92 83 3 92 1 1 1 1
5 93 62 0 57 89 0 17 94 0 93 100 57 95 99 97 0 105 +18 95 63 0 94 79 101 96 ?1 2
9 96 64 0 95 102 80 0.0003500000437113872 -0.0002499999628453159 0.0005499999890
721525 16 97 65 0 ?94 86 103 98 0 0 1 31 98 66 0 97 104 87 0 +0.0003500000349691
095 -0.0001999999628453167 0.000549999991257722 0.9999999999999848 1.74845553146
9491e-007 1.577721810442024e-030 1.748455531469489e-007 -0.9999999999999838 -4.3
71138828673856e-008 5e-005 17 99 0 491 442 425 45 94 97 0 44 -17 100 0 93 106 94
 101 105 103 0 109 -18 101 67 0 148 95 119 102 ?1 29 102 68 0 101 120 96 0.00045
00000437113857 -0.0002499999453607606 0.0005499999890721525 16 103 69 0 ?105 97
 107 104 0 0 1 30 104 70 0 103 108 98 0 +-0.0004999999562885998 -0.0002500001114
64036 0.0005499999890721525 -0.9999999999999848 -1.748455531469491e-007 0 17 105
 0 135 136 148 95 100 103 0 141 +17 106 0 93 57 100 53 109 107 0 52 -16 107 71 0
 ?109 103 116 108 0 0 1 31 108 72 0 107 117 104 0 +0.000450000034969108 -0.00019
99999453607614 0.000549999991257722 0.9999999999999848 1.748455531469491e-007 1.
577721810442024e-030 -1.748455531469489e-007 0.9999999999999838 4.37113882867385
6e-008 5e-005 17 109 0 545 536 546 101 106 107 0 533 +14 110 73 112 1e-008 131 8
9 114 38 111 -0 0 131 89 36 50 111 74 0 110 132 90 0 +-0.0004999999562885995 -0.
0002500001136496055 0.0005999999890721525 -1.748455531469489e-007 0.999999999999
9838 4.371138828673856e-008 -7.642741863815873e-015 4.371138828673789e-008 -0.99
99999999999991 81 1 112 75 32 110 0 0 133 91 113 83 3 113 1 1 1 15 114 76 0 115
 110 0 17 115 0 114 78 127 74 118 116 0 73 -16 116 77 0 ?118 107 124 117 0 0 1 3
0 117 78 0 116 125 108 0 +-0.0003499999562886018 -0.0002500000874227725 0.000599
9999890721525 -7.642741863815873e-015 4.371138828673789e-008 -0.9999999999999991
 17 118 0 421 426 422 119 115 116 0 429 +18 119 79 0 127 101 122 120 ?1 29 120 8
0 0 119 123 102 -0.000349999956288606 -0.000250000063381509 4.999998907215289e-0
05 17 121 0 114 127 78 122 126 124 0 465 +18 122 81 0 130 119 137 123 ?1 29 123
 82 0 122 138 120 -0.0004499999562886045 -0.0002500000808660643 4.99999890721528
9e-005 16 124 83 0 ?121 116 128 125 0 0 1 30 125 84 0 124 129 117 0 +-0.00044999
99562886003 -0.0002500001049073278 0.0005999999890721525 -7.642741863815873e-015
 4.371138828673789e-008 -0.9999999999999991 17 126 0 460 461 465 79 121 124 0 78
 -17 127 0 114 115 121 119 130 128 0 165 +16 128 85 0 ?127 124 139 129 0 0 1 30
 129 86 0 128 140 125 0 +0.0005000000437113811 -0.0002499999147627888 4.99999890
7215289e-005 0.9999999999999848 1.748455531469491e-007 0 17 130 0 156 169 165 12
2 127 128 0 172 -14 131 87 133 1e-008 152 110 135 38 132 -0 0 152 110 36 50 132
 88 0 131 153 111 0 +-0.0004999999562885995 -0.0002500001136496055 0.00059999998
90721525 -1.748455531469489e-007 0.9999999999999838 4.371138828673856e-008 -7.64
2741863815873e-015 4.371138828673789e-008 -0.9999999999999991 81 1 133 89 32 131
 0 0 154 112 134 83 3 134 1 1 1 15 135 90 0 136 131 0 17 136 0 135 142 105 137 1
41 139 0 147 -18 137 91 0 183 122 143 138 ?1 29 138 92 0 137 144 123 0.000350000
0437113833 -0.0002499999409896218 4.999998907215289e-005 16 139 93 0 ?141 128 14
5 140 0 0 1 30 140 94 0 139 146 129 0 +0.0003500000437113875 -0.0002499999650308
853 0.0005999999890721525 7.642741863815873e-015 -4.371138828673789e-008 0.99999
99999999991 17 141 0 421 422 426 95 136 139 0 425 +17 142 0 135 148 136 143 147
 145 0 190 +18 143 95 0 151 137 158 144 ?1 29 144 96 0 143 159 138 0.00045000004
37113818 -0.0002499999235050665 4.999998907215289e-005 16 145 97 0 ?142 139 149
 146 0 0 1 30 146 98 0 145 150 140 0 +0.0005000000437113811 -0.00024999991476278
88 4.999998907215289e-005 0.9999999999999848 1.748455531469491e-007 0 17 147 0 1
77 178 190 137 142 145 0 426 -17 148 0 135 105 142 101 151 149 0 100 +16 149 99
 0 ?148 145 160 150 0 0 1 30 150 100 0 149 161 146 0 +0.0004500000437113861 -0.0
0024999994754633 0.0005999999890721525 7.642741863815873e-015 -4.371138828673789
e-008 0.9999999999999991 17 151 0 532 537 533 143 148 149 0 142 -14 152 101 154
 1e-008 173 131 156 38 153 +0 0 173 131 36 51 153 102 0 152 174 132 0 +-0.000499
9999650308814 -0.0002000000896083428 4.99999912577223e-005 -0.9999999999999848 -
1.748455531469491e-007 0 5e-005 1.748455531469489e-007 -0.9999999999999838 -4.37
1138828673856e-008 81 1 154 103 32 152 0 0 175 133 155 83 3 155 1 1 1 15 156 104
 0 157 152 0 17 157 0 156 165 169 158 162 160 0 168 -18 158 105 0 157 143 163 15
9 ?1 29 159 106 0 158 164 144 -0.000349999965030884 -0.0002000000611959404 -8.74
2277657347711e-012 16 160 107 0 ?162 149 166 161 0 0 1 30 161 108 0 160 167 150
 0 +-0.0004999999650308818 -0.0002000000874227734 -8.742277657347711e-012 -0.999
9999999999848 -1.748455531469491e-007 0 17 162 0 198 211 207 163 157 160 0 214 +
18 163 109 0 169 158 179 164 ?1 29 164 110 0 163 180 159 -0.0004499999650308826
 -0.0002000000786804957 -8.742277657347711e-012 17 165 0 156 130 157 119 168 166
 0 118 +16 166 111 0 ?165 160 170 167 0 0 1 31 167 112 0 166 171 161 0 +-0.00034
99999650308836 -0.0002000000633815098 4.99999912577223e-005 -0.9999999999999848
 -1.748455531469491e-007 -1.577721810442024e-030 -1.748455531469489e-007 0.99999
99999999838 4.371138828673856e-008 5e-005 17 168 0 527 455 429 158 165 166 0 452
 -17 169 0 156 157 130 163 172 170 0 483 +16 170 113 0 ?169 166 181 171 0 0 1 31
 171 114 0 170 182 167 0 +-0.0004499999650308822 -0.0002000000808660651 4.999999
12577223e-005 0.9999999999999848 1.748455531469491e-007 1.577721810442024e-030 1
.748455531469489e-007 -0.9999999999999838 -4.371138828673856e-008 5e-005 17 172
 0 482 468 483 122 169 170 0 121 -14 173 115 175 1e-008 194 152 177 38 174 +0 0
 194 152 36 51 174 116 0 173 195 153 0 +-0.0004999999650308814 -0.00020000008960
83428 4.99999912577223e-005 -0.9999999999999848 -1.748455531469491e-007 0 5e-005
 1.748455531469489e-007 -0.9999999999999838 -4.371138828673856e-008 81 1 175 117
 32 173 0 0 196 154 176 83 3 176 1 1 1 15 177 118 0 147 173 0 17 178 0 177 184 1
47 179 183 181 0 189 +18 179 119 0 178 163 185 180 ?1 29 180 120 0 179 186 164 0
.0003500000349691052 -0.0001999999388040532 -8.742277657347711e-012 16 181 121 0
 ?178 170 187 182 0 0 1 31 182 122 0 181 188 171 0 +0.0003500000349691057 -0.000
1999999409896226 4.99999912577223e-005 0.9999999999999848 1.748455531469491e-007
 1.577721810442024e-030 1.748455531469489e-007 -0.9999999999999838 -4.3711388286
73856e-008 5e-005 17 183 0 527 429 455 137 178 181 0 136 -17 184 0 177 190 178 1
85 189 187 0 193 -18 185 123 0 568 179 200 186 ?1 29 186 124 0 185 201 180 0.000
4500000349691038 -0.0001999999213194979 -8.742277657347711e-012 16 187 125 0 ?18
9 181 191 188 0 0 1 30 188 126 0 187 192 182 0 +-0.0004999999650308818 -0.000200
0000874227734 -8.742277657347711e-012 -0.9999999999999848 -1.748455531469491e-00
7 0 17 189 0 219 220 232 179 184 187 0 225 +17 190 0 177 147 184 143 193 191 0 5
40 -16 191 127 0 ?193 187 202 192 0 0 1 31 192 128 0 191 203 188 0 +0.0004500000
349691042 -0.0001999999235050673 4.99999912577223e-005 0.9999999999999848 1.7484
55531469491e-007 1.577721810442024e-030 -1.748455531469489e-007 0.99999999999998
38 4.371138828673856e-008 5e-005 17 193 0 564 565 540 185 190 191 0 232 +14 194
 129 196 1e-008 215 173 198 38 195 +0 0 215 173 36 50 195 130 0 194 216 174 0 +0
.0004999999562886041 0.0002500000874227725 1.092784707168464e-011 -7.64274186381
5873e-015 4.371138828673789e-008 -0.9999999999999991 -1.748455531469489e-007 0.9
999999999999838 4.371138828673856e-008 81 1 196 131 32 194 0 0 217 175 197 83 3
 197 1 1 1 15 198 132 0 199 194 0 17 199 0 198 207 211 200 204 202 0 210 +18 200
 133 0 199 185 205 201 ?1 29 201 134 0 200 206 186 -0.0003500000349691052 0.0001
999999388040532 8.742277657347711e-012 16 202 135 0 ?199 191 208 203 0 0 1 30 20
3 136 0 202 209 192 0 +0.0004999999650308818 0.0002000000874227734 8.74227765734
7711e-012 0.9999999999999848 1.748455531469491e-007 0 17 204 0 282 295 291 205 1
99 202 0 211 -18 205 137 0 204 200 221 206 ?1 29 206 138 0 205 222 201 -0.000450
0000349691038 0.0001999999213194979 8.742277657347711e-012 17 207 0 198 162 199
 158 210 208 0 0 +16 208 139 0 ?207 202 212 209 0 0 1 30 209 140 0 208 213 203 0
 +-0.0003500000437113829 0.0002499999388040523 1.092784707168464e-011 1.74845553
2553691e-007 -0.9999999999999838 -4.371138828673856e-008 17 210 0 447 448 452 20
0 207 208 0 451 -17 211 0 198 199 162 205 214 212 0 519 +16 212 141 0 ?211 208 2
23 213 0 0 1 30 213 142 0 212 224 209 0 +-0.0004500000437113815 0.00024999992131
9497 1.092784707168464e-011 -1.748455531469489e-007 0.9999999999999838 4.3711388
28673856e-008 17 214 0 518 486 519 163 211 212 0 0 -14 215 143 217 1e-008 236 19
4 219 38 216 +0 0 236 194 36 50 216 144 0 215 237 195 0 +0.0004999999562886041 0
.0002500000874227725 1.092784707168464e-011 -7.642741863815873e-015 4.3711388286
73789e-008 -0.9999999999999991 -1.748455531469489e-007 0.9999999999999838 4.3711
38828673856e-008 81 1 217 145 32 215 0 0 238 196 218 83 3 218 1 1 1 15 219 146 0
 189 215 0 17 220 0 219 226 189 221 225 223 0 0 +18 221 147 0 309 205 227 222 ?1
 29 222 148 0 221 228 206 0.000349999965030884 0.0002000000611959404 8.742277657
347711e-012 16 223 149 0 ?220 212 229 224 0 0 1 30 224 150 0 223 230 213 0 +0.00
03499999562886064 0.0002500000611959395 1.092784707168464e-011 -1.74845553255369
1e-007 0.9999999999999838 4.371138828673856e-008 17 225 0 447 452 448 179 220 22
3 0 455 -17 226 0 219 232 220 227 231 229 0 235 +18 227 151 0 596 221 242 228 ?1
 29 228 152 0 227 243 222 0.0004499999650308826 0.0002000000786804957 8.74227765
7347711e-012 16 229 153 0 ?226 223 233 230 0 0 1 30 230 154 0 229 234 224 0 +0.0
004999999650308818 0.0002000000874227734 8.742277657347711e-012 0.99999999999998
48 1.748455531469491e-007 0 17 231 0 303 304 316 221 226 229 0 448 -17 232 0 219
 189 226 185 235 233 0 0 +16 233 155 0 ?232 229 244 234 0 0 1 30 234 156 0 233 2
45 230 0 +0.0004500000437113815 -0.000249999921319497 -1.092784707168464e-011 1.
748455531469489e-007 -0.9999999999999838 -4.371138828673856e-008 17 235 0 592 59
3 568 227 232 233 0 316 -14 236 157 238 1e-008 257 215 240 38 237 +0 0 257 215 3
6 51 237 158 0 236 258 216 0 +0.000499999965030886 0.0002000000633815098 0.00055
00000087422773 -0.9999999999999848 -1.748455531469491e-007 0 5e-005 1.7484555314
69489e-007 -0.9999999999999838 -4.371138828673856e-008 81 1 238 159 32 236 0 0 2
59 217 239 83 3 239 1 1 1 15 240 160 0 21 236 0 17 241 0 240 247 21 242 246 244
 0 0 +18 242 161 0 328 227 248 243 ?1 29 243 162 0 242 249 228 -0.00035000004371
13787 0.0002499999147627888 0.0005500000109278467 16 244 163 0 ?241 233 250 245
 0 0 1 31 245 164 0 244 251 234 0 +-0.0003500000349691011 0.0001999999147627896
 0.0005500000087422773 -0.9999999999999848 -1.748455531469491e-007 -1.5777218104
42024e-030 -1.748455531469489e-007 0.9999999999999838 4.371138828673856e-008 5e-
005 17 246 0 582 438 387 9 241 244 0 0 -17 247 0 240 253 241 248 252 250 0 329 -
18 248 165 0 247 242 263 249 ?1 29 249 166 0 248 264 243 -0.0004500000437113772
 0.0002499998972782335 0.0005500000109278467 16 250 167 0 ?252 244 254 251 0 0 1
 30 251 168 0 250 255 245 0 +-0.0005000000437113764 0.0002499998885359558 0.0005
500000109278467 0.9999999999999848 1.748455531469491e-007 0 17 252 0 324 325 329
 242 247 250 0 387 +17 253 0 240 21 247 17 256 254 0 27 +16 254 169 0 ?253 250 2
65 255 0 0 1 31 255 170 0 254 266 251 0 +-0.0004500000349690996 0.00019999989727
82343 0.0005500000087422773 0.9999999999999848 1.748455531469491e-007 1.57772181
0442024e-030 1.748455531469489e-007 -0.9999999999999838 -4.371138828673856e-008
 5e-005 17 256 0 554 513 500 248 253 254 0 510 -14 257 171 259 1e-008 278 236 26
1 38 258 +0 0 278 236 36 51 258 172 0 257 279 237 0 +0.000499999965030886 0.0002
000000633815098 0.0005500000087422773 -0.9999999999999848 -1.748455531469491e-00
7 0 5e-005 1.748455531469489e-007 -0.9999999999999838 -4.371138828673856e-008 81
 1 259 173 32 257 0 0 280 238 260 83 3 260 1 1 1 15 261 174 0 262 257 0 17 262 0
 261 270 274 263 267 265 0 273 -18 263 175 0 338 248 268 264 ?1 29 264 176 0 263
 269 249 0.0003499999562886106 0.000250000037154676 0.0005500000109278467 16 265
 177 0 ?267 254 271 266 0 0 1 30 266 178 0 265 272 255 0 +-0.0005000000437113764
 0.0002499998885359558 0.0005500000109278467 0.9999999999999848 1.74845553146949
1e-007 0 17 267 0 337 342 338 268 262 265 0 345 +18 268 179 0 267 263 284 269 ?1
 29 269 180 0 268 285 264 0.0004499999562886091 0.0002500000546392313 0.00055000
00109278467 17 270 0 261 67 262 50 273 271 0 49 +16 271 181 0 ?270 265 275 272 0
 0 1 31 272 182 0 271 276 266 0 +0.0003499999650308882 0.0002000000371546768 0.0
005500000087422773 0.9999999999999848 1.748455531469491e-007 1.577721810442024e-
030 1.748455531469489e-007 -0.9999999999999838 -4.371138828673856e-008 5e-005 17
 273 0 582 387 438 263 270 271 0 384 -17 274 0 261 262 67 268 277 275 0 602 -16
 275 183 0 ?277 271 286 276 0 0 1 31 276 184 0 275 287 272 0 +0.0004499999650308
868 0.0002000000546392321 0.0005500000087422773 0.9999999999999848 1.74845553146
9491e-007 1.577721810442024e-030 -1.748455531469489e-007 0.9999999999999838 4.37
1138828673856e-008 5e-005 17 277 0 601 577 602 59 274 275 0 58 +14 278 185 280 1
e-008 299 257 282 38 279 +0 0 299 257 36 51 279 186 0 278 300 258 0 +-0.00050000
00349691026 0.0001999999103916508 5.000000874227762e-005 0.9999999999999848 1.74
8455531469491e-007 0 5e-005 -1.748455531469489e-007 0.9999999999999838 4.3711388
28673856e-008 81 1 280 187 32 278 0 0 301 259 281 83 3 281 1 1 1 15 282 188 0 28
3 278 0 17 283 0 282 291 295 284 288 286 0 294 -18 284 189 0 325 268 289 285 ?1
 29 285 190 0 284 290 269 -0.0003500000437113826 0.000249999936618483 5.00000109
2784704e-005 16 286 191 0 ?288 275 292 287 0 0 1 30 287 192 0 286 293 276 0 +-0.
0005000000437113803 0.00024999991039165 5.000001092784704e-005 -0.99999999999998
48 -1.748455531469491e-007 0 17 288 0 324 329 325 289 283 286 0 295 +18 289 193
 0 332 284 305 290 ?1 29 290 194 0 289 306 285 -0.0004500000437113811 0.00024999
99191339276 5.000001092784704e-005 17 291 0 282 204 283 200 294 292 0 0 +16 292
 195 0 ?291 286 296 293 0 0 1 31 293 196 0 292 297 287 0 +-0.0003500000349691049
 0.0001999999366184838 5.000000874227762e-005 -0.9999999999999848 -1.74845553146
9491e-007 -1.577721810442024e-030 -1.748455531469489e-007 0.9999999999999838 4.3
71138828673856e-008 5e-005 17 294 0 587 383 451 284 291 292 0 0 -17 295 0 282 28
3 204 289 298 296 0 0 +16 296 197 0 ?295 292 307 297 0 0 1 31 297 198 0 296 308
 293 0 +-0.0004500000349691034 0.0001999999191339284 5.000000874227762e-005 0.99
99999999999848 1.748455531469491e-007 1.577721810442024e-030 1.748455531469489e-
007 -0.9999999999999838 -4.371138828673856e-008 5e-005 17 298 0 559 522 509 205
 295 296 0 0 -14 299 199 301 1e-008 320 278 303 38 300 +0 0 320 278 36 51 300 20
0 0 299 321 279 0 +-0.0005000000349691026 0.0001999999103916508 5.00000087422776
2e-005 0.9999999999999848 1.748455531469491e-007 0 5e-005 -1.748455531469489e-00
7 0.9999999999999838 4.371138828673856e-008 81 1 301 201 32 299 0 0 322 280 302
 83 3 302 1 1 1 15 303 202 0 231 299 0 17 304 0 303 310 231 305 309 307 0 315 +1
8 305 203 0 341 289 311 306 ?1 29 306 204 0 305 312 290 0.0003499999562886068 0.
0002500000590103702 5.000001092784704e-005 16 307 205 0 ?304 296 313 308 0 0 1 3
1 308 206 0 307 314 297 0 +0.0003499999650308845 0.000200000059010371 5.00000087
4227762e-005 0.9999999999999848 1.748455531469491e-007 1.577721810442024e-030 1.
748455531469489e-007 -0.9999999999999838 -4.371138828673856e-008 5e-005 17 309 0
 587 451 383 221 304 307 0 231 -17 310 0 303 316 304 311 315 313 0 319 -18 311 2
07 0 342 305 352 312 ?1 29 312 208 0 311 353 306 0.0004499999562886053 0.0002500
000764949255 5.000001092784704e-005 16 313 209 0 ?315 307 317 314 0 0 1 30 314 2
10 0 313 318 308 0 +-0.0005000000437113803 0.00024999991039165 5.000001092784704
e-005 -0.9999999999999848 -1.748455531469491e-007 0 17 315 0 337 338 342 305 310
 313 0 0 +17 316 0 303 231 310 227 319 317 0 0 -16 317 211 0 ?319 313 326 318 0
 0 1 31 318 212 0 317 327 314 0 +0.000449999965030883 0.0002000000764949263 5.00
0000874227762e-005 0.9999999999999848 1.748455531469491e-007 1.577721810442024e-
030 -1.748455531469489e-007 0.9999999999999838 4.371138828673856e-008 5e-005 17
 319 0 610 611 596 311 316 317 0 0 +14 320 213 322 1e-008 333 299 324 38 321 -0
 0 333 299 36 50 321 214 0 320 334 300 0 +-0.0005000000437113761 0.0002499998863
503864 0.0006000000109278466 1.748455531469489e-007 -0.9999999999999838 -4.37113
8828673856e-008 0.9999999999999848 1.748455531469491e-007 0 81 1 322 215 32 320
 0 0 335 301 323 83 3 323 1 1 1 15 324 216 0 325 320 0 17 325 0 324 288 252 284
 328 326 0 380 -16 326 217 0 ?328 317 330 327 0 0 1 30 327 218 0 326 331 318 0 +
-0.0003500000437113783 0.0002499999125772194 0.0006000000109278466 7.64274186381
5873e-015 -4.371138828673789e-008 0.9999999999999991 17 328 0 379 384 380 242 32
5 326 0 252 +17 329 0 324 252 288 248 332 330 0 256 +16 330 219 0 ?329 326 339 3
31 0 0 1 30 331 220 0 330 340 327 0 +-0.0004500000437113769 0.000249999895092664
1 0.0006000000109278466 7.642741863815873e-015 -4.371138828673789e-008 0.9999999
999999991 17 332 0 505 506 510 289 329 330 0 509 -14 333 221 335 1e-008 346 320
 337 38 334 -0 0 346 320 36 50 334 222 0 333 347 321 0 +-0.0005000000437113761 0
.0002499998863503864 0.0006000000109278466 1.748455531469489e-007 -0.99999999999
99838 -4.371138828673856e-008 0.9999999999999848 1.748455531469491e-007 0 81 1 3
35 223 32 333 0 0 348 322 336 83 3 336 1 1 1 15 337 224 0 338 333 0 17 338 0 337
 267 315 263 341 339 0 262 -16 339 225 0 ?341 330 343 340 0 0 1 30 340 226 0 339
 344 331 0 +0.000349999956288611 0.0002500000349691066 0.0006000000109278466 -7.
642741863815873e-015 4.371138828673789e-008 -0.9999999999999991 17 341 0 379 380
 384 305 338 339 0 383 +17 342 0 337 315 267 311 345 343 0 614 +16 343 227 0 ?34
2 339 354 344 0 0 1 30 344 228 0 343 355 340 0 +0.0004499999562886095 0.00025000
00524536619 0.0006000000109278466 -7.642741863815873e-015 4.371138828673789e-008
 -0.9999999999999991 17 345 0 619 605 614 268 342 343 0 274 -14 346 229 348 1e-0
08 375 333 350 38 347 -0 0 375 333 36 50 347 230 0 346 376 334 0 +0.000500000043
7113853 -0.0002499999388040523 0.0005999999890721525 -0.9999999999999848 -1.7484
55531469491e-007 0 1.748455531469489e-007 -0.9999999999999838 -4.371138828673856
e-008 81 1 348 231 32 346 0 0 377 335 349 83 3 349 1 1 1 15 350 232 0 351 346 0
 17 351 0 350 359 371 352 356 354 0 605 +18 352 233 0 364 311 357 353 ?1 29 353
 234 0 352 358 312 0.000499999965030886 0.0002000000633815098 0.0005500000087422
772 16 354 235 0 ?351 343 362 355 0 0 1 30 355 236 0 354 363 344 0 +0.0004999999
650308864 0.0002000000611959404 0.0006000000087422773 7.642741863815873e-015 -4.
371138828673789e-008 0.9999999999999991 17 356 0 619 614 605 357 351 354 0 593 -
18 357 237 0 371 352 360 358 ?1 29 358 238 0 357 361 353 0.0004999999650308821 0
.0002000000852372039 5.000000874227762e-005 17 359 0 350 365 351 360 364 362 0 5
49 +18 360 239 0 359 357 366 361 ?1 29 361 240 0 360 367 358 0.00050000003496910
73 -0.0001999999366184838 0.000549999991257722 16 362 241 0 ?359 354 368 363 0 0
 1 30 363 242 0 362 369 355 0 +0.0005000000437113849 -0.000249999936618483 0.000
5499999890721525 1.748455531469489e-007 -0.9999999999999838 -4.371138828673856e-
008 17 364 0 573 574 549 352 359 362 0 577 -17 365 0 350 371 359 366 370 368 0 5
65 +18 366 243 0 365 360 394 367 ?1 29 367 244 0 366 395 361 0.00050000003496910
34 -0.0001999999147627896 4.99999912577223e-005 16 368 245 0 ?365 362 372 369 0
 0 1 30 369 246 0 368 373 363 0 +0.0005000000349691076 -0.0001999999388040532 0.
0005999999912577219 -7.642741863815873e-015 4.371138828673789e-008 -0.9999999999
999991 17 370 0 532 533 537 360 365 368 0 536 -17 371 0 350 351 365 357 374 372
 0 356 +16 372 247 0 ?371 368 381 373 0 0 1 30 373 248 0 372 382 369 0 +0.000499
9999562886045 0.0002500000852372032 5.000001092784704e-005 -1.748455531469489e-0
07 0.9999999999999838 4.371138828673856e-008 17 374 0 592 568 593 366 371 372 0
 537 -14 375 249 377 1e-008 388 346 379 38 376 -0 0 388 346 36 50 376 250 0 375
 389 347 0 +-0.0005000000437113761 0.0002499998863503864 0.0006000000109278466 1
.748455531469489e-007 -0.9999999999999838 -4.371138828673856e-008 0.999999999999
9848 1.748455531469491e-007 0 81 1 377 251 32 375 0 0 390 348 378 83 3 378 0.470
5882370471954 0.2470588237047195 0.01568627543747425 15 379 252 0 380 375 0 17 3
80 0 379 328 341 284 383 381 0 283 +16 381 253 0 ?380 372 385 382 0 0 1 30 382 2
54 0 381 386 373 0 +-0.0005000000437113803 0.00024999991039165 5.000001092784704
e-005 -0.9999999999999848 -1.748455531469491e-007 0 17 383 0 587 309 294 305 380
 381 0 304 -17 384 0 379 341 328 263 387 385 0 0 +16 385 255 0 ?384 381 396 386
 0 0 1 30 386 256 0 385 397 382 0 +-0.0005000000437113764 0.0002499998885359558
 0.0005500000109278467 0.9999999999999848 1.748455531469491e-007 0 17 387 0 582
 246 273 242 384 385 0 241 -14 388 257 390 1e-008 417 375 392 38 389 -0 0 417 37
5 36 50 389 258 0 388 418 376 0 +-0.0004999999562885995 -0.0002500001136496055 0
.0005999999890721525 0.9999999999999848 1.748455531469491e-007 0 7.6427418638158
73e-015 -4.371138828673789e-008 0.9999999999999991 81 1 390 259 32 388 0 0 419 3
77 391 83 3 391 1 1 1 15 392 260 0 393 388 0 17 393 0 392 401 413 394 398 396 0
 461 +18 394 261 0 474 366 399 395 ?1 29 395 262 0 394 400 367 -0.00049999996503
08776 -0.0002000001114640369 0.000549999991257722 16 396 263 0 ?393 385 404 397
 0 0 1 30 397 264 0 396 405 386 0 +-0.0004999999650308771 -0.0002000001136496063
 0.0005999999912577219 7.642741863815873e-015 -4.371138828673789e-008 0.99999999
99999991 17 398 0 460 465 461 399 393 396 0 468 -18 399 265 0 486 394 402 400 ?1
 29 400 266 0 399 403 395 -0.0004999999650308814 -0.0002000000896083428 4.999999
12577223e-005 17 401 0 392 407 393 402 406 404 0 412 +18 402 267 0 401 399 408 4
03 ?1 29 403 268 0 402 409 400 -0.0005000000349690988 0.0001999998885359566 0.00
05500000087422772 16 404 269 0 ?401 396 410 405 0 0 1 30 405 270 0 404 411 397 0
 +-0.0004999999562885998 -0.000250000111464036 0.0005499999890721525 -1.74845553
1469489e-007 0.9999999999999838 4.371138828673856e-008 17 406 0 496 477 497 394
 401 404 0 393 -17 407 0 392 413 401 408 412 410 0 416 +18 408 271 0 407 402 0 4
09 ?1 29 409 272 0 408 0 403 -0.0005000000349691026 0.0001999999103916508 5.0000
00874227762e-005 16 410 273 0 ?407 404 414 411 0 0 1 30 411 274 0 410 415 405 0
 +-0.0005000000349690984 0.0001999998863503872 0.0006000000087422773 -7.64274186
3815873e-015 4.371138828673789e-008 -0.9999999999999991 17 412 0 505 510 506 402
 407 410 0 497 -17 413 0 392 393 407 399 416 414 0 398 +16 414 275 0 ?413 410 42
3 415 0 0 1 30 415 276 0 414 424 411 0 +-0.0004999999562886038 -0.00025000008960
83419 4.999998907215289e-005 1.748455531469489e-007 -0.9999999999999838 -4.37113
8828673856e-008 17 416 0 518 519 486 408 413 414 0 506 -14 417 277 419 1e-008 43
0 388 421 38 418 -0 0 430 388 36 50 418 278 0 417 431 389 0 +-0.0004999999562885
995 -0.0002500001136496055 0.0005999999890721525 -1.748455531469489e-007 0.99999
99999999838 4.371138828673856e-008 -7.642741863815873e-015 4.371138828673789e-00
8 -0.9999999999999991 81 1 419 279 32 417 0 0 432 390 420 83 3 420 0.47058823704
71954 0.2470588237047195 0.01568627543747425 15 421 280 0 422 417 0 17 422 0 421
 118 141 74 425 423 0 115 +16 423 281 0 ?422 414 427 424 0 0 1 30 424 282 0 423
 428 415 0 +-0.0004999999562885998 -0.000250000111464036 0.0005499999890721525 -
0.9999999999999848 -1.748455531469491e-007 0 17 425 0 491 99 84 95 422 423 0 0 -
17 426 0 421 141 118 137 429 427 0 0 +16 427 283 0 ?426 423 436 428 0 0 1 30 428
 284 0 427 437 424 0 +0.0005000000437113811 -0.0002499999147627888 4.99999890721
5289e-005 0.9999999999999848 1.748455531469491e-007 0 17 429 0 527 168 183 119 4
26 427 0 0 -14 430 285 432 1e-008 443 417 434 38 431 -0 0 443 417 36 50 431 286
 0 430 444 418 0 +0.0004999999562886087 0.0002500000611959395 0.0006000000109278
466 -7.642741863815873e-015 4.371138828673789e-008 -0.9999999999999991 -1.748455
531469489e-007 0.9999999999999838 4.371138828673856e-008 81 1 432 287 32 430 0 0
 445 419 433 83 3 433 0.4705882370471954 0.2470588237047195 0.01568627543747425
 15 434 288 0 435 430 0 17 435 0 434 13 49 9 438 436 0 246 +16 436 289 0 ?435 42
7 440 437 0 0 1 30 437 290 0 436 441 428 0 +0.0004999999650308864 0.000200000061
1959404 0.0006000000087422773 -0.9999999999999848 -1.748455531469491e-007 0 17 4
38 0 582 273 246 50 435 436 0 64 -17 439 0 434 49 13 45 442 440 0 0 +16 440 291
 0 ?439 436 449 441 0 0 1 30 441 292 0 440 450 437 0 +0.0005000000349691076 -0.0
001999999388040532 0.0005999999912577219 0.9999999999999848 1.748455531469491e-0
07 0 17 442 0 491 84 99 14 439 440 0 81 -14 443 293 445 1e-008 456 430 447 38 44
4 +0 0 456 430 36 50 444 294 0 443 457 431 0 +0.0004999999562886041 0.0002500000
874227725 1.092784707168464e-011 -7.642741863815873e-015 4.371138828673789e-008
 -0.9999999999999991 -1.748455531469489e-007 0.9999999999999838 4.37113882867385
6e-008 81 1 445 295 32 443 0 0 458 432 446 83 3 446 0.4705882370471954 0.2470588
237047195 0.01568627543747425 15 447 296 0 210 443 0 17 448 0 447 225 210 221 45
1 449 0 220 +16 449 297 0 ?448 440 453 450 0 0 1 30 450 298 0 449 454 441 0 +0.0
004999999650308818 0.0002000000874227734 8.742277657347711e-012 0.99999999999998
48 1.748455531469491e-007 0 17 451 0 587 294 309 200 448 449 0 291 -17 452 0 447
 210 225 158 455 453 0 207 +16 453 299 0 ?452 449 462 454 0 0 1 30 454 300 0 453
 463 450 0 +-0.0004999999650308818 -0.0002000000874227734 -8.742277657347711e-01
2 -0.9999999999999848 -1.748455531469491e-007 0 17 455 0 527 183 168 179 452 453
 0 0 -14 456 301 458 1e-008 469 443 460 38 457 +0 0 469 443 36 51 457 302 0 456
 470 444 0 +-0.000449999965030878 -0.0002000001049073287 0.0005999999912577219 -
7.642741863815873e-015 4.371138828673789e-008 -0.9999999999999991 5e-005 -1.7484
55531469489e-007 0.9999999999999838 4.371138828673856e-008 81 1 458 303 32 456 0
 0 471 445 459 83 3 459 1 1 1 15 460 304 0 461 456 0 17 461 0 460 398 126 394 46
4 462 0 0 -16 462 305 0 ?464 453 466 463 0 0 1 31 463 306 0 462 467 454 0 +-0.00
04499999650308784 -0.0002000001027217593 0.000549999991257722 7.642741863815873e
-015 -4.37113882867379e-008 0.9999999999999991 1.748455531469489e-007 -0.9999999
999999838 -4.371138828673856e-008 5e-005 17 464 0 473 88 474 79 461 462 0 85 +17
 465 0 460 126 398 122 468 466 0 0 -16 466 307 0 ?468 462 475 467 0 0 1 31 467 3
08 0 466 476 463 0 +-0.0004499999650308822 -0.0002000000808660651 4.999999125772
23e-005 -7.642741863815873e-015 4.37113882867379e-008 -0.9999999999999991 -1.748
455531469489e-007 0.9999999999999838 4.371138828673856e-008 5e-005 17 468 0 482
 483 172 399 465 466 0 0 +14 469 309 471 1e-008 478 456 473 38 470 +0 0 478 456
 36 53 470 310 0 469 479 457 0 +-0.0004499999650308784 -0.0002000001027217593 0.
000549999991257722 5e-005 -1.748455531469489e-007 0.9999999999999838 4.371138828
673856e-008 0.9999999999999848 1.748455531469491e-007 0 81 1 471 311 32 469 0 0
 480 458 472 83 3 472 1 1 1 15 473 312 0 474 469 0 17 474 0 473 464 88 394 477 4
75 0 406 -16 475 313 0 ?477 466 484 476 0 0 1 31 476 314 0 475 485 467 0 +-0.000
4499999650308784 -0.0002000001027217593 0.000549999991257722 -1.7484555368905e-0
07 0.9999999999999839 4.371138828673856e-008 0.9999999999999848 1.74845553689050
2e-007 2.369599107141968e-023 5.000000000000002e-005 17 477 0 496 27 406 23 474
 475 0 22 +14 478 315 480 1e-008 487 469 482 38 479 +0 0 487 469 36 53 479 316 0
 478 488 470 0 +-0.0004499999650308822 -0.0002000000808660651 4.99999912577223e-
005 5e-005 -1.748455531469489e-007 0.9999999999999838 4.371138828673856e-008 0.9
999999999999848 1.748455531469491e-007 0 81 1 480 317 32 478 0 0 489 471 481 83
 3 481 1 1 1 15 482 318 0 172 478 0 17 483 0 482 172 468 163 486 484 0 162 -16 4
84 319 0 ?486 475 498 485 0 0 1 31 485 320 0 484 499 476 0 +-0.00044999996503088
22 -0.0002000000808660651 4.99999912577223e-005 -1.748455531469489e-007 0.999999
9999999839 4.371138828673856e-008 0.9999999999999848 1.748455531469491e-007 0 5.
000000000000002e-005 17 486 0 518 416 214 399 483 484 0 413 +14 487 321 489 1e-0
08 492 478 491 38 488 +0 0 492 478 36 51 488 322 0 487 493 479 0 +0.000500000034
9691073 -0.0001999999366184838 0.000549999991257722 0.9999999999999848 1.7484555
31469491e-007 0 5e-005 -1.748455531469489e-007 0.9999999999999838 4.371138828673
856e-008 81 1 489 323 32 487 0 0 494 480 490 83 3 490 0.4705882370471954 0.24705
88237047195 0.01568627543747425 15 491 324 0 84 487 0 14 492 325 494 1e-008 501
 487 496 38 493 +0 0 501 487 36 51 493 326 0 492 502 488 0 +-0.00045000004371137
73 0.0002499998972782335 0.0005500000109278467 1.748455531469489e-007 -0.9999999
999999838 -4.371138828673856e-008 5.000000000000002e-005 0.9999999999999848 1.74
8455531469491e-007 0 81 1 494 327 32 492 0 0 503 489 495 83 3 495 1 1 1 15 496 3
28 0 477 492 0 17 497 0 496 406 27 402 500 498 0 513 -16 498 329 0 ?500 484 507
 499 0 0 1 31 499 330 0 498 508 485 0 +-0.0004500000349690996 0.0001999998972782
343 0.0005500000087422773 -1.748455531469489e-007 0.9999999999999839 4.371138774
463748e-008 7.642741769031908e-015 -4.37113877446368e-008 0.9999999999999991 5.0
00000000000002e-005 17 500 0 554 256 513 17 497 498 0 0 +14 501 331 503 1e-008 5
14 492 505 38 502 +0 0 514 492 36 51 502 332 0 501 515 493 0 +-0.000450000034969
0992 0.0001999998950926649 0.0006000000087422773 -7.642741863815873e-015 4.37113
8828673789e-008 -0.9999999999999991 5e-005 -1.748455531469489e-007 0.99999999999
99838 4.371138828673856e-008 81 1 503 333 32 501 0 0 516 494 504 83 3 504 1 1 1
 15 505 334 0 506 501 0 17 506 0 505 412 332 408 509 507 0 522 -16 507 335 0 ?50
9 498 511 508 0 0 1 31 508 336 0 507 512 499 0 +-0.0004500000349691034 0.0001999
999191339284 5.000000874227762e-005 -7.642741863815873e-015 4.37113882867379e-00
8 -0.9999999999999991 -1.748455531469489e-007 0.9999999999999838 4.3711388286738
56e-008 5e-005 17 509 0 559 298 522 289 506 507 0 288 +17 510 0 505 332 412 248
 513 511 0 0 -16 511 337 0 ?513 507 520 512 0 0 1 31 512 338 0 511 521 508 0 +-0
.0004500000349690996 0.0001999998972782343 0.0005500000087422773 7.6427418638158
73e-015 -4.37113882867379e-008 0.9999999999999991 1.748455531469489e-007 -0.9999
999999999838 -4.371138828673856e-008 5e-005 17 513 0 554 500 256 402 510 511 0 0
 +14 514 339 516 1e-008 523 501 518 38 515 +0 0 523 501 36 51 515 340 0 514 524
 502 0 +-0.0004499999562886045 -0.0002500000808660643 4.999998907215289e-005 -1.
748455531469489e-007 0.9999999999999838 4.371138828673856e-008 5.000000000000002
e-005 -0.9999999999999848 -1.748455531469491e-007 0 81 1 516 341 32 514 0 0 525
 503 517 83 3 517 1 1 1 15 518 342 0 486 514 0 17 519 0 518 214 416 205 522 520
 0 298 -16 520 343 0 ?522 511 534 521 0 0 1 31 521 344 0 520 535 512 0 +-0.00045
00000349691034 0.0001999999191339284 5.000000874227762e-005 -1.7484555368905e-00
7 0.9999999999999839 4.371138828673856e-008 -0.9999999999999848 -1.7484555368905
02e-007 -2.369599107141968e-023 5.000000000000002e-005 17 522 0 559 509 298 408
 519 520 0 0 +14 523 345 525 1e-008 528 514 527 38 524 +0 0 528 514 36 51 524 34
6 0 523 529 515 0 +-0.0004999999650308814 -0.0002000000896083428 4.9999991257722
3e-005 -0.9999999999999848 -1.748455531469491e-007 0 5e-005 1.748455531469489e-0
07 -0.9999999999999838 -4.371138828673856e-008 81 1 525 347 32 523 0 0 530 516 5
26 83 3 526 0.4705882370471954 0.2470588237047195 0.01568627543747425 15 527 348
 0 168 523 0 14 528 349 530 1e-008 541 523 532 38 529 +0 0 541 523 36 51 529 350
 0 528 542 524 0 +0.0004500000349691084 -0.0001999999475463308 0.000599999991257
7219 -7.642741863815873e-015 4.371138828673789e-008 -0.9999999999999991 5e-005 -
1.748455531469489e-007 0.9999999999999838 4.371138828673856e-008 81 1 530 351 32
 528 0 0 543 525 531 83 3 531 1 1 1 15 532 352 0 533 528 0 17 533 0 532 151 370
 101 536 534 0 0 -16 534 353 0 ?536 520 538 535 0 0 1 31 535 354 0 534 539 521 0
 +0.000450000034969108 -0.0001999999453607614 0.000549999991257722 7.64274186381
5873e-015 -4.37113882867379e-008 0.9999999999999991 1.748455531469489e-007 -0.99
99999999999838 -4.371138828673856e-008 5e-005 17 536 0 545 546 109 360 533 534 0
 0 +17 537 0 532 370 151 366 540 538 0 0 -16 538 355 0 ?540 534 547 539 0 0 1 31
 539 356 0 538 548 535 0 +0.0004500000349691042 -0.0001999999235050673 4.9999991
2577223e-005 -7.642741863815873e-015 4.37113882867379e-008 -0.9999999999999991 -
1.748455531469489e-007 0.9999999999999838 4.371138828673856e-008 5e-005 17 540 0
 564 193 565 143 537 538 0 0 +14 541 357 543 1e-008 550 528 545 38 542 +0 0 550
 528 36 53 542 358 0 541 551 529 0 +0.000450000034969108 -0.0001999999453607614
 0.000549999991257722 5e-005 -1.748455531469489e-007 0.9999999999999838 4.371138
828673856e-008 0.9999999999999848 1.748455531469491e-007 0 81 1 543 359 32 541 0
 0 552 530 544 83 3 544 1 1 1 15 545 360 0 109 541 0 17 546 0 545 109 536 53 549
 547 0 106 -16 547 361 0 ?549 538 566 548 0 0 1 31 548 362 0 547 567 539 0 +0.00
0450000034969108 -0.0001999999453607614 0.000549999991257722 -1.748455531469489e
-007 0.9999999999999839 4.371138774463748e-008 -7.642741769031908e-015 4.3711387
7446368e-008 -0.9999999999999991 5.000000000000002e-005 17 549 0 573 364 63 360
 546 547 0 370 +14 550 363 552 1e-008 555 541 554 38 551 +0 0 555 541 36 53 551
 364 0 550 556 542 0 +-0.0004500000349690996 0.0001999998972782343 0.00055000000
87422773 5e-005 -1.748455531469489e-007 0.9999999999999838 4.371138828673856e-00
8 0.9999999999999848 1.748455531469491e-007 0 81 1 552 365 32 550 0 0 557 543 55
3 83 3 553 1 1 1 15 554 366 0 513 550 0 14 555 367 557 1e-008 560 550 559 38 556
 +0 0 560 550 36 53 556 368 0 555 561 551 0 +-0.0004500000349691034 0.0001999999
191339284 5.000000874227762e-005 5e-005 -1.748455531469489e-007 0.99999999999998
38 4.371138828673856e-008 0.9999999999999848 1.748455531469491e-007 0 81 1 557 3
69 32 555 0 0 562 552 558 83 3 558 1 1 1 15 559 370 0 522 555 0 14 560 371 562 1
e-008 569 555 564 38 561 +0 0 569 555 36 53 561 372 0 560 570 556 0 +0.000450000
0349691042 -0.0001999999235050673 4.99999912577223e-005 5e-005 -1.74845553146948
9e-007 0.9999999999999838 4.371138828673856e-008 0.9999999999999848 1.7484555314
69491e-007 0 81 1 562 373 32 560 0 0 571 557 563 83 3 563 1 1 1 15 564 374 0 540
 560 0 17 565 0 564 540 193 366 568 566 0 374 -16 566 375 0 ?568 547 575 567 0 0
 1 31 567 376 0 566 576 548 0 +0.0004500000349691042 -0.0001999999235050673 4.99
999912577223e-005 -1.748455531469489e-007 0.9999999999999839 4.371138828673856e-
008 0.9999999999999848 1.748455531469491e-007 0 5.000000000000002e-005 17 568 0
 592 235 374 185 565 566 0 184 +14 569 377 571 1e-008 578 560 573 38 570 +0 0 57
8 560 36 51 570 378 0 569 579 561 0 +0.0004499999562886091 0.0002500000546392313
 0.0005500000109278467 -1.748455531469489e-007 0.9999999999999838 4.371138828673
856e-008 5.000000000000002e-005 -0.9999999999999848 -1.748455531469491e-007 0 81
 1 571 379 32 569 0 0 580 562 572 83 3 572 1 1 1 15 573 380 0 549 569 0 17 574 0
 573 63 364 59 577 575 0 277 -16 575 381 0 ?577 566 594 576 0 0 1 31 576 382 0 5
75 595 567 0 +0.0004499999650308868 0.0002000000546392321 0.0005500000087422773
 -1.748455531469489e-007 0.9999999999999839 4.371138828673856e-008 -0.9999999999
999848 -1.748455531469491e-007 0 5.000000000000002e-005 17 577 0 601 602 277 352
 574 575 0 351 +14 578 383 580 1e-008 583 569 582 38 579 +0 0 583 569 36 51 579
 384 0 578 584 570 0 +0.000499999965030886 0.0002000000633815098 0.0005500000087
422773 -0.9999999999999848 -1.748455531469491e-007 0 5e-005 1.748455531469489e-0
07 -0.9999999999999838 -4.371138828673856e-008 81 1 580 385 32 578 0 0 585 571 5
81 83 3 581 0.4705882370471954 0.2470588237047195 0.01568627543747425 15 582 386
 0 246 578 0 14 583 387 585 1e-008 588 578 587 38 584 +0 0 588 578 36 51 584 388
 0 583 589 579 0 +-0.0005000000349691026 0.0001999999103916508 5.000000874227762
e-005 0.9999999999999848 1.748455531469491e-007 0 5e-005 -1.748455531469489e-007
 0.9999999999999838 4.371138828673856e-008 81 1 585 389 32 583 0 0 590 580 586 8
3 3 586 0.4705882370471954 0.2470588237047195 0.01568627543747425 15 587 390 0 2
94 583 0 14 588 391 590 1e-008 597 583 592 38 589 +0 0 597 583 36 51 589 392 0 5
88 598 584 0 +0.0004500000437113819 -0.0002499999235050665 4.999998907215289e-00
5 1.748455531469489e-007 -0.9999999999999838 -4.371138828673856e-008 5.000000000
000002e-005 0.9999999999999848 1.748455531469491e-007 0 81 1 590 393 32 588 0 0
 599 585 591 83 3 591 1 1 1 15 592 394 0 568 588 0 17 593 0 592 374 235 357 596
 594 0 611 -16 594 395 0 ?596 575 603 595 0 0 1 31 595 396 0 594 604 576 0 +0.00
0449999965030883 0.0002000000764949263 5.000000874227762e-005 -1.748455531469489
e-007 0.9999999999999839 4.371138828673856e-008 -0.9999999999999848 -1.748455531
469491e-007 0 5.000000000000002e-005 17 596 0 610 319 611 227 593 594 0 226 +14
 597 397 599 1e-008 606 588 601 38 598 +0 0 606 588 36 53 598 398 0 597 607 589
 0 +0.0004499999650308868 0.0002000000546392321 0.0005500000087422773 5e-005 -1.
748455531469489e-007 0.9999999999999838 4.371138828673856e-008 0.999999999999984
8 1.748455531469491e-007 0 81 1 599 399 32 597 0 0 608 590 600 83 3 600 1 1 1 15
 601 400 0 277 597 0 17 602 0 601 277 577 268 605 603 0 0 -16 603 401 0 ?605 594
 612 604 0 0 1 31 604 402 0 603 613 595 0 +0.0004499999650308868 0.0002000000546
392321 0.0005500000087422773 -7.642741863815873e-015 4.37113882867379e-008 -0.99
99999999999991 1.748455531469489e-007 -0.9999999999999838 -4.371138828673856e-00
8 5e-005 17 605 0 619 356 345 352 602 603 0 0 +14 606 403 608 1e-008 615 597 610
 38 607 +0 0 615 597 36 53 607 404 0 606 616 598 0 +0.000449999965030883 0.00020
00000764949263 5.000000874227762e-005 5e-005 -1.748455531469489e-007 0.999999999
9999838 4.371138828673856e-008 0.9999999999999848 1.748455531469491e-007 0 81 1
 608 405 32 606 0 0 617 599 609 83 3 609 1 1 1 15 610 406 0 596 606 0 17 611 0 6
10 596 319 357 614 612 0 0 -16 612 407 0 ?614 603 0 613 0 0 1 31 613 408 0 612 0
 604 0 +0.000449999965030883 0.0002000000764949263 5.000000874227762e-005 7.6427
41863815873e-015 -4.37113882867379e-008 0.9999999999999991 -1.748455531469489e-0
07 0.9999999999999838 4.371138828673856e-008 5e-005 17 614 0 619 345 356 311 611
 612 0 310 +14 615 409 617 1e-008 0 606 619 38 616 +0 0 0 606 36 51 616 410 0 61
5 0 607 0 +0.0004499999650308872 0.0002000000524536627 0.0006000000087422773 -7.
642741863815873e-015 4.371138828673789e-008 -0.9999999999999991 5e-005 -1.748455
531469489e-007 0.9999999999999838 4.371138828673856e-008 81 1 617 411 32 615 0 0
 0 608 618 83 3 618 1 1 1 15 619 412 0 605 615 0 1 0 
