**ABCDEFGHIJKLMNOPQRSTUVWXYZabcdefghijklmnopqrstuvwxyz**************************
**PARASOLID !"#$%&'()*+,-./:;<=>?@[\]^_`{|}~0123456789**************************
**PART1;
MC=AMD64;
MC_MODEL=Intel64 Family 6 Model 158 Stepping 10, GenuineIntel;
MC_ID=unknown;
OS=Windows_NT;
OS_RELEASE=unknown;
FRU=CAD Exchanger 3.6.1 (cadexchanger.com);
APPL=unknown;
SITE=unknown;
USER=unknown;
FORMAT=text;
GUISE=transmit;
KEY=CAPC0805(2012)145_L_CMP-001-00054-2;
FILE=CAPC0805(2012)145_L_CMP-001-00054-2.x_t;
DATE=Mon Jun 08 09:31:55 2020;
**PART2;
SCH=SCH_1200000_12006;
USFLD_SIZE=0;
**PART3;
**END_OF_HEADER*****************************************************************
T51 : TRANSMIT FILE created by modeller version 120000017 SCH_1200000_120060 12
 1 412 0 2 0 0 0 0 1000 1e-008 0 0 0 1 0 1 1 38 6 12 10 35 11 9 70 2 0 1 0 0 4 1
 20 0 3 3 1 T74 20 3 1 0 4 0 0 0 0 0 0 0 0 0 0 0 0 0 0 0 0 0 0 0 81 1 4 7 32 5 0
 0 41 0 34 14 5 5 4 1e-008 39 0 7 38 6 -0 0 39 0 36 50 6 6 0 5 40 0 0 +0.0009999
99895092664 0.0006000001114640304 0.001450000026226832 -7.642741863815873e-015 4
.371138828673789e-008 -0.9999999999999991 -1.748455531469489e-007 0.999999999999
9838 4.371138828673856e-008 15 7 8 0 8 5 0 17 8 0 7 16 28 9 13 11 0 21 -18 9 9 0
 8 0 14 10 ?1 29 10 10 0 9 15 0 -0.0007000000961650324 0.0005499998142265909 0.0
01450000024041263 16 11 11 0 ?13 0 19 12 0 0 1 30 12 12 0 11 20 0 0 +-0.00070000
01049073102 0.0005999998142265901 0.001450000026226832 1.748455532372991e-007 -0
.9999999999999838 -4.371138828673856e-008 17 13 0 434 439 435 14 8 11 0 28 +18 1
4 13 0 13 9 17 15 ?1 29 15 14 0 14 18 10 -0.000699999903834924 -0.00055000018577
33914 0.001449999975958735 17 16 0 7 22 8 17 21 19 0 253 +18 17 15 0 16 14 23 18
 ?1 29 18 16 0 17 24 15 -0.0009500000961650285 0.0005499997705152027 0.001450000
024041263 16 19 17 0 ?16 11 25 20 0 0 1 30 20 18 0 19 26 12 0 +0.000999999903834
9417 0.0005500001114640313 0.001450000024041263 -0.9999999999999848 -1.748455531
469491e-007 0 17 21 0 240 241 253 9 16 19 0 435 -17 22 0 7 28 16 23 27 25 0 31 +
18 23 19 0 477 17 45 24 ?1 29 24 20 0 23 46 18 -0.0009499999038349201 -0.0005500
002294847796 0.001449999975958735 16 25 21 0 ?22 19 29 26 0 0 1 30 26 22 0 25 30
 20 0 +-0.0009500001049073063 0.0005999997705152018 0.001450000026226832 1.74845
5531469489e-007 -0.9999999999999838 -4.371138828673856e-008 17 27 0 496 497 477
 17 22 25 0 500 -17 28 0 7 8 22 14 31 29 0 442 +16 29 23 0 ?28 25 47 30 0 0 1 30
 30 24 0 29 48 26 0 +0.00100000009616505 -0.0005499998885359511 0.00144999997595
8735 0.9999999999999848 1.748455531469491e-007 0 17 31 0 72 85 81 23 28 29 0 88
 -80 1 32 0 33 8001 0 0 0 0 3 5 0 0 FFFFTFTFFFFFFF2 79 15 33 SDL/TYSA_COLOUR83 3
 34 1 1 1 19 35 1 0 1 37 0 36 V13 36 2 0 1 0 0 0 0 35 5 19 37 3 0 1 0 35 38 S13
 38 4 0 1 0 5 0 0 37 0 14 39 25 41 1e-008 68 5 43 38 40 -0 0 68 5 36 50 40 26 0
 39 69 6 0 +0.000999999895092664 0.0006000001114640304 0.001450000026226832 -7.6
42741863815873e-015 4.371138828673789e-008 -0.9999999999999991 -1.74845553146948
9e-007 0.9999999999999838 4.371138828673856e-008 81 1 41 27 32 39 0 0 70 4 42 83
 3 42 1 1 1 15 43 28 0 44 39 0 17 44 0 43 52 64 45 49 47 0 57 -18 45 29 0 44 23
 50 46 ?1 29 46 30 0 45 51 24 0.0007000000961650546 -0.000549999940989617 0.0014
49999975958735 16 47 31 0 ?49 29 55 48 0 0 1 30 48 32 0 47 56 30 0 +0.0006999998
950926685 0.0006000000590103645 0.001450000026226832 -1.748455532372991e-007 0.9
999999999999838 4.371138828673856e-008 17 49 0 434 435 439 50 44 47 0 270 +18 50
 33 0 49 45 53 51 ?1 29 51 34 0 50 54 46 0.0006999999038349461 0.000550000059010
3653 0.001450000024041263 17 52 0 43 58 44 53 57 55 0 63 +18 53 35 0 52 50 59 54
 ?1 29 54 36 0 53 60 51 0.0009500000961650508 -0.0005499998972782287 0.001449999
975958735 16 55 37 0 ?52 47 61 56 0 0 1 30 56 38 0 55 62 48 0 +0.001000000096165
05 -0.0005499998885359511 0.001449999975958735 0.9999999999999848 1.748455531469
491e-007 0 17 57 0 93 94 106 45 52 55 0 439 -17 58 0 43 64 52 59 63 61 0 67 +18
 59 39 0 277 53 74 60 ?1 29 60 40 0 59 75 54 0.0009499999038349423 0.00055000010
27217536 0.001450000024041263 16 61 41 0 ?58 55 65 62 0 0 1 30 62 42 0 61 66 56
 0 +0.0009499998950926646 0.0006000001027217527 0.001450000026226832 -1.74845553
1469489e-007 0.9999999999999838 4.371138828673856e-008 17 63 0 573 549 574 53 58
 61 0 546 -17 64 0 43 44 58 50 67 65 0 0 +16 65 43 0 ?64 61 76 66 0 0 1 30 66 44
 0 65 77 62 0 +0.0009999999038349417 0.0005500001114640313 0.001450000024041263
 -0.9999999999999848 -1.748455531469491e-007 0 17 67 0 261 274 270 59 64 65 0 57
4 -14 68 45 70 1e-008 89 39 72 38 69 +0 0 89 39 36 51 69 46 0 68 90 40 0 +0.0010
0000009616505 -0.0005499998863503817 0.001399999975958735 0.9999999999999848 1.7
48455531469491e-007 0 5.000000000000002e-005 -1.748455531469489e-007 0.999999999
9999838 4.371138828673856e-008 81 1 70 47 32 68 0 0 91 41 71 83 3 71 1 1 1 15 72
 48 0 73 68 0 17 73 0 72 81 85 74 78 76 0 422 -18 74 49 0 73 59 79 75 ?1 29 75 5
0 0 74 80 60 -0.0006999998950926467 -0.0006000001835878211 0.001399999973773166
 16 76 51 0 ?78 65 82 77 0 0 1 30 77 52 0 76 83 66 0 +-0.0009999998950926423 -0.
0006000002360414871 0.001399999973773166 -0.9999999999999848 -1.748455531469491e
-007 0 17 78 0 114 121 115 79 73 76 0 85 +18 79 53 0 78 74 95 80 ?1 29 80 54 0 7
9 96 75 -0.0009499998950926428 -0.0006000002272992095 0.001399999973773166 17 81
 0 72 31 73 14 84 82 0 0 +16 82 55 0 ?81 76 86 83 0 0 1 31 83 56 0 82 87 77 0 +-
0.0006999999038349244 -0.000550000183587822 0.001399999975958735 -0.999999999999
9848 -1.748455531469491e-007 -1.577721810442024e-030 -1.748455531469489e-007 0.9
999999999999838 4.371138828673856e-008 5.000000000000002e-005 17 84 0 491 425 44
2 74 81 82 0 115 -17 85 0 72 73 31 79 88 86 0 464 +16 86 57 0 ?85 82 97 87 0 0 1
 31 87 58 0 86 98 83 0 +-0.0009499999038349205 -0.0005500002272992103 0.00139999
9975958735 0.9999999999999848 1.748455531469492e-007 -2.168404344971012e-015 -9.
811146208786855e-015 4.371138828673751e-008 -0.9999999999999991 4.99999999999999
2e-005 17 88 0 473 474 464 23 85 86 0 0 -14 89 59 91 1e-008 110 68 93 38 90 +0 0
 110 68 36 51 90 60 0 89 111 69 0 +0.00100000009616505 -0.0005499998863503817 0.
001399999975958735 0.9999999999999848 1.748455531469491e-007 0 5.000000000000002
e-005 -1.748455531469489e-007 0.9999999999999838 4.371138828673856e-008 81 1 91
 61 32 89 0 0 112 70 92 83 3 92 1 1 1 15 93 62 0 57 89 0 17 94 0 93 100 57 95 99
 97 0 425 +18 95 63 0 94 79 101 96 ?1 29 96 64 0 95 102 80 0.0007000001049073318
 -0.0005999999388040467 0.001399999973773166 16 97 65 0 ?94 86 103 98 0 0 1 31 9
8 66 0 97 104 87 0 +0.0007000000961650542 -0.0005499999388040475 0.0013999999759
58735 0.9999999999999848 1.748455531469491e-007 1.577721810442024e-030 1.7484555
31469489e-007 -0.9999999999999838 -4.371138828673856e-008 5.000000000000002e-005
 17 99 0 491 442 425 45 94 97 0 0 -17 100 0 93 106 94 101 105 103 0 109 -18 101
 67 0 533 95 119 102 ?1 29 102 68 0 101 120 96 0.0009500001049073281 -0.00059999
98950926583 0.001399999973773166 16 103 69 0 ?105 97 107 104 0 0 1 30 104 70 0 1
03 108 98 0 +-0.0009999998950926423 -0.0006000002360414871 0.001399999973773166
 -0.9999999999999848 -1.748455531469491e-007 0 17 105 0 135 136 148 95 100 103 0
 141 +17 106 0 93 57 100 53 109 107 0 0 -16 107 71 0 ?109 103 116 108 0 0 1 31 1
08 72 0 107 117 104 0 +0.0009500000961650503 -0.0005499998950926592 0.0013999999
75958735 0.9999999999999848 1.748455531469491e-007 1.577721810442024e-030 -1.748
455531469489e-007 0.9999999999999838 4.371138828673856e-008 5.000000000000002e-0
05 17 109 0 545 536 546 101 106 107 0 148 +14 110 73 112 1e-008 131 89 114 38 11
1 -0 0 131 89 36 50 111 74 0 110 132 90 0 +-0.0009999998950926418 -0.00060000023
82270565 0.001449999973773166 -1.748455531469489e-007 0.9999999999999838 4.37113
8828673856e-008 -7.642741863815873e-015 4.371138828673789e-008 -0.99999999999999
91 81 1 112 75 32 110 0 0 133 91 113 83 3 113 1 1 1 15 114 76 0 115 110 0 17 115
 0 114 78 127 74 118 116 0 0 -16 116 77 0 ?118 107 124 117 0 0 1 30 117 78 0 116
 125 108 0 +-0.0006999998950926463 -0.0006000001857733905 0.001449999973773166 -
7.642741863815873e-015 4.371138828673789e-008 -0.9999999999999991 17 118 0 421 4
26 422 119 115 116 0 165 +18 119 79 0 429 101 122 120 ?1 29 120 80 0 119 123 102
 -0.000699999895092657 -0.0006000001245774469 4.999997377316699e-005 17 121 0 11
4 127 78 122 126 124 0 465 +18 122 81 0 172 119 137 123 ?1 29 123 82 0 122 138 1
20 -0.0009499998950926532 -0.0006000001682888352 4.999997377316699e-005 16 124 8
3 0 ?121 116 128 125 0 0 1 30 125 84 0 124 129 117 0 +-0.0009499998950926424 -0.
0006000002294847788 0.001449999973773166 -7.642741863815873e-015 4.3711388286737
89e-008 -0.9999999999999991 17 126 0 460 461 465 79 121 124 0 0 -17 127 0 114 11
5 121 119 130 128 0 118 +16 128 85 0 ?127 124 139 129 0 0 1 30 129 86 0 128 140
 125 0 +0.001000000104907317 -0.0005999998273400066 4.999997377316699e-005 0.999
9999999999848 1.748455531469491e-007 0 17 130 0 156 169 165 122 127 128 0 121 -1
4 131 87 133 1e-008 152 110 135 38 132 -0 0 152 110 36 50 132 88 0 131 153 111 0
 +-0.0009999998950926418 -0.0006000002382270565 0.001449999973773166 -1.74845553
1469489e-007 0.9999999999999838 4.371138828673856e-008 -7.642741863815873e-015 4
.371138828673789e-008 -0.9999999999999991 81 1 133 89 32 131 0 0 154 112 134 83
 3 134 1 1 1 15 135 90 0 136 131 0 17 136 0 135 142 105 137 141 139 0 147 -18 13
7 91 0 183 122 143 138 ?1 29 138 92 0 137 144 123 0.0007000001049073215 -0.00059
99998797936725 4.999997377316699e-005 16 139 93 0 ?141 128 145 140 0 0 1 30 140
 94 0 139 146 129 0 +0.0007000001049073324 -0.0005999999409896161 0.001449999973
773166 7.642741863815873e-015 -4.371138828673789e-008 0.9999999999999991 17 141
 0 421 422 426 95 136 139 0 0 +17 142 0 135 148 136 143 147 145 0 0 +18 143 95 0
 190 137 158 144 ?1 29 144 96 0 143 159 138 0.0009500001049073176 -0.00059999983
60822843 4.999997377316699e-005 16 145 97 0 ?142 139 149 146 0 0 1 30 146 98 0 1
45 150 140 0 +0.001000000104907317 -0.0005999998273400066 4.999997377316699e-005
 0.9999999999999848 1.748455531469491e-007 0 17 147 0 177 178 190 137 142 145 0
 0 -17 148 0 135 105 142 101 151 149 0 0 +16 149 99 0 ?148 145 160 150 0 0 1 30
 150 100 0 149 161 146 0 +0.0009500001049073285 -0.0005999998972782279 0.0014499
99973773166 7.642741863815873e-015 -4.371138828673789e-008 0.9999999999999991 17
 151 0 532 537 533 143 148 149 0 142 -14 152 101 154 1e-008 173 131 156 38 153 +
0 0 173 131 36 51 153 102 0 152 174 132 0 +-0.0009999999038349302 -0.00055000017
70311138 4.999997595873641e-005 -0.9999999999999848 -1.748455531469491e-007 0 5.
000000000000002e-005 1.748455531469489e-007 -0.9999999999999838 -4.3711388286738
56e-008 81 1 154 103 32 152 0 0 175 133 155 83 3 155 1 1 1 15 156 104 0 157 152
 0 17 157 0 156 165 169 158 162 160 0 168 -18 158 105 0 207 143 163 159 ?1 29 15
9 106 0 158 164 144 -0.000699999903834935 -0.0005500001223918784 -2.404126355770
621e-011 16 160 107 0 ?162 149 166 161 0 0 1 30 161 108 0 160 167 150 0 +-0.0009
999999038349306 -0.0005500001748455443 -2.404126355770621e-011 -0.99999999999998
48 -1.748455531469491e-007 0 17 162 0 198 211 207 163 157 160 0 0 +18 163 109 0
 169 158 179 164 ?1 29 164 110 0 163 180 159 -0.0009499999038349311 -0.000550000
1661032666 -2.404126355770621e-011 17 165 0 156 130 157 119 168 166 0 0 +16 166
 111 0 ?165 160 170 167 0 0 1 31 167 112 0 166 171 161 0 +-0.0006999999038349347
 -0.0005500001245774478 4.999997595873641e-005 -0.9999999999999848 -1.7484555314
69491e-007 -1.577721810442024e-030 -1.748455531469489e-007 0.9999999999999838 4.
371138828673856e-008 5.000000000000002e-005 17 168 0 527 455 429 158 165 166 0 0
 -17 169 0 156 157 130 163 172 170 0 214 +16 170 113 0 ?169 166 181 171 0 0 1 31
 171 114 0 170 182 167 0 +-0.0009499999038349308 -0.000550000168288836 4.9999975
95873641e-005 0.9999999999999848 1.748455531469491e-007 1.577721810442024e-030 1
.748455531469489e-007 -0.9999999999999838 -4.371138828673856e-008 5.000000000000
002e-005 17 172 0 482 468 483 122 169 170 0 130 -14 173 115 175 1e-008 194 152 1
77 38 174 +0 0 194 152 36 51 174 116 0 173 195 153 0 +-0.0009999999038349302 -0.
0005500001770311138 4.999997595873641e-005 -0.9999999999999848 -1.74845553146949
1e-007 0 5.000000000000002e-005 1.748455531469489e-007 -0.9999999999999838 -4.37
1138828673856e-008 81 1 175 117 32 173 0 0 196 154 176 83 3 176 1 1 1 15 177 118
 0 147 173 0 17 178 0 177 184 147 179 183 181 0 189 +18 179 119 0 178 163 185 18
0 ?1 29 180 120 0 179 186 164 0.0007000000961650436 -0.0005499998776081039 -2.40
4126355770621e-011 16 181 121 0 ?178 170 187 182 0 0 1 31 182 122 0 181 188 171
 0 +0.0007000000961650439 -0.0005499998797936734 4.999997595873641e-005 0.999999
9999999848 1.748455531469491e-007 1.577721810442024e-030 1.748455531469489e-007
 -0.9999999999999838 -4.371138828673856e-008 5.000000000000002e-005 17 183 0 527
 429 455 137 178 181 0 426 -17 184 0 177 190 178 185 189 187 0 193 -18 185 123 0
 184 179 200 186 ?1 29 186 124 0 185 201 180 0.0009500000961650397 -0.0005499998
338967157 -2.404126355770621e-011 16 187 125 0 ?189 181 191 188 0 0 1 30 188 126
 0 187 192 182 0 +-0.0009999999038349306 -0.0005500001748455443 -2.4041263557706
21e-011 -0.9999999999999848 -1.748455531469491e-007 0 17 189 0 219 220 232 179 1
84 187 0 225 +17 190 0 177 147 184 143 193 191 0 540 -16 191 127 0 ?193 187 202
 192 0 0 1 31 192 128 0 191 203 188 0 +0.00095000009616504 -0.000549999836082285
1 4.999997595873641e-005 0.9999999999999848 1.748455531469491e-007 1.57772181044
2024e-030 -1.748455531469489e-007 0.9999999999999838 4.371138828673856e-008 5.00
0000000000002e-005 17 193 0 564 565 540 185 190 191 0 232 +14 194 129 196 1e-008
 215 173 198 38 195 +0 0 215 173 36 50 195 130 0 194 216 174 0 +0.00099999989509
26529 0.0006000001748455435 2.622683297204314e-011 -7.642741863815873e-015 4.371
138828673789e-008 -0.9999999999999991 -1.748455531469489e-007 0.9999999999999838
 4.371138828673856e-008 81 1 196 131 32 194 0 0 217 175 197 83 3 197 1 1 1 15 19
8 132 0 199 194 0 17 199 0 198 207 211 200 204 202 0 451 +18 200 133 0 210 185 2
05 201 ?1 29 201 134 0 200 206 186 -0.0007000000961650436 0.0005499998776081039
 2.404126355770621e-011 16 202 135 0 ?199 191 208 203 0 0 1 30 203 136 0 202 209
 192 0 +0.0009999999038349306 0.0005500001748455443 2.404126355770621e-011 0.999
9999999999848 1.748455531469491e-007 0 17 204 0 282 295 291 205 199 202 0 519 -1
8 205 137 0 211 200 221 206 ?1 29 206 138 0 205 222 201 -0.0009500000961650397 0
.0005499998338967157 2.404126355770621e-011 17 207 0 198 162 199 158 210 208 0 4
52 +16 208 139 0 ?207 202 212 209 0 0 1 30 209 140 0 208 213 203 0 +-0.000700000
1049073212 0.0005999998776081031 2.622683297204314e-011 1.748455532372991e-007 -
0.9999999999999838 -4.371138828673856e-008 17 210 0 447 448 452 200 207 208 0 29
1 -17 211 0 198 199 162 205 214 212 0 298 +16 212 141 0 ?211 208 223 213 0 0 1 3
0 213 142 0 212 224 209 0 +-0.0009500001049073173 0.0005999998338967149 2.622683
297204314e-011 -1.748455531469489e-007 0.9999999999999838 4.371138828673856e-008
 17 214 0 518 486 519 163 211 212 0 483 -14 215 143 217 1e-008 236 194 219 38 21
6 +0 0 236 194 36 50 216 144 0 215 237 195 0 +0.0009999998950926529 0.0006000001
748455435 2.622683297204314e-011 -7.642741863815873e-015 4.371138828673789e-008
 -0.9999999999999991 -1.748455531469489e-007 0.9999999999999838 4.37113882867385
6e-008 81 1 217 145 32 215 0 0 238 196 218 83 3 218 1 1 1 15 219 146 0 189 215 0
 17 220 0 219 226 189 221 225 223 0 309 +18 221 147 0 220 205 227 222 ?1 29 222
 148 0 221 228 206 0.000699999903834935 0.0005500001223918784 2.404126355770621e
-011 16 223 149 0 ?220 212 229 224 0 0 1 30 224 150 0 223 230 213 0 +0.000699999
8950926574 0.0006000001223918775 2.622683297204314e-011 -1.748455532372991e-007
 0.9999999999999838 4.371138828673856e-008 17 225 0 447 452 448 179 220 223 0 45
5 -17 226 0 219 232 220 227 231 229 0 235 +18 227 151 0 226 221 242 228 ?1 29 22
8 152 0 227 243 222 0.0009499999038349311 0.0005500001661032666 2.40412635577062
1e-011 16 229 153 0 ?226 223 233 230 0 0 1 30 230 154 0 229 234 224 0 +0.0009999
999038349306 0.0005500001748455443 2.404126355770621e-011 0.9999999999999848 1.7
48455531469491e-007 0 17 231 0 303 304 316 221 226 229 0 448 -17 232 0 219 189 2
26 185 235 233 0 568 +16 233 155 0 ?232 229 244 234 0 0 1 30 234 156 0 233 245 2
30 0 +0.0009500001049073173 -0.0005999998338967149 -2.622683297204314e-011 1.748
455531469489e-007 -0.9999999999999838 -4.371138828673856e-008 17 235 0 592 593 5
68 227 232 233 0 316 -14 236 157 238 1e-008 257 215 240 38 237 +0 0 257 215 36 5
1 237 158 0 236 258 216 0 +0.0009999999038349413 0.0005500001136496007 0.0014000
00024041263 -0.9999999999999848 -1.748455531469491e-007 0 5.000000000000002e-005
 1.748455531469489e-007 -0.9999999999999838 -4.371138828673856e-008 81 1 238 159
 32 236 0 0 259 217 239 83 3 239 1 1 1 15 240 160 0 21 236 0 17 241 0 240 247 21
 242 246 244 0 387 +18 242 161 0 328 227 248 243 ?1 29 243 162 0 242 249 228 -0.
0007000001049073106 0.0005999998164121595 0.001400000026226832 16 244 163 0 ?241
 233 250 245 0 0 1 31 245 164 0 244 251 234 0 +-0.000700000096165033 0.000549999
8164121603 0.001400000024041263 -0.9999999999999848 -1.748455531469491e-007 -1.5
77721810442024e-030 -1.748455531469489e-007 0.9999999999999838 4.371138828673856
e-008 5.000000000000002e-005 17 246 0 582 438 387 9 241 244 0 0 -17 247 0 240 25
3 241 248 252 250 0 256 -18 248 165 0 247 242 263 249 ?1 29 249 166 0 248 264 24
3 -0.0009500001049073067 0.0005999997727007713 0.001400000026226832 16 250 167 0
 ?252 244 254 251 0 0 1 30 251 168 0 250 255 245 0 +-0.001000000104907306 0.0005
999997639584935 0.001400000026226832 0.9999999999999848 1.748455531469491e-007 0
 17 252 0 324 325 329 242 247 250 0 241 +17 253 0 240 21 247 17 256 254 0 27 +16
 254 169 0 ?253 250 265 255 0 0 1 31 255 170 0 254 266 251 0 +-0.000950000096165
0291 0.0005499997727007721 0.001400000024041263 0.9999999999999848 1.74845555315
3534e-007 9.478396490197497e-023 1.748455553153533e-007 -0.9999999999999838 -4.3
71138828673856e-008 5.000000000000002e-005 17 256 0 554 513 500 248 253 254 0 32
9 -14 257 171 259 1e-008 278 236 261 38 258 +0 0 278 236 36 51 258 172 0 257 279
 237 0 +0.0009999999038349413 0.0005500001136496007 0.001400000024041263 -0.9999
999999999848 -1.748455531469491e-007 0 5.000000000000002e-005 1.748455531469489e
-007 -0.9999999999999838 -4.371138828673856e-008 81 1 259 173 32 257 0 0 280 238
 260 83 3 260 1 1 1 15 261 174 0 262 257 0 17 262 0 261 270 274 263 267 265 0 33
8 -18 263 175 0 262 248 268 264 ?1 29 264 176 0 263 269 249 0.000699999895092668
 0.000600000061195934 0.001400000026226832 16 265 177 0 ?267 254 271 266 0 0 1 3
0 266 178 0 265 272 255 0 +-0.001000000104907306 0.0005999997639584935 0.0014000
00026226832 0.9999999999999848 1.748455531469491e-007 0 17 267 0 337 342 338 268
 262 265 0 274 +18 268 179 0 267 263 284 269 ?1 29 269 180 0 268 285 264 0.00094
99998950926641 0.0006000001049073223 0.001400000026226832 17 270 0 261 67 262 50
 273 271 0 438 +16 271 181 0 ?270 265 275 272 0 0 1 31 272 182 0 271 276 266 0 +
0.0006999999038349457 0.0005500000611959349 0.001400000024041263 0.9999999999999
848 1.748455531469491e-007 1.577721810442024e-030 1.748455531469489e-007 -0.9999
999999999838 -4.371138828673856e-008 5.000000000000002e-005 17 273 0 582 387 438
 263 270 271 0 384 -17 274 0 261 262 67 268 277 275 0 345 -16 275 183 0 ?277 271
 286 276 0 0 1 31 276 184 0 275 287 272 0 +0.0009499999038349419 0.0005500001049
073231 0.001400000024041263 0.9999999999999848 1.748455531469492e-007 -2.1684043
44971012e-015 9.811146208786855e-015 -4.371138828673751e-008 0.9999999999999991
 4.999999999999992e-005 17 277 0 601 577 602 59 274 275 0 58 +14 278 185 280 1e-
008 299 257 282 38 279 +0 0 299 257 36 51 279 186 0 278 300 258 0 +-0.0010000000
96165039 0.0005499998229688686 5.000002404126352e-005 0.9999999999999848 1.74845
5531469491e-007 0 5.000000000000002e-005 -1.748455531469489e-007 0.9999999999999
838 4.371138828673856e-008 81 1 280 187 32 278 0 0 301 259 281 83 3 281 1 1 1 15
 282 188 0 283 278 0 17 283 0 282 291 295 284 288 286 0 294 -18 284 189 0 325 26
8 289 285 ?1 29 285 190 0 284 290 269 -0.0007000001049073209 0.00059999987542253
38 5.000002622683293e-005 16 286 191 0 ?288 275 292 287 0 0 1 30 287 192 0 286 2
93 276 0 +-0.001000000104907316 0.0005999998229688678 5.000002622683293e-005 -0.
9999999999999848 -1.748455531469491e-007 0 17 288 0 324 329 325 289 283 286 0 33
2 +18 289 193 0 288 284 305 290 ?1 29 290 194 0 289 306 285 -0.00095000010490731
7 0.0005999998317111454 5.000002622683293e-005 17 291 0 282 204 283 200 294 292
 0 199 +16 292 195 0 ?291 286 296 293 0 0 1 31 293 196 0 292 297 287 0 +-0.00070
00000961650433 0.0005499998754225346 5.000002404126352e-005 -0.9999999999999848
 -1.748455531469491e-007 -1.577721810442024e-030 -1.748455531469489e-007 0.99999
99999999838 4.371138828673856e-008 5.000000000000002e-005 17 294 0 587 383 451 2
84 291 292 0 380 -17 295 0 282 283 204 289 298 296 0 509 +16 296 197 0 ?295 292
 307 297 0 0 1 31 297 198 0 296 308 293 0 +-0.0009500000961650394 0.000549999831
7111463 5.000002404126352e-005 0.9999999999999848 1.748455531469491e-007 1.57772
1810442024e-030 1.748455531469489e-007 -0.9999999999999838 -4.371138828673856e-0
08 5.000000000000002e-005 17 298 0 559 522 509 205 295 296 0 204 -14 299 199 301
 1e-008 320 278 303 38 300 +0 0 320 278 36 51 300 200 0 299 321 279 0 +-0.001000
000096165039 0.0005499998229688686 5.000002404126352e-005 0.9999999999999848 1.7
48455531469491e-007 0 5.000000000000002e-005 -1.748455531469489e-007 0.999999999
9999838 4.371138828673856e-008 81 1 301 201 32 299 0 0 322 280 302 83 3 302 1 1
 1 15 303 202 0 231 299 0 17 304 0 303 310 231 305 309 307 0 315 +18 305 203 0 3
41 289 311 306 ?1 29 306 204 0 305 312 290 0.0006999998950926577 0.0006000001202
063081 5.000002622683293e-005 16 307 205 0 ?304 296 313 308 0 0 1 31 308 206 0 3
07 314 297 0 +0.0006999999038349354 0.0005500001202063089 5.000002404126352e-005
 0.9999999999999848 1.748455531469491e-007 1.577721810442024e-030 1.748455531469
489e-007 -0.9999999999999838 -4.371138828673856e-008 5.000000000000002e-005 17 3
09 0 587 451 383 221 304 307 0 231 -17 310 0 303 316 304 311 315 313 0 319 -18 3
11 207 0 342 305 352 312 ?1 29 312 208 0 311 353 306 0.0009499998950926538 0.000
6000001639176964 5.000002622683293e-005 16 313 209 0 ?315 307 317 314 0 0 1 30 3
14 210 0 313 318 308 0 +-0.001000000104907316 0.0005999998229688678 5.0000026226
83293e-005 -0.9999999999999848 -1.748455531469491e-007 0 17 315 0 337 338 342 30
5 310 313 0 383 +17 316 0 303 231 310 227 319 317 0 596 -16 317 211 0 ?319 313 3
26 318 0 0 1 31 318 212 0 317 327 314 0 +0.0009499999038349315 0.000550000163917
6973 5.000002404126352e-005 0.9999999999999848 1.748455553153534e-007 9.47839649
0197497e-023 -1.748455553153533e-007 0.9999999999999838 4.371138828673856e-008 5
.000000000000002e-005 17 319 0 610 611 596 311 316 317 0 614 +14 320 213 322 1e-
008 333 299 324 38 321 -0 0 333 299 36 50 321 214 0 320 334 300 0 +-0.0010000001
04907306 0.0005999997617729242 0.001450000026226832 1.748455531469489e-007 -0.99
99999999999838 -4.371138828673856e-008 0.9999999999999848 1.748455531469491e-007
 0 81 1 322 215 32 320 0 0 335 301 323 83 3 323 1 1 1 15 324 216 0 325 320 0 17
 325 0 324 288 252 284 328 326 0 283 -16 326 217 0 ?328 317 330 327 0 0 1 30 327
 218 0 326 331 318 0 +-0.0007000001049073102 0.0005999998142265901 0.00145000002
6226832 7.642741863815873e-015 -4.371138828673789e-008 0.9999999999999991 17 328
 0 379 384 380 242 325 326 0 252 +17 329 0 324 252 288 248 332 330 0 510 +16 330
 219 0 ?329 326 339 331 0 0 1 30 331 220 0 330 340 327 0 +-0.0009500001049073063
 0.0005999997705152018 0.001450000026226832 7.642741863815873e-015 -4.3711388286
73789e-008 0.9999999999999991 17 332 0 505 506 510 289 329 330 0 295 -14 333 221
 335 1e-008 346 320 337 38 334 -0 0 346 320 36 50 334 222 0 333 347 321 0 +-0.00
1000000104907306 0.0005999997617729242 0.001450000026226832 1.748455531469489e-0
07 -0.9999999999999838 -4.371138828673856e-008 0.9999999999999848 1.748455531469
491e-007 0 81 1 335 223 32 333 0 0 348 322 336 83 3 336 1 1 1 15 337 224 0 338 3
33 0 17 338 0 337 267 315 263 341 339 0 273 -16 339 225 0 ?341 330 343 340 0 0 1
 30 340 226 0 339 344 331 0 +0.0006999998950926685 0.0006000000590103645 0.00145
0000026226832 -7.642741863815873e-015 4.371138828673789e-008 -0.9999999999999991
 17 341 0 379 380 384 305 338 339 0 304 +17 342 0 337 315 267 311 345 343 0 310
 +16 343 227 0 ?342 339 354 344 0 0 1 30 344 228 0 343 355 340 0 +0.000949999895
0926646 0.0006000001027217527 0.001450000026226832 -7.642741863815873e-015 4.371
138828673789e-008 -0.9999999999999991 17 345 0 619 605 614 268 342 343 0 602 -14
 346 229 348 1e-008 375 333 350 38 347 -0 0 375 333 36 50 347 230 0 346 376 334
 0 +0.001000000104907328 -0.0005999998885359503 0.001449999973773166 -0.99999999
99999848 -1.748455531469491e-007 0 1.748455531469489e-007 -0.9999999999999838 -4
.371138828673856e-008 81 1 348 231 32 346 0 0 377 335 349 83 3 349 1 1 1 15 350
 232 0 351 346 0 17 351 0 350 359 371 352 356 354 0 577 +18 352 233 0 351 311 35
7 353 ?1 29 353 234 0 352 358 312 0.0009999999038349413 0.0005500001136496006 0.
001400000024041263 16 354 235 0 ?351 343 362 355 0 0 1 30 355 236 0 354 363 344
 0 +0.0009999999038349417 0.0005500001114640313 0.001450000024041263 7.642741863
815873e-015 -4.371138828673789e-008 0.9999999999999991 17 356 0 619 614 605 357
 351 354 0 593 -18 357 237 0 356 352 360 358 ?1 29 358 238 0 357 361 353 0.00099
99999038349308 0.0005500001726599749 5.000002404126352e-005 17 359 0 350 365 351
 360 364 362 0 370 +18 360 239 0 536 357 366 361 ?1 29 361 240 0 360 367 358 0.0
0100000009616505 -0.0005499998863503817 0.001399999975958735 16 362 241 0 ?359 3
54 368 363 0 0 1 30 363 242 0 362 369 355 0 +0.001000000104907327 -0.00059999988
63503808 0.001399999973773166 1.748455531469489e-007 -0.9999999999999838 -4.3711
38828673856e-008 17 364 0 573 574 549 352 359 362 0 605 -17 365 0 350 371 359 36
6 370 368 0 374 +18 366 243 0 537 360 394 367 ?1 29 367 244 0 366 395 361 0.0010
00000096165039 -0.0005499998273400074 4.999997595873641e-005 16 368 245 0 ?365 3
62 372 369 0 0 1 30 369 246 0 368 373 363 0 +0.00100000009616505 -0.000549999888
5359511 0.001449999975958735 -7.642741863815873e-015 4.371138828673789e-008 -0.9
999999999999991 17 370 0 532 533 537 360 365 368 0 0 -17 371 0 350 351 365 357 3
74 372 0 0 +16 372 247 0 ?371 368 381 373 0 0 1 30 373 248 0 372 382 369 0 +0.00
09999998950926531 0.0006000001726599741 5.000002622683293e-005 -1.74845553146948
9e-007 0.9999999999999838 4.371138828673856e-008 17 374 0 592 568 593 366 371 37
2 0 0 -14 375 249 377 1e-008 388 346 379 38 376 -0 0 388 346 36 50 376 250 0 375
 389 347 0 +-0.001000000104907306 0.0005999997617729242 0.001450000026226832 1.7
48455531469489e-007 -0.9999999999999838 -4.371138828673856e-008 0.99999999999998
48 1.748455531469491e-007 0 81 1 377 251 32 375 0 0 390 348 378 83 3 378 0.47058
82370471954 0.2470588237047195 0.01568627543747425 15 379 252 0 380 375 0 17 380
 0 379 328 341 284 383 381 0 0 +16 381 253 0 ?380 372 385 382 0 0 1 30 382 254 0
 381 386 373 0 +-0.001000000104907316 0.0005999998229688678 5.000002622683293e-0
05 -0.9999999999999848 -1.748455531469491e-007 0 17 383 0 587 309 294 305 380 38
1 0 0 -17 384 0 379 341 328 263 387 385 0 0 +16 385 255 0 ?384 381 396 386 0 0 1
 30 386 256 0 385 397 382 0 +-0.001000000104907306 0.0005999997639584935 0.00140
0000026226832 0.9999999999999848 1.748455531469491e-007 0 17 387 0 582 246 273 2
42 384 385 0 0 -14 388 257 390 1e-008 417 375 392 38 389 -0 0 417 375 36 50 389
 258 0 388 418 376 0 +-0.0009999998950926418 -0.0006000002382270565 0.0014499999
73773166 0.9999999999999848 1.748455531469491e-007 0 7.642741863815873e-015 -4.3
71138828673789e-008 0.9999999999999991 81 1 390 259 32 388 0 0 419 377 391 83 3
 391 1 1 1 15 392 260 0 393 388 0 17 393 0 392 401 413 394 398 396 0 0 +18 394 2
61 0 474 366 399 395 ?1 29 395 262 0 394 400 367 -0.0009999999038349198 -0.00055
00002360414879 0.001399999975958735 16 396 263 0 ?393 385 404 397 0 0 1 30 397 2
64 0 396 405 386 0 +-0.0009999999038349194 -0.0005500002382270574 0.001449999975
958735 7.642741863815873e-015 -4.371138828673789e-008 0.9999999999999991 17 398
 0 460 465 461 399 393 396 0 468 -18 399 265 0 486 394 402 400 ?1 29 400 266 0 3
99 403 395 -0.0009999999038349302 -0.0005500001770311137 4.999997595873641e-005
 17 401 0 392 407 393 402 406 404 0 513 +18 402 267 0 497 399 408 403 ?1 29 403
 268 0 402 409 400 -0.001000000096165028 0.0005499997639584944 0.001400000024041
263 16 404 269 0 ?401 396 410 405 0 0 1 30 405 270 0 404 411 397 0 +-0.000999999
8950926423 -0.0006000002360414871 0.001399999973773166 -1.748455531469489e-007 0
.9999999999999838 4.371138828673856e-008 17 406 0 496 477 497 394 401 404 0 461
 -17 407 0 392 413 401 408 412 410 0 522 +18 408 271 0 506 402 0 409 ?1 29 409 2
72 0 408 0 403 -0.001000000096165039 0.0005499998229688686 5.000002404126352e-00
5 16 410 273 0 ?407 404 414 411 0 0 1 30 411 274 0 410 415 405 0 +-0.00100000009
6165028 0.000549999761772925 0.001450000024041263 -7.642741863815873e-015 4.3711
38828673789e-008 -0.9999999999999991 17 412 0 505 510 506 402 407 410 0 0 -17 41
3 0 392 393 407 399 416 414 0 398 +16 414 275 0 ?413 410 423 415 0 0 1 30 415 27
6 0 414 424 411 0 +-0.0009999998950926525 -0.0006000001770311128 4.9999973773166
99e-005 1.748455531469489e-007 -0.9999999999999838 -4.371138828673856e-008 17 41
6 0 518 519 486 408 413 414 0 0 -14 417 277 419 1e-008 430 388 421 38 418 -0 0 4
30 388 36 50 418 278 0 417 431 389 0 +-0.0009999998950926418 -0.0006000002382270
565 0.001449999973773166 -1.748455531469489e-007 0.9999999999999838 4.3711388286
73856e-008 -7.642741863815873e-015 4.371138828673789e-008 -0.9999999999999991 81
 1 419 279 32 417 0 0 432 390 420 83 3 420 0.4705882370471954 0.2470588237047195
 0.01568627543747425 15 421 280 0 422 417 0 17 422 0 421 118 141 74 425 423 0 84
 +16 423 281 0 ?422 414 427 424 0 0 1 30 424 282 0 423 428 415 0 +-0.00099999989
50926423 -0.0006000002360414871 0.001399999973773166 -0.9999999999999848 -1.7484
55531469491e-007 0 17 425 0 491 99 84 95 422 423 0 105 -17 426 0 421 141 118 137
 429 427 0 136 +16 427 283 0 ?426 423 436 428 0 0 1 30 428 284 0 427 437 424 0 +
0.001000000104907317 -0.0005999998273400066 4.999997377316699e-005 0.99999999999
99848 1.748455531469491e-007 0 17 429 0 527 168 183 119 426 427 0 127 -14 430 28
5 432 1e-008 443 417 434 38 431 -0 0 443 417 36 50 431 286 0 430 444 418 0 +0.00
0999999895092664 0.0006000001114640304 0.001450000026226832 -7.642741863815873e-
015 4.371138828673789e-008 -0.9999999999999991 -1.748455531469489e-007 0.9999999
999999838 4.371138828673856e-008 81 1 432 287 32 430 0 0 445 419 433 83 3 433 0.
4705882370471954 0.2470588237047195 0.01568627543747425 15 434 288 0 435 430 0 1
7 435 0 434 13 49 9 438 436 0 246 +16 436 289 0 ?435 427 440 437 0 0 1 30 437 29
0 0 436 441 428 0 +0.0009999999038349417 0.0005500001114640313 0.001450000024041
263 -0.9999999999999848 -1.748455531469491e-007 0 17 438 0 582 273 246 50 435 43
6 0 64 -17 439 0 434 49 13 45 442 440 0 99 +16 440 291 0 ?439 436 449 441 0 0 1
 30 441 292 0 440 450 437 0 +0.00100000009616505 -0.0005499998885359511 0.001449
999975958735 0.9999999999999848 1.748455531469491e-007 0 17 442 0 491 84 99 14 4
39 440 0 81 -14 443 293 445 1e-008 456 430 447 38 444 +0 0 456 430 36 50 444 294
 0 443 457 431 0 +0.0009999998950926529 0.0006000001748455435 2.622683297204314e
-011 -7.642741863815873e-015 4.371138828673789e-008 -0.9999999999999991 -1.74845
5531469489e-007 0.9999999999999838 4.371138828673856e-008 81 1 445 295 32 443 0
 0 458 432 446 83 3 446 0.4705882370471954 0.2470588237047195 0.0156862754374742
5 15 447 296 0 210 443 0 17 448 0 447 225 210 221 451 449 0 0 +16 449 297 0 ?448
 440 453 450 0 0 1 30 450 298 0 449 454 441 0 +0.0009999999038349306 0.000550000
1748455443 2.404126355770621e-011 0.9999999999999848 1.748455531469491e-007 0 17
 451 0 587 294 309 200 448 449 0 0 -17 452 0 447 210 225 158 455 453 0 157 +16 4
53 299 0 ?452 449 462 454 0 0 1 30 454 300 0 453 463 450 0 +-0.00099999990383493
06 -0.0005500001748455443 -2.404126355770621e-011 -0.9999999999999848 -1.7484555
31469491e-007 0 17 455 0 527 183 168 179 452 453 0 0 -14 456 301 458 1e-008 469
 443 460 38 457 +0 0 469 443 36 51 457 302 0 456 470 444 0 +-0.00094999990383492
01 -0.0005500002294847796 0.001449999975958735 -7.642741863815873e-015 4.3711388
28673789e-008 -0.9999999999999991 5.000000000000002e-005 -1.748455531469489e-007
 0.9999999999999838 4.371138828673856e-008 81 1 458 303 32 456 0 0 471 445 459 8
3 3 459 1 1 1 15 460 304 0 461 456 0 17 461 0 460 398 126 394 464 462 0 393 -16
 462 305 0 ?464 453 466 463 0 0 1 31 463 306 0 462 467 454 0 +-0.000949999903834
9205 -0.0005500002272992103 0.001399999975958735 7.642741863815873e-015 -4.37113
882867379e-008 0.9999999999999991 1.748455531469489e-007 -0.9999999999999838 -4.
371138828673856e-008 5.000000000000002e-005 17 464 0 473 88 474 79 461 462 0 126
 +17 465 0 460 126 398 122 468 466 0 0 -16 466 307 0 ?468 462 475 467 0 0 1 31 4
67 308 0 466 476 463 0 +-0.0009499999038349308 -0.000550000168288836 4.999997595
873641e-005 -7.642741863815873e-015 4.37113882867379e-008 -0.9999999999999991 -1
.748455531469489e-007 0.9999999999999838 4.371138828673856e-008 5.00000000000000
2e-005 17 468 0 482 483 172 399 465 466 0 0 +14 469 309 471 1e-008 478 456 473 3
8 470 +0 0 478 456 36 53 470 310 0 469 479 457 0 +-0.0009499999038349205 -0.0005
500002272992103 0.001399999975958735 5e-005 -1.748455531469489e-007 0.9999999999
999838 4.371138828673856e-008 0.9999999999999848 1.748455531469491e-007 0 81 1 4
71 311 32 469 0 0 480 458 472 83 3 472 1 1 1 15 473 312 0 474 469 0 17 474 0 473
 464 88 394 477 475 0 406 -16 475 313 0 ?477 466 484 476 0 0 1 31 476 314 0 475
 485 467 0 +-0.0009499999038349205 -0.0005500002272992103 0.001399999975958735 -
1.748455509785446e-007 0.9999999999999839 4.371138828673856e-008 0.9999999999999
848 1.748455509785447e-007 -9.478396428567882e-023 5.000000000000002e-005 17 477
 0 496 27 406 23 474 475 0 22 +14 478 315 480 1e-008 487 469 482 38 479 +0 0 487
 469 36 53 479 316 0 478 488 470 0 +-0.0009499999038349308 -0.000550000168288836
 4.999997595873641e-005 5e-005 -1.748455531469489e-007 0.9999999999999838 4.3711
38828673856e-008 0.9999999999999848 1.748455531469491e-007 0 81 1 480 317 32 478
 0 0 489 471 481 83 3 481 1 1 1 15 482 318 0 172 478 0 17 483 0 482 172 468 163
 486 484 0 162 -16 484 319 0 ?486 475 498 485 0 0 1 31 485 320 0 484 499 476 0 +
-0.0009499999038349308 -0.000550000168288836 4.999997595873641e-005 -1.748455531
469489e-007 0.9999999999999839 4.371138828673856e-008 0.9999999999999848 1.74845
5531469491e-007 0 5.000000000000002e-005 17 486 0 518 416 214 399 483 484 0 413
 +14 487 321 489 1e-008 492 478 491 38 488 +0 0 492 478 36 51 488 322 0 487 493
 479 0 +0.00100000009616505 -0.0005499998863503817 0.001399999975958735 0.999999
9999999848 1.748455531469491e-007 0 5.000000000000002e-005 -1.748455531469489e-0
07 0.9999999999999838 4.371138828673856e-008 81 1 489 323 32 487 0 0 494 480 490
 83 3 490 0.4705882370471954 0.2470588237047195 0.01568627543747425 15 491 324 0
 84 487 0 14 492 325 494 1e-008 501 487 496 38 493 +0 0 501 487 36 51 493 326 0
 492 502 488 0 +-0.0009500001049073067 0.0005999997727007713 0.00140000002622683
2 1.748455531469489e-007 -0.9999999999999838 -4.371138828673856e-008 5.000000000
000002e-005 0.9999999999999848 1.748455531469491e-007 0 81 1 494 327 32 492 0 0
 503 489 495 83 3 495 1 1 1 15 496 328 0 477 492 0 17 497 0 496 406 27 402 500 4
98 0 401 -16 498 329 0 ?500 484 507 499 0 0 1 31 499 330 0 498 508 485 0 +-0.000
9500000961650291 0.0005499997727007721 0.001400000024041263 -1.748455531469489e-
007 0.9999999999999839 4.371139045514291e-008 7.642742242951729e-015 -4.37113904
5514223e-008 0.9999999999999991 4.999999999999992e-005 17 500 0 554 256 513 17 4
97 498 0 0 +14 501 331 503 1e-008 514 492 505 38 502 +0 0 514 492 36 51 502 332
 0 501 515 493 0 +-0.0009500000961650286 0.0005499997705152027 0.001450000024041
263 -7.642741863815873e-015 4.371138828673789e-008 -0.9999999999999991 5.0000000
00000002e-005 -1.748455531469489e-007 0.9999999999999838 4.371138828673856e-008
 81 1 503 333 32 501 0 0 516 494 504 83 3 504 1 1 1 15 505 334 0 506 501 0 17 50
6 0 505 412 332 408 509 507 0 407 -16 507 335 0 ?509 498 511 508 0 0 1 31 508 33
6 0 507 512 499 0 +-0.0009500000961650394 0.0005499998317111463 5.00000240412635
2e-005 -7.642741863815873e-015 4.37113882867379e-008 -0.9999999999999991 -1.7484
55531469489e-007 0.9999999999999838 4.371138828673856e-008 5.000000000000002e-00
5 17 509 0 559 298 522 289 506 507 0 0 +17 510 0 505 332 412 248 513 511 0 0 -16
 511 337 0 ?513 507 520 512 0 0 1 31 512 338 0 511 521 508 0 +-0.000950000096165
0291 0.0005499997727007721 0.001400000024041263 7.642741863815873e-015 -4.371138
82867379e-008 0.9999999999999991 1.748455531469489e-007 -0.9999999999999838 -4.3
71138828673856e-008 5.000000000000002e-005 17 513 0 554 500 256 402 510 511 0 41
2 +14 514 339 516 1e-008 523 501 518 38 515 +0 0 523 501 36 51 515 340 0 514 524
 502 0 +-0.0009499998950926532 -0.0006000001682888352 4.999997377316699e-005 -1.
748455531469489e-007 0.9999999999999838 4.371138828673856e-008 5.000000000000002
e-005 -0.9999999999999848 -1.748455531469491e-007 0 81 1 516 341 32 514 0 0 525
 503 517 83 3 517 1 1 1 15 518 342 0 486 514 0 17 519 0 518 214 416 205 522 520
 0 0 -16 520 343 0 ?522 511 534 521 0 0 1 31 521 344 0 520 535 512 0 +-0.0009500
000961650394 0.0005499998317111463 5.000002404126352e-005 -1.748455509785446e-00
7 0.9999999999999839 4.371138828673856e-008 -0.9999999999999848 -1.7484555097854
47e-007 9.478396428567882e-023 5.000000000000002e-005 17 522 0 559 509 298 408 5
19 520 0 416 +14 523 345 525 1e-008 528 514 527 38 524 +0 0 528 514 36 51 524 34
6 0 523 529 515 0 +-0.0009999999038349302 -0.0005500001770311138 4.9999975958736
41e-005 -0.9999999999999848 -1.748455531469491e-007 0 5.000000000000002e-005 1.7
48455531469489e-007 -0.9999999999999838 -4.371138828673856e-008 81 1 525 347 32
 523 0 0 530 516 526 83 3 526 0.4705882370471954 0.2470588237047195 0.0156862754
3747425 15 527 348 0 168 523 0 14 528 349 530 1e-008 541 523 532 38 529 +0 0 541
 523 36 51 529 350 0 528 542 524 0 +0.0009500000961650508 -0.0005499998972782287
 0.001449999975958735 -7.642741863815873e-015 4.371138828673789e-008 -0.99999999
99999991 5.000000000000002e-005 -1.748455531469489e-007 0.9999999999999838 4.371
138828673856e-008 81 1 530 351 32 528 0 0 543 525 531 83 3 531 1 1 1 15 532 352
 0 533 528 0 17 533 0 532 151 370 101 536 534 0 100 -16 534 353 0 ?536 520 538 5
35 0 0 1 31 535 354 0 534 539 521 0 +0.0009500000961650503 -0.000549999895092659
2 0.001399999975958735 7.642741863815873e-015 -4.37113882867379e-008 0.999999999
9999991 1.748455531469489e-007 -0.9999999999999838 -4.371138828673856e-008 5.000
000000000002e-005 17 536 0 545 546 109 360 533 534 0 549 +17 537 0 532 370 151 3
66 540 538 0 565 -16 538 355 0 ?540 534 547 539 0 0 1 31 539 356 0 538 548 535 0
 +0.00095000009616504 -0.0005499998360822851 4.999997595873641e-005 -7.642741863
815873e-015 4.37113882867379e-008 -0.9999999999999991 -1.748455531469489e-007 0.
9999999999999838 4.371138828673856e-008 5.000000000000002e-005 17 540 0 564 193
 565 143 537 538 0 151 +14 541 357 543 1e-008 550 528 545 38 542 +0 0 550 528 36
 53 542 358 0 541 551 529 0 +0.0009500000961650503 -0.0005499998950926592 0.0013
99999975958735 5e-005 -1.748455531469489e-007 0.9999999999999838 4.3711388286738
56e-008 0.9999999999999848 1.748455531469491e-007 0 81 1 543 359 32 541 0 0 552
 530 544 83 3 544 1 1 1 15 545 360 0 109 541 0 17 546 0 545 109 536 53 549 547 0
 106 -16 547 361 0 ?549 538 566 548 0 0 1 31 548 362 0 547 567 539 0 +0.00095000
00961650503 -0.0005499998950926592 0.001399999975958735 -1.748455531469489e-007
 0.9999999999999839 4.371139045514291e-008 -7.642742242951729e-015 4.37113904551
4223e-008 -0.9999999999999991 4.999999999999992e-005 17 549 0 573 364 63 360 546
 547 0 359 +14 550 363 552 1e-008 555 541 554 38 551 +0 0 555 541 36 53 551 364
 0 550 556 542 0 +-0.0009500000961650291 0.0005499997727007721 0.001400000024041
263 5e-005 -1.748455531469489e-007 0.9999999999999838 4.371138828673856e-008 0.9
999999999999848 1.748455531469491e-007 0 81 1 552 365 32 550 0 0 557 543 553 83
 3 553 1 1 1 15 554 366 0 513 550 0 14 555 367 557 1e-008 560 550 559 38 556 +0
 0 560 550 36 53 556 368 0 555 561 551 0 +-0.0009500000961650394 0.0005499998317
111463 5.000002404126352e-005 5e-005 -1.748455531469489e-007 0.9999999999999838
 4.371138828673856e-008 0.9999999999999848 1.748455531469491e-007 0 81 1 557 369
 32 555 0 0 562 552 558 83 3 558 1 1 1 15 559 370 0 522 555 0 14 560 371 562 1e-
008 569 555 564 38 561 +0 0 569 555 36 53 561 372 0 560 570 556 0 +0.00095000009
616504 -0.0005499998360822851 4.999997595873641e-005 5e-005 -1.748455531469489e-
007 0.9999999999999838 4.371138828673856e-008 0.9999999999999848 1.7484555314694
91e-007 0 81 1 562 373 32 560 0 0 571 557 563 83 3 563 1 1 1 15 564 374 0 540 56
0 0 17 565 0 564 540 193 366 568 566 0 365 -16 566 375 0 ?568 547 575 567 0 0 1
 31 567 376 0 566 576 548 0 +0.00095000009616504 -0.0005499998360822851 4.999997
595873641e-005 -1.748455531469489e-007 0.9999999999999839 4.371138828673856e-008
 0.9999999999999848 1.748455531469491e-007 0 5.000000000000002e-005 17 568 0 592
 235 374 185 565 566 0 0 +14 569 377 571 1e-008 578 560 573 38 570 +0 0 578 560
 36 51 570 378 0 569 579 561 0 +0.0009499998950926641 0.0006000001049073223 0.00
1400000026226832 -1.748455531469489e-007 0.9999999999999838 4.371138828673856e-0
08 5.000000000000002e-005 -0.9999999999999848 -1.748455531469491e-007 0 81 1 571
 379 32 569 0 0 580 562 572 83 3 572 1 1 1 15 573 380 0 549 569 0 17 574 0 573 6
3 364 59 577 575 0 0 -16 575 381 0 ?577 566 594 576 0 0 1 31 576 382 0 575 595 5
67 0 +0.0009499999038349419 0.0005500001049073231 0.001400000024041263 -1.748455
531469489e-007 0.9999999999999839 4.371138828673856e-008 -0.9999999999999848 -1.
748455531469491e-007 0 5.000000000000002e-005 17 577 0 601 602 277 352 574 575 0
 364 +14 578 383 580 1e-008 583 569 582 38 579 +0 0 583 569 36 51 579 384 0 578
 584 570 0 +0.0009999999038349413 0.0005500001136496007 0.001400000024041263 -0.
9999999999999848 -1.748455531469491e-007 0 5.000000000000002e-005 1.748455531469
489e-007 -0.9999999999999838 -4.371138828673856e-008 81 1 580 385 32 578 0 0 585
 571 581 83 3 581 0.4705882370471954 0.2470588237047195 0.01568627543747425 15 5
82 386 0 246 578 0 14 583 387 585 1e-008 588 578 587 38 584 +0 0 588 578 36 51 5
84 388 0 583 589 579 0 +-0.001000000096165039 0.0005499998229688686 5.0000024041
26352e-005 0.9999999999999848 1.748455531469491e-007 0 5.000000000000002e-005 -1
.748455531469489e-007 0.9999999999999838 4.371138828673856e-008 81 1 585 389 32
 583 0 0 590 580 586 83 3 586 0.4705882370471954 0.2470588237047195 0.0156862754
3747425 15 587 390 0 294 583 0 14 588 391 590 1e-008 597 583 592 38 589 +0 0 597
 583 36 51 589 392 0 588 598 584 0 +0.0009500001049073178 -0.0005999998360822843
 4.999997377316699e-005 1.748455531469489e-007 -0.9999999999999838 -4.3711388286
73856e-008 5.000000000000002e-005 0.9999999999999848 1.748455531469491e-007 0 81
 1 590 393 32 588 0 0 599 585 591 83 3 591 1 1 1 15 592 394 0 568 588 0 17 593 0
 592 374 235 357 596 594 0 611 -16 594 395 0 ?596 575 603 595 0 0 1 31 595 396 0
 594 604 576 0 +0.0009499999038349315 0.0005500001639176973 5.000002404126352e-0
05 -1.748455531469489e-007 0.9999999999999839 4.371138828673856e-008 -0.99999999
99999848 -1.748455531469491e-007 0 5.000000000000002e-005 17 596 0 610 319 611 2
27 593 594 0 0 +14 597 397 599 1e-008 606 588 601 38 598 +0 0 606 588 36 53 598
 398 0 597 607 589 0 +0.0009499999038349419 0.0005500001049073231 0.001400000024
041263 5e-005 -1.748455531469489e-007 0.9999999999999838 4.371138828673856e-008
 0.9999999999999848 1.748455531469491e-007 0 81 1 599 399 32 597 0 0 608 590 600
 83 3 600 1 1 1 15 601 400 0 277 597 0 17 602 0 601 277 577 268 605 603 0 0 -16
 603 401 0 ?605 594 612 604 0 0 1 31 604 402 0 603 613 595 0 +0.0009499999038349
419 0.0005500001049073231 0.001400000024041263 -7.642741863815873e-015 4.3711388
2867379e-008 -0.9999999999999991 1.748455531469489e-007 -0.9999999999999838 -4.3
71138828673856e-008 5.000000000000002e-005 17 605 0 619 356 345 352 602 603 0 0
 +14 606 403 608 1e-008 615 597 610 38 607 +0 0 615 597 36 53 607 404 0 606 616
 598 0 +0.0009499999038349315 0.0005500001639176973 5.000002404126352e-005 5e-00
5 -1.748455531469489e-007 0.9999999999999838 4.371138828673856e-008 0.9999999999
999848 1.748455531469491e-007 0 81 1 608 405 32 606 0 0 617 599 609 83 3 609 1 1
 1 15 610 406 0 596 606 0 17 611 0 610 596 319 357 614 612 0 371 -16 612 407 0 ?
614 603 0 613 0 0 1 31 613 408 0 612 0 604 0 +0.0009499999038349315 0.0005500001
639176973 5.000002404126352e-005 7.642741863815873e-015 -4.37113882867379e-008 0
.9999999999999991 -1.748455531469489e-007 0.9999999999999838 4.371138828673856e-
008 5.000000000000002e-005 17 614 0 619 345 356 311 611 612 0 0 +14 615 409 617
 1e-008 0 606 619 38 616 +0 0 0 606 36 51 616 410 0 615 0 607 0 +0.0009499999038
349423 0.0005500001027217536 0.001450000024041263 -7.642741863815873e-015 4.3711
38828673789e-008 -0.9999999999999991 5.000000000000002e-005 -1.748455531469489e-
007 0.9999999999999838 4.371138828673856e-008 81 1 617 411 32 615 0 0 0 608 618
 83 3 618 1 1 1 15 619 412 0 605 615 0 1 0 
