**ABCDEFGHIJKLMNOPQRSTUVWXYZabcdefghijklmnopqrstuvwxyz**************************
**PARASOLID !"#$%&'()*+,-./:;<=>?@[\]^_`{|}~0123456789**************************
**PART1;
MC=AMD64;
MC_MODEL=Intel64 Family 6 Model 158 Stepping 10, GenuineIntel;
MC_ID=unknown;
OS=Windows_NT;
OS_RELEASE=unknown;
FRU=CAD Exchanger 3.6.1 (cadexchanger.com);
APPL=unknown;
SITE=unknown;
USER=unknown;
FORMAT=text;
GUISE=transmit;
KEY=DQM_CMP-015-00002-1;
FILE=DQM_CMP-015-00002-1.x_t;
DATE=Mon Jun 08 09:31:50 2020;
**PART2;
SCH=SCH_1200000_12006;
USFLD_SIZE=0;
**PART3;
**END_OF_HEADER*****************************************************************
T51 : TRANSMIT FILE created by modeller version 120000017 SCH_1200000_120060 12
 1 68 0 2 0 0 0 0 1000 1e-008 0 0 0 1 0 1 1 38 6 12 10 35 11 9 70 2 0 1 0 0 4 1
 20 0 3 3 1 T74 20 3 1 0 4 0 0 0 0 0 0 0 0 0 0 0 0 0 0 0 0 0 0 0 81 1 4 7 32 5 0
 0 41 0 34 14 5 5 4 1e-008 39 0 7 38 6 +0 0 39 0 36 50 6 6 0 5 40 0 0 +0.0006250
0002 0.0009249994200000001 4.999990016222001e-005 1 0 0 0 -1 0 15 7 8 0 8 5 0 17
 8 0 7 16 28 9 13 11 0 21 +18 9 9 0 8 0 14 10 ?1 29 10 10 0 9 15 0 0.00062500002
 0.00092499942 0.00034999930016222 16 11 11 0 ?8 0 19 12 0 0 1 30 12 12 0 11 20
 0 0 +0.00062500002 0.00092499942 4.999990016222e-005 0 0 1 17 13 0 85 90 86 14
 8 11 0 28 -18 14 13 0 13 9 17 15 ?1 29 15 14 0 14 18 10 0.00062500002 0.0009249
9942 4.999990016222e-005 17 16 0 7 22 8 17 21 19 0 49 +18 17 15 0 27 14 23 18 ?1
 29 18 16 0 17 24 15 0.00062500002 -0.00092499942 0.00034999930016222 16 19 17 0
 ?16 11 25 20 0 0 1 30 20 18 0 19 26 12 0 +0.00062500002 0.00092499942 0.0003499
9930016222 0 -1 0 17 21 0 103 89 49 9 16 19 0 86 -17 22 0 7 28 16 23 27 25 0 0 -
18 23 19 0 31 17 45 24 ?1 29 24 20 0 23 46 18 0.00062500002 -0.00092499942 4.999
990016222e-005 16 25 21 0 ?27 19 29 26 0 0 1 30 26 22 0 25 30 20 0 +0.0006250000
2 -0.00092499942 4.999990016222e-005 0 0 1 17 27 0 43 44 56 17 22 25 0 16 +17 28
 0 7 8 22 14 31 29 0 93 -16 29 23 0 ?31 25 47 30 0 0 1 30 30 24 0 29 48 26 0 +0.
00062500002 0.00092499942 4.999990016222e-005 0 -1 0 17 31 0 98 59 93 23 28 29 0
 56 +80 1 32 0 33 8001 0 0 0 0 3 5 0 0 FFFFTFTFFFFFFF2 79 15 33 SDL/TYSA_COLOUR8
3 3 34 0.2627451121807098 0.2627451121807098 0.2627451121807098 19 35 1 0 1 37 0
 36 V13 36 2 0 1 0 0 0 0 35 5 19 37 3 0 1 0 35 38 S13 38 4 0 1 0 5 0 0 37 0 14 3
9 25 41 1e-008 60 5 43 38 40 +0 0 60 5 36 50 40 26 0 39 61 6 0 +0.00062500002 -0
.0009249994200000001 4.999990016222001e-005 0 -1 0 -1 0 0 81 1 41 27 32 39 0 0 6
2 4 42 83 3 42 0.2627451121807098 0.2627451121807098 0.2627451121807098 15 43 28
 0 27 39 0 17 44 0 43 50 27 45 49 47 0 70 +18 45 29 0 44 23 51 46 ?1 29 46 30 0
 45 52 24 -0.00062500002 -0.00092499942 0.00034999930016222 16 47 31 0 ?44 29 53
 48 0 0 1 30 48 32 0 47 54 30 0 +0.00062500002 -0.00092499942 0.0003499993001622
2 -1 0 0 17 49 0 103 21 70 17 44 47 0 0 -17 50 0 43 56 44 51 55 53 0 77 -18 51 3
3 0 59 45 66 52 ?1 29 52 34 0 51 67 46 -0.00062500002 -0.00092499942 4.999990016
222e-005 16 53 35 0 ?55 47 57 54 0 0 1 30 54 36 0 53 58 48 0 +-0.00062500002 -0.
00092499942 4.999990016222e-005 0 0 1 17 55 0 64 65 77 45 50 53 0 0 +17 56 0 43
 27 50 23 59 57 0 22 -16 57 37 0 ?59 53 68 58 0 0 1 30 58 38 0 57 69 54 0 +0.000
62500002 -0.00092499942 4.999990016222e-005 -1 0 0 17 59 0 98 80 31 51 56 57 0 5
0 +14 60 39 62 1e-008 81 39 64 38 61 +0 0 81 39 36 50 61 40 0 60 82 40 0 +-0.000
62500002 -0.0009249994200000001 4.999990016222001e-005 -1 0 0 0 1 0 81 1 62 41 3
2 60 0 0 83 41 63 83 3 63 0.2627451121807098 0.2627451121807098 0.26274511218070
98 15 64 42 0 55 60 0 17 65 0 64 71 55 66 70 68 0 76 +18 66 43 0 65 51 72 67 ?1
 29 67 44 0 66 73 52 -0.00062500002 0.00092499942 0.00034999930016222 16 68 45 0
 ?65 57 74 69 0 0 1 30 69 46 0 68 75 58 0 +-0.00062500002 -0.00092499942 0.00034
999930016222 0 1 0 17 70 0 103 49 89 45 65 68 0 55 -17 71 0 64 77 65 72 76 74 0
 90 -18 72 47 0 80 66 0 73 ?1 29 73 48 0 72 0 67 -0.00062500002 0.00092499942 4.
999990016222e-005 16 74 49 0 ?76 68 78 75 0 0 1 30 75 50 0 74 79 69 0 +-0.000625
00002 0.00092499942 4.999990016222e-005 0 0 1 17 76 0 85 86 90 66 71 74 0 89 +17
 77 0 64 55 71 51 80 78 0 0 -16 78 51 0 ?80 74 87 79 0 0 1 30 79 52 0 78 88 75 0
 +-0.00062500002 -0.00092499942 4.999990016222e-005 0 1 0 17 80 0 98 93 59 72 77
 78 0 71 +14 81 53 83 1e-008 94 60 85 38 82 +0 0 94 60 36 50 82 54 0 81 95 61 0
 +-0.00062500002 0.0009249994200000001 4.999990016222001e-005 0 1 0 1 0 0 81 1 8
3 55 32 81 0 0 96 62 84 83 3 84 0.2627451121807098 0.2627451121807098 0.26274511
21807098 15 85 56 0 76 81 0 17 86 0 85 13 76 9 89 87 0 0 +16 87 57 0 ?86 78 91 8
8 0 0 1 30 88 58 0 87 92 79 0 +-0.00062500002 0.00092499942 0.00034999930016222
 1 0 0 17 89 0 103 70 21 66 86 87 0 0 -17 90 0 85 76 13 72 93 91 0 0 -16 91 59 0
 ?93 87 0 92 0 0 1 30 92 60 0 91 0 88 0 +-0.00062500002 0.00092499942 4.99999001
6222e-005 1 0 0 17 93 0 98 31 80 14 90 91 0 0 +14 94 61 96 1e-008 99 81 98 38 95
 -0 0 99 81 36 50 95 62 0 94 100 82 0 +0.00062500002 0.0009249994200000001 4.999
990016222001e-005 0 0 1 1 0 0 81 1 96 63 32 94 0 0 101 83 97 83 3 97 0.262745112
1807098 0.2627451121807098 0.2627451121807098 15 98 64 0 31 94 0 14 99 65 101 1e
-008 0 94 103 38 100 +0 0 0 94 36 50 100 66 0 99 0 95 0 +0.00062500002 0.0009249
994200000001 0.00034999930016222 0 0 1 1 0 0 81 1 101 67 32 99 0 0 0 96 102 83 3
 102 0.2627451121807098 0.2627451121807098 0.2627451121807098 15 103 68 0 89 99
 0 1 0 
