**ABCDEFGHIJKLMNOPQRSTUVWXYZabcdefghijklmnopqrstuvwxyz**************************
**PARASOLID !"#$%&'()*+,-./:;<=>?@[\]^_`{|}~0123456789**************************
**PART1;
MC=AMD64;
MC_MODEL=Intel64 Family 6 Model 158 Stepping 10, GenuineIntel;
MC_ID=unknown;
OS=Windows_NT;
OS_RELEASE=unknown;
FRU=CAD Exchanger 3.6.1 (cadexchanger.com);
APPL=unknown;
SITE=unknown;
USER=unknown;
FORMAT=text;
GUISE=transmit;
KEY=DRY0006A_V_CMP-031-00001-1;
FILE=DRY0006A_V_CMP-031-00001-1.x_t;
DATE=Mon Jun 08 09:31:49 2020;
**PART2;
SCH=SCH_1200000_12006;
USFLD_SIZE=0;
**PART3;
**END_OF_HEADER*****************************************************************
T51 : TRANSMIT FILE created by modeller version 120000017 SCH_1200000_120060 12
 1 467 0 2 0 0 0 0 1000 1e-008 0 0 0 1 0 1 1 38 6 12 10 35 11 9 70 2 0 1 0 0 4 1
 20 0 3 3 1 T74 20 3 1 0 4 0 0 0 0 0 0 0 0 0 0 0 0 0 0 0 0 0 0 0 81 1 4 7 32 5 0
 0 41 0 34 14 5 5 4 1e-008 39 0 7 38 6 -0 0 39 0 36 52 6 6 0 5 40 0 0 +-0.000249
9009453642386 0.0004500914370194676 0.00051 0 0 1 0.00012 0.500000000000001 0.86
6025403784438 1.192488063850306e-008 -1 0 15 7 8 0 8 5 0 17 8 0 7 16 28 9 13 11
 0 686 -18 9 9 0 21 0 14 10 ?1 29 10 10 0 9 15 0 -0.000249900946519831 0.0005469
974262518826 0.00047 16 11 11 0 ?13 0 19 12 0 0 1 31 12 12 0 11 20 0 0 +-0.00024
99009453642386 0.0004500914370194676 0.00047 -0 0 1 1.192488063850306e-008 -1 0
 9.690598923241486e-005 17 13 0 691 686 686 14 8 11 0 683 +18 14 13 0 28 9 17 15
 ?1 29 15 14 0 14 18 10 -0.0002499009442086462 0.0003531854477870527 0.00047 17
 16 0 7 22 8 17 21 19 0 286 +18 17 15 0 27 14 23 18 ?1 29 18 16 0 17 24 15 -0.00
02499009467952243 0.0005700914370194675 0.00051 16 19 17 0 ?16 11 25 20 0 0 1 30
 20 18 0 19 26 12 0 +-0.0002499009467952243 0.0005700914370194675 0.00051 -5.962
440258019201e-009 0.5000000000000011 0.8660254037844379 17 21 0 682 683 286 9 16
 19 0 8 -17 22 0 7 28 16 23 27 25 0 283 +18 23 19 0 31 17 45 24 ?1 29 24 20 0 23
 46 18 -0.0002499009439332529 0.0003300914370194676 0.00051 16 25 21 0 ?22 19 29
 26 0 0 1 31 26 22 0 25 30 20 0 +-0.0002499009453642386 0.0004500914370194676 0.
00051 -0 0 1 1.192488063850306e-008 -1 0 0.00012 17 27 0 282 283 283 17 22 25 0
 16 -17 28 0 7 8 22 14 31 29 0 13 -16 29 23 0 ?31 25 47 30 0 0 1 30 30 24 0 29 4
8 26 0 +-0.0002499009439332529 0.0003300914370194676 0.00051 5.962440319251541e-
009 -0.5000000000000011 0.8660254037844379 17 31 0 682 286 683 23 28 29 0 22 +80
 1 32 0 33 8001 0 0 0 0 3 5 0 0 FFFFTFTFFFFFFF2 79 15 33 SDL/TYSA_COLOUR83 3 34
 0.125490203499794 0.125490203499794 0.125490203499794 19 35 1 0 1 37 0 36 V13 3
6 2 0 1 0 0 0 0 35 5 19 37 3 0 1 0 35 38 S13 38 4 0 1 0 5 0 0 37 0 14 39 25 41 1
e-008 218 5 43 38 40 -0 0 218 5 36 50 40 26 0 39 219 6 0 +-0.0004999009489417028
 0.0007500914340382473 1e-005 0 0 1 1.192488063850306e-008 -1 0 81 1 41 27 32 39
 0 0 220 4 42 83 3 42 0.125490203499794 0.125490203499794 0.125490203499794 15 4
3 28 0 44 39 68 17 44 0 43 52 64 45 49 47 0 553 -18 45 29 0 57 23 50 46 ?1 29 46
 30 0 45 51 24 -9.990093254499195e-005 -0.0006249085611918006 1e-005 16 47 31 0
 ?49 29 55 48 0 0 1 30 48 32 0 47 56 30 0 +-0.0004999009325449914 -0.00062490856
59617526 1e-005 -1 -1.192488099990378e-008 0 17 49 0 552 559 553 50 44 47 0 564
 +18 50 33 0 64 45 53 51 ?1 29 51 34 0 50 54 46 -0.0003999009325449919 -0.000624
9085647692648 1e-005 17 52 0 43 58 44 53 57 55 0 63 -18 53 35 0 52 50 59 54 ?1 2
9 54 36 0 53 60 51 -9.990093552621204e-005 -0.0003749085611918003 1e-005 16 55 3
7 0 ?57 47 61 56 0 0 1 30 56 38 0 55 62 48 0 +-9.990094894170283e-005 0.00075009
14388081996 1e-005 1.192488063850306e-008 -1 0 17 57 0 573 556 574 45 52 55 0 44
 +17 58 0 43 64 52 59 63 61 0 67 -18 59 39 0 589 53 70 60 ?1 29 60 40 0 59 71 54
 -0.0003999009355262121 -0.0003749085647692645 9.999999999999999e-006 16 61 41 0
 ?63 55 65 62 0 0 1 30 62 42 0 61 66 56 0 +-0.0004999009355262119 -0.00037490856
59617526 1e-005 1 1.192488081920342e-008 0 17 63 0 588 577 589 53 58 61 0 574 +1
7 64 0 43 44 58 50 67 65 0 49 -16 65 43 0 ?67 61 72 66 0 0 1 30 66 44 0 65 73 62
 0 +-0.0003999009489417028 0.0007500914352307354 1e-005 -1.192488063850306e-008
 1 0 17 67 0 603 592 564 59 64 65 0 0 +15 68 45 0 69 39 93 17 69 0 68 77 89 70 7
4 72 0 82 -18 70 46 0 423 59 75 71 ?1 29 71 47 0 70 76 60 0.0004000990674550081
 -0.0006249085552293603 1e-005 16 72 48 0 ?74 65 80 73 0 0 1 30 73 49 0 72 81 66
 0 +-0.0004999009325449925 -0.0006249085659617524 1e-005 -1 -1.192488027710233e-
008 0 17 74 0 422 429 423 75 69 72 0 0 +18 75 50 0 89 70 78 76 ?1 29 76 51 0 75
 79 71 0.0001000990674550081 -0.0006249085588068244 1e-005 17 77 0 68 83 69 78 8
2 80 0 88 -18 78 52 0 444 75 84 79 ?1 29 79 53 0 78 85 76 0.000400099064473788 -
0.00037490855522936 1e-005 16 80 54 0 ?82 72 86 81 0 0 1 30 81 55 0 80 87 73 0 +
0.0004000990510582972 0.0007500914447706398 1e-005 1.192488063850306e-008 -1 0 1
7 82 0 443 426 444 70 77 80 0 0 +17 83 0 68 89 77 84 88 86 0 0 -18 84 56 0 92 78
 95 85 ?1 29 85 57 0 84 96 79 0.000100099064473788 -0.0003749085588068242 9.9999
99999999999e-006 16 86 58 0 ?88 80 90 87 0 0 1 30 87 59 0 86 91 81 0 +-0.0004999
009355262123 -0.0003749085659617524 1e-005 1 1.192488045780269e-008 0 17 88 0 45
8 447 459 78 83 86 0 0 +17 89 0 68 69 83 75 92 90 0 434 -16 90 60 0 ?92 86 97 91
 0 0 1 30 91 61 0 90 98 87 0 +0.0001000990510582973 0.0007500914411931757 1e-005
 -1.192488063850306e-008 1 0 17 92 0 473 462 434 84 89 90 0 459 +15 93 62 0 94 3
9 118 17 94 0 93 102 114 95 99 97 0 107 -18 95 63 0 94 84 100 96 ?1 29 96 64 0 9
5 101 85 0.0004000990555301275 0.00037509144477064 1e-005 16 97 65 0 ?99 90 105
 98 0 0 1 30 98 66 0 97 106 91 0 +-0.0004999009444698724 0.0003750914340382473 1
e-005 -1 -1.192488081920342e-008 0 17 99 0 292 299 293 100 94 97 0 114 +18 100 6
7 0 99 95 103 101 ?1 29 101 68 0 100 104 96 0.0001000990555301275 0.000375091441
1931758 1e-005 17 102 0 93 108 94 103 107 105 0 113 -18 103 69 0 102 100 109 104
 ?1 29 104 70 0 103 110 101 0.0004000990525489073 0.0006250914447706401 1e-005 1
6 105 71 0 ?107 97 111 106 0 0 1 30 106 72 0 105 112 98 0 +0.0004000990510582972
 0.0007500914447706398 1e-005 1.192488063850306e-008 -1 0 17 107 0 313 296 314 9
5 102 105 0 293 +17 108 0 93 114 102 109 113 111 0 0 -18 109 73 0 329 103 120 11
0 ?1 29 110 74 0 109 121 104 0.0001000990525489073 0.0006250914411931759 9.99999
9999999999e-006 16 111 75 0 ?113 105 115 112 0 0 1 30 112 76 0 111 116 106 0 +-0
.0004999009474510927 0.0006250914340382472 1e-005 1 1.192488099990378e-008 0 17
 113 0 328 317 329 103 108 111 0 314 +17 114 0 93 94 108 100 117 115 0 304 -16 1
15 77 0 ?117 111 122 116 0 0 1 30 116 78 0 115 123 112 0 +0.0001000990510582973
 0.0007500914411931757 1e-005 -1.192488063850306e-008 1 0 17 117 0 343 332 304 1
09 114 115 0 108 +15 118 79 0 119 39 143 17 119 0 118 127 139 120 124 122 0 132
 -18 120 80 0 119 109 125 121 ?1 29 121 81 0 120 126 110 0.0005000990510582972 0
.000750091445963128 1e-005 16 122 82 0 ?124 115 130 123 0 0 1 30 123 83 0 122 13
1 116 0 +0.0005000990510582972 0.000750091445963128 1e-005 -1 -1.192488074692327
e-008 0 17 124 0 222 223 235 125 119 122 0 139 +18 125 84 0 124 120 128 126 ?1 2
9 126 85 0 125 129 121 -0.0004999009489417027 0.0007500914340382473 1e-005 17 12
7 0 118 133 119 128 132 130 0 138 -18 128 86 0 127 125 134 129 ?1 29 129 87 0 12
8 135 126 0.0005000990689456182 -0.0007499085540368719 1e-005 16 130 88 0 ?132 1
22 136 131 0 0 1 30 131 89 0 130 137 123 0 +0.0005000990510582972 0.000750091445
963128 1e-005 -1.192488063850306e-008 1 -0 17 132 0 273 238 264 120 127 130 0 23
5 +17 133 0 118 139 127 134 138 136 0 249 -18 134 90 0 142 128 145 135 ?1 29 135
 91 0 134 146 129 -0.0004999009310543819 -0.0007499085659617527 1e-005 16 136 92
 0 ?138 130 140 137 0 0 1 30 137 93 0 136 141 131 0 +0.0005000990689456182 -0.00
07499085540368719 1e-005 1 1.192488074692327e-008 0 17 138 0 258 259 249 128 133
 136 0 264 +17 139 0 118 119 133 125 142 140 0 228 -16 140 94 0 ?142 136 147 141
 0 0 1 30 141 95 0 140 148 137 0 +-0.0004999009489417027 0.0007500914340382473 1
e-005 1.192488063850306e-008 -1 0 17 142 0 243 244 228 134 139 140 0 133 +15 143
 96 0 144 39 168 17 144 0 143 152 164 145 149 147 0 157 -18 145 97 0 144 134 150
 146 ?1 29 146 98 0 145 151 135 0.0004000990614925678 -0.0001249085552293601 1e-
005 16 147 99 0 ?149 140 155 148 0 0 1 30 148 100 0 147 156 141 0 +-0.0004999009
385074325 -0.0001249085659617524 1e-005 -1 -1.192488027710233e-008 0 17 149 0 35
7 364 358 150 144 147 0 164 +18 150 101 0 369 145 153 151 ?1 29 151 102 0 150 15
4 146 0.0001000990614925678 -0.0001249085588068242 1e-005 17 152 0 143 158 144 1
53 157 155 0 379 -18 153 103 0 163 150 159 154 ?1 29 154 104 0 153 160 151 0.000
4000990585113476 0.00012509144477064 1e-005 16 155 105 0 ?157 147 161 156 0 0 1
 30 156 106 0 155 162 148 0 +0.0004000990510582972 0.0007500914447706398 1e-005
 1.192488063850306e-008 -1 0 17 157 0 378 361 379 145 152 155 0 358 +17 158 0 14
3 164 152 159 163 161 0 167 -18 159 107 0 158 153 170 160 ?1 29 160 108 0 159 17
1 154 0.0001000990585113476 0.0001250914411931758 9.999999999999999e-006 16 161
 109 0 ?163 155 165 162 0 0 1 30 162 110 0 161 166 156 0 +-0.0004999009414886525
 0.0001250914340382475 1e-005 1 1.192488045780269e-008 0 17 163 0 393 382 394 15
3 158 161 0 152 +17 164 0 143 144 158 150 167 165 0 0 -16 165 111 0 ?167 161 172
 166 0 0 1 30 166 112 0 165 173 162 0 +0.0001000990510582973 0.00075009144119317
57 1e-005 -1.192488063850306e-008 1 0 17 167 0 408 397 369 159 164 165 0 394 +15
 168 113 0 169 39 193 17 169 0 168 177 189 170 174 172 0 182 -18 170 114 0 169 1
59 175 171 ?1 29 171 115 0 170 176 160 -9.990093850743227e-005 -0.00012490856119
18003 1e-005 16 172 116 0 ?174 165 180 173 0 0 1 30 173 117 0 172 181 166 0 +-0.
000499900938507432 -0.0001249085659617527 1e-005 -1 -1.192488099990378e-008 0 17
 174 0 487 494 488 175 169 172 0 189 +18 175 118 0 174 170 178 176 ?1 29 176 119
 0 175 179 171 -0.0003999009385074323 -0.0001249085647692647 1e-005 17 177 0 168
 183 169 178 182 180 0 188 -18 178 120 0 509 175 184 179 ?1 29 179 121 0 178 185
 176 -9.990094148865236e-005 0.0001250914388081997 1e-005 16 180 122 0 ?182 172
 186 181 0 0 1 30 181 123 0 180 187 173 0 +-9.990094894170283e-005 0.00075009143
88081996 1e-005 1.192488063850306e-008 -1 0 17 182 0 508 491 509 170 177 180 0 4
88 +17 183 0 168 189 177 184 188 186 0 192 -18 184 124 0 524 178 195 185 ?1 29 1
85 125 0 184 196 179 -0.0003999009414886524 0.0001250914352307355 9.999999999999
999e-006 16 186 126 0 ?188 180 190 187 0 0 1 30 187 127 0 186 191 181 0 +-0.0004
999009414886524 0.0001250914340382474 1e-005 1 1.192488081920342e-008 0 17 188 0
 523 512 524 178 183 186 0 0 +17 189 0 168 169 183 175 192 190 0 499 -16 190 128
 0 ?192 186 197 191 0 0 1 30 191 129 0 190 198 187 0 +-0.0003999009489417028 0.0
007500914352307354 1e-005 -1.192488063850306e-008 1 0 17 192 0 538 527 499 184 1
89 190 0 0 +15 193 130 0 194 39 0 17 194 0 193 202 214 195 199 197 0 0 -18 195 1
31 0 618 184 200 196 ?1 29 196 132 0 195 201 185 -0.0003999009474510928 0.000625
0914352307356 1e-005 16 197 133 0 ?199 190 205 198 0 0 1 30 198 134 0 197 206 19
1 0 +-0.0004999009474510927 0.0006250914340382476 1e-005 1 1.192488027710233e-00
8 0 17 199 0 617 624 618 200 194 197 0 214 +18 200 135 0 629 195 203 201 ?1 29 2
01 136 0 200 204 196 -9.990094745109275e-005 0.0006250914388081997 1e-005 17 202
 0 193 208 194 203 207 205 0 0 -18 203 137 0 639 200 209 204 ?1 29 204 138 0 203
 210 201 -0.0003999009444698726 0.0003750914352307354 1e-005 16 205 139 0 ?207 1
97 211 206 0 0 1 30 206 140 0 205 212 198 0 +-0.0003999009489417028 0.0007500914
352307354 1e-005 -1.192488063850306e-008 1 0 17 207 0 638 621 639 195 202 205 0
 194 +17 208 0 193 214 202 209 213 211 0 217 -18 209 141 0 654 203 224 210 ?1 29
 210 142 0 209 225 204 -9.990094446987257e-005 0.0003750914388081997 9.999999999
999999e-006 16 211 143 0 ?213 205 215 212 0 0 1 30 212 144 0 211 216 206 0 +-0.0
004999009444698727 0.0003750914340382474 1e-005 -1 -1.192488045780269e-008 0 17
 213 0 653 642 654 203 208 211 0 202 +17 214 0 193 194 208 200 217 215 0 0 -16 2
15 145 0 ?217 211 226 216 0 0 1 30 216 146 0 215 227 212 0 +-9.990094894170283e-
005 0.0007500914388081996 1e-005 1.192488063850306e-008 -1 0 17 217 0 668 657 62
9 209 214 215 0 0 +14 218 147 220 1e-008 239 39 222 38 219 -0 0 239 39 36 50 219
 148 0 218 240 40 0 +0.0005000990510582972 0.000750091445963128 0.00051 1.192488
074692327e-008 -1 0 1 1.192488074692327e-008 0 81 1 220 149 32 218 0 0 241 41 22
1 83 3 221 0.125490203499794 0.125490203499794 0.125490203499794 15 222 150 0 12
4 218 0 17 223 0 222 229 124 224 228 226 0 0 -18 224 151 0 234 209 230 225 ?1 29
 225 152 0 224 231 210 -0.0004999009489417027 0.0007500914340382473 0.00051 16 2
26 153 0 ?228 215 232 227 0 0 1 30 227 154 0 226 233 216 0 +-0.00049990094894170
27 0.0007500914340382473 0.00051 -0 0 -1 17 228 0 243 142 250 125 223 226 0 0 +1
7 229 0 222 235 223 230 234 232 0 238 -18 230 155 0 277 224 245 231 ?1 29 231 15
6 0 230 246 225 0.0005000990510582972 0.000750091445963128 0.00051 16 232 157 0
 ?234 226 236 233 0 0 1 30 233 158 0 232 237 227 0 +0.0005000990510582972 0.0007
50091445963128 0.00051 -1 -1.192488074692327e-008 0 17 234 0 287 253 277 224 229
 232 0 250 +17 235 0 222 124 229 120 238 236 0 0 +16 236 159 0 ?235 232 247 237
 0 0 1 30 237 160 0 236 248 233 0 +0.0005000990510582972 0.000750091445963128 0.
00051 -0 0 -1 17 238 0 273 274 132 230 235 236 0 0 -14 239 161 241 1e-008 254 21
8 243 38 240 -0 0 254 218 36 50 240 162 0 239 255 219 0 +-0.0004999009489417028
 0.0007500914340382473 0.00051 1 1.192488063850306e-008 0 0 0 1 81 1 241 163 32
 239 0 0 256 220 242 83 3 242 0.125490203499794 0.125490203499794 0.125490203499
794 15 243 164 0 142 239 0 17 244 0 243 250 142 245 249 247 0 265 -18 245 165 0
 253 230 260 246 ?1 29 246 166 0 245 261 231 -0.0004999009310543819 -0.000749908
5659617527 0.00051 16 247 167 0 ?249 236 251 248 0 0 1 30 248 168 0 247 252 237
 0 +-0.0004999009310543819 -0.0007499085659617527 0.00051 -0 0 -1 17 249 0 258 1
38 265 134 244 247 0 0 +17 250 0 243 228 244 224 253 251 0 223 -16 251 169 0 ?25
3 247 262 252 0 0 1 30 252 170 0 251 263 248 0 +-0.0004999009489417027 0.0007500
914340382473 0.00051 1.192488063850306e-008 -1 0 17 253 0 287 268 234 245 250 25
1 0 244 +14 254 171 256 1e-008 269 239 258 38 255 -0 0 269 239 36 50 255 172 0 2
54 270 240 0 +0.0005000990689456182 -0.000749908554036872 0.00051 -1.19248807469
2327e-008 1 0 -1 -1.192488074692327e-008 0 81 1 256 173 32 254 0 0 271 241 257 8
3 3 257 0.125490203499794 0.125490203499794 0.125490203499794 15 258 174 0 138 2
54 0 17 259 0 258 265 138 260 264 262 0 0 -18 260 175 0 274 245 297 261 ?1 29 26
1 176 0 260 298 246 0.0005000990689456182 -0.0007499085540368719 0.00051 16 262
 177 0 ?264 251 266 263 0 0 1 30 263 178 0 262 267 252 0 +0.0005000990689456182
 -0.0007499085540368719 0.00051 -0 0 -1 17 264 0 273 132 274 128 259 262 0 0 +17
 265 0 258 249 259 245 268 266 0 0 -16 266 179 0 ?268 262 275 267 0 0 1 30 267 1
80 0 266 276 263 0 +0.0005000990689456182 -0.0007499085540368719 0.00051 1 1.192
488074692327e-008 0 17 268 0 287 277 253 260 265 266 0 259 +14 269 181 271 1e-00
8 278 254 273 38 270 -0 0 278 254 36 50 270 182 0 269 279 255 0 +0.0005000990510
582972 0.000750091445963128 0.00051 -1 -1.192488063850306e-008 0 0 -0 -1 81 1 27
1 183 32 269 0 0 280 256 272 83 3 272 0.125490203499794 0.125490203499794 0.1254
90203499794 15 273 184 0 132 269 0 17 274 0 273 264 238 260 277 275 0 268 -16 27
5 185 0 ?277 266 284 276 0 0 1 30 276 186 0 275 285 267 0 +0.0005000990510582972
 0.000750091445963128 0.00051 -1.192488063850306e-008 1 -0 17 277 0 287 234 268
 230 274 275 0 229 +14 278 187 280 1e-008 288 269 282 38 279 +0 0 288 269 36 50
 279 188 0 278 289 270 0 +-0.0004999009489417028 0.0007500914340382473 0.00051 0
 0 1 1.192488063850306e-008 -1 0 81 1 280 189 32 278 0 0 290 271 281 83 3 281 0.
125490203499794 0.125490203499794 0.125490203499794 15 282 190 0 283 278 287 17
 283 0 282 27 27 23 286 284 0 0 -16 284 191 0 ?286 275 294 285 0 0 1 31 285 192
 0 284 295 276 0 +-0.0002499009453642386 0.0004500914370194676 0.00051 -0 0 1 1.
192488063850306e-008 -1 0 0.00012 17 286 0 682 21 31 17 283 284 0 0 +15 287 193
 0 234 278 0 14 288 194 290 1e-008 309 278 292 38 289 -0 0 309 278 36 50 289 195
 0 288 310 279 0 +0.0004000990555301275 0.00037509144477064 0.0002 -1.1924880819
20342e-008 1 0 -1 -1.192488081920342e-008 0 81 1 290 196 32 288 0 0 311 280 291
 83 3 291 0.7529411911964417 0.7529411911964417 0.7529411911964417 15 292 197 0
 293 288 0 17 293 0 292 99 305 95 296 294 0 0 -16 294 198 0 ?296 284 302 295 0 0
 1 30 295 199 0 294 303 285 0 +0.0004000990555301275 0.00037509144477064 0.0002
 -0 0 -1 17 296 0 313 320 107 297 293 294 0 305 +18 297 200 0 323 260 300 298 ?1
 29 298 201 0 297 301 261 0.0004000990555301275 0.00037509144477064 0 17 299 0 2
92 305 99 300 304 302 0 308 +18 300 202 0 344 297 318 301 ?1 29 301 203 0 300 31
9 298 0.0001000990555301275 0.0003750914411931758 0 16 302 204 0 ?299 294 306 30
3 0 0 1 30 303 205 0 302 307 295 0 +0.0001000990555301275 0.0003750914411931758
 0.0002 -0 0 -1 17 304 0 343 117 344 100 299 302 0 0 -17 305 0 292 293 299 297 3
08 306 0 0 +16 306 206 0 ?305 302 315 307 0 0 1 30 307 207 0 306 316 303 0 +0.00
04000990555301275 0.00037509144477064 0 1 1.192488081920342e-008 0 17 308 0 352
 347 323 300 305 306 0 0 -14 309 208 311 1e-008 324 288 313 38 310 -0 0 324 288
 36 50 310 209 0 309 325 289 0 +0.0004000990525489073 0.0006250914447706401 0.00
02 -1 -1.192488063850306e-008 0 0 -0 -1 81 1 311 210 32 309 0 0 326 290 312 83 3
 312 0.7529411911964417 0.7529411911964417 0.7529411911964417 15 313 211 0 314 3
09 0 17 314 0 313 107 320 103 317 315 0 0 -16 315 212 0 ?317 306 321 316 0 0 1 3
0 316 213 0 315 322 307 0 +0.0004000990525489073 0.0006250914447706401 0.0002 -0
 0 -1 17 317 0 328 335 113 318 314 315 0 0 +18 318 214 0 320 300 333 319 ?1 29 3
19 215 0 318 334 301 0.0004000990525489073 0.0006250914447706401 0 17 320 0 313
 314 296 318 323 321 0 338 +16 321 216 0 ?320 315 330 322 0 0 1 30 322 217 0 321
 331 316 0 +0.0004000990525489073 0.0006250914447706401 0 -1.192488063850306e-00
8 1 -0 17 323 0 352 308 338 297 320 321 0 296 -14 324 218 326 1e-008 339 309 328
 38 325 -0 0 339 309 36 50 325 219 0 324 340 310 0 +0.0004000990525489073 0.0006
250914447706401 0.0002 1.192488099990378e-008 -1 0 1 1.192488099990378e-008 0 81
 1 326 220 32 324 0 0 341 311 327 83 3 327 0.7529411911964417 0.7529411911964417
 0.7529411911964417 15 328 221 0 329 324 0 17 329 0 328 113 335 109 332 330 0 11
7 -16 330 222 0 ?332 321 336 331 0 0 1 30 331 223 0 330 337 322 0 +0.00010009905
25489073 0.0006250914411931759 0.0002 -0 0 -1 17 332 0 343 344 117 333 329 330 0
 347 +18 333 224 0 335 318 362 334 ?1 29 334 225 0 333 363 319 0.000100099052548
9073 0.0006250914411931759 0 17 335 0 328 329 317 333 338 336 0 332 +16 336 226
 0 ?335 330 345 337 0 0 1 30 337 227 0 336 346 331 0 +0.0004000990525489073 0.00
06250914447706401 0 -1 -1.192488099990378e-008 0 17 338 0 352 323 347 318 335 33
6 0 317 -14 339 228 341 1e-008 348 324 343 38 340 -0 0 348 324 36 50 340 229 0 3
39 349 325 0 +0.0001000990525489073 0.0006250914411931759 0.0002 1 1.19248806385
0306e-008 0 0 0 1 81 1 341 230 32 339 0 0 350 326 342 83 3 342 0.752941191196441
7 0.7529411911964417 0.7529411911964417 15 343 231 0 304 339 0 17 344 0 343 304
 332 300 347 345 0 299 +16 345 232 0 ?344 336 359 346 0 0 1 30 346 233 0 345 360
 337 0 +0.0001000990525489073 0.0006250914411931759 0 1.192488063850306e-008 -1
 0 17 347 0 352 338 308 333 344 345 0 0 -14 348 234 350 1e-008 353 339 352 38 34
9 -0 0 353 339 36 50 349 235 0 348 354 340 0 +0.0001000990555301275 0.0003750914
411931758 0 0 0 1 1.192488063850306e-008 -1 0 81 1 350 236 32 348 0 0 355 341 35
1 83 3 351 0.7529411911964417 0.7529411911964417 0.7529411911964417 15 352 237 0
 308 348 0 14 353 238 355 1e-008 374 348 357 38 354 -0 0 374 348 36 50 354 239 0
 353 375 349 0 +0.0004000990614925678 -0.0001249085552293602 0.0002 -1.192488027
710233e-008 1 0 -1 -1.192488027710233e-008 0 81 1 355 240 32 353 0 0 376 350 356
 83 3 356 0.7529411911964417 0.7529411911964417 0.7529411911964417 15 357 241 0
 358 353 0 17 358 0 357 149 370 145 361 359 0 0 -16 359 242 0 ?361 345 367 360 0
 0 1 30 360 243 0 359 368 346 0 +0.0004000990614925678 -0.0001249085552293601 0.
0002 -0 0 -1 17 361 0 378 385 157 362 358 359 0 388 +18 362 244 0 370 333 365 36
3 ?1 29 363 245 0 362 366 334 0.0004000990614925678 -0.0001249085552293601 0 17
 364 0 357 370 149 365 369 367 0 373 +18 365 246 0 409 362 383 366 ?1 29 366 247
 0 365 384 363 0.0001000990614925678 -0.0001249085588068242 0 16 367 248 0 ?364
 359 371 368 0 0 1 30 368 249 0 367 372 360 0 +0.0001000990614925678 -0.00012490
85588068242 0.0002 -0 0 -1 17 369 0 408 167 409 150 364 367 0 149 -17 370 0 357
 358 364 362 373 371 0 361 +16 371 250 0 ?370 367 380 372 0 0 1 30 372 251 0 371
 381 368 0 +0.0004000990614925678 -0.0001249085552293601 0 1 1.192488027710233e-
008 0 17 373 0 417 412 388 365 370 371 0 0 -14 374 252 376 1e-008 389 353 378 38
 375 -0 0 389 353 36 50 375 253 0 374 390 354 0 +0.0004000990614925678 -0.000124
9085552293602 0.0002 -1 -1.192488063850306e-008 0 0 -0 -1 81 1 376 254 32 374 0
 0 391 355 377 83 3 377 0.7529411911964417 0.7529411911964417 0.7529411911964417
 15 378 255 0 379 374 0 17 379 0 378 157 385 153 382 380 0 0 -16 380 256 0 ?382
 371 386 381 0 0 1 30 381 257 0 380 387 372 0 +0.0004000990585113476 0.000125091
44477064 0.0002 -0 0 -1 17 382 0 393 400 163 383 379 380 0 385 +18 383 258 0 382
 365 398 384 ?1 29 384 259 0 383 399 366 0.0004000990585113476 0.000125091444770
64 0 17 385 0 378 379 361 383 388 386 0 403 +16 386 260 0 ?385 380 395 387 0 0 1
 30 387 261 0 386 396 381 0 +0.0004000990614925678 -0.0001249085552293601 0 -1.1
92488063850306e-008 1 0 17 388 0 417 373 403 362 385 386 0 0 -14 389 262 391 1e-
008 404 374 393 38 390 -0 0 404 374 36 50 390 263 0 389 405 375 0 +0.00040009905
85113476 0.00012509144477064 0.0002 1.192488045780269e-008 -1 0 1 1.192488045780
269e-008 0 81 1 391 264 32 389 0 0 406 376 392 83 3 392 0.7529411911964417 0.752
9411911964417 0.7529411911964417 15 393 265 0 394 389 0 17 394 0 393 163 400 159
 397 395 0 0 -16 395 266 0 ?397 386 401 396 0 0 1 30 396 267 0 395 402 387 0 +0.
0001000990585113476 0.0001250914411931758 0.0002 -0 0 -1 17 397 0 408 409 167 39
8 394 395 0 400 +18 398 268 0 412 383 427 399 ?1 29 399 269 0 398 428 384 0.0001
000990585113476 0.0001250914411931758 0 17 400 0 393 394 382 398 403 401 0 0 +16
 401 270 0 ?400 395 410 402 0 0 1 30 402 271 0 401 411 396 0 +0.0004000990585113
476 0.00012509144477064 0 -1 -1.192488045780269e-008 0 17 403 0 417 388 412 383
 400 401 0 0 -14 404 272 406 1e-008 413 389 408 38 405 -0 0 413 389 36 50 405 27
3 0 404 414 390 0 +0.0001000990614925678 -0.0001249085588068242 0.0002 1 1.19248
8063850306e-008 0 0 0 1 81 1 406 274 32 404 0 0 415 391 407 83 3 407 0.752941191
1964417 0.7529411911964417 0.7529411911964417 15 408 275 0 369 404 0 17 409 0 40
8 369 397 365 412 410 0 364 +16 410 276 0 ?409 401 424 411 0 0 1 30 411 277 0 41
0 425 402 0 +0.0001000990614925678 -0.0001249085588068242 0 1.192488063850306e-0
08 -1 0 17 412 0 417 403 373 398 409 410 0 397 -14 413 278 415 1e-008 418 404 41
7 38 414 +0 0 418 404 36 50 414 279 0 413 419 405 0 +0.0001000990614925678 -0.00
01249085588068242 0 0 0 -1 -1.192488063850306e-008 1 0 81 1 415 280 32 413 0 0 4
20 406 416 83 3 416 0.7529411911964417 0.7529411911964417 0.7529411911964417 15
 417 281 0 373 413 0 14 418 282 420 1e-008 439 413 422 38 419 -0 0 439 413 36 50
 419 283 0 418 440 414 0 +0.0004000990674550081 -0.0006249085552293602 0.0002 -1
.192488027710233e-008 1 0 -1 -1.192488027710233e-008 0 81 1 420 284 32 418 0 0 4
41 415 421 83 3 421 0.7529411911964417 0.7529411911964417 0.7529411911964417 15
 422 285 0 423 418 0 17 423 0 422 74 435 70 426 424 0 69 -16 424 286 0 ?426 410
 432 425 0 0 1 30 425 287 0 424 433 411 0 +0.0004000990674550081 -0.000624908555
2293602 0.0002 -0 0 -1 17 426 0 443 450 82 427 423 424 0 453 +18 427 288 0 426 3
98 430 428 ?1 29 428 289 0 427 431 399 0.0004000990674550081 -0.0006249085552293
602 0 17 429 0 422 435 74 430 434 432 0 438 +18 430 290 0 429 427 448 431 ?1 29
 431 291 0 430 449 428 0.0001000990674550081 -0.0006249085588068241 0 16 432 292
 0 ?429 424 436 433 0 0 1 30 433 293 0 432 437 425 0 +0.0001000990674550081 -0.0
006249085588068241 0.0002 -0 0 -1 17 434 0 473 92 474 75 429 432 0 74 -17 435 0
 422 423 429 427 438 436 0 0 +16 436 294 0 ?435 432 445 437 0 0 1 30 437 295 0 4
36 446 433 0 +0.0004000990674550081 -0.0006249085552293602 0 1 1.192488027710233
e-008 0 17 438 0 482 477 453 430 435 436 0 474 -14 439 296 441 1e-008 454 418 44
3 38 440 -0 0 454 418 36 50 440 297 0 439 455 419 0 +0.0004000990674550081 -0.00
06249085552293602 0.0002 -1 -1.192488063850306e-008 0 0 -0 -1 81 1 441 298 32 43
9 0 0 456 420 442 83 3 442 0.7529411911964417 0.7529411911964417 0.7529411911964
417 15 443 299 0 444 439 0 17 444 0 443 82 450 78 447 445 0 77 -16 445 300 0 ?44
7 436 451 446 0 0 1 30 446 301 0 445 452 437 0 +0.000400099064473788 -0.00037490
855522936 0.0002 -0 0 -1 17 447 0 458 465 88 448 444 445 0 468 +18 448 302 0 450
 430 463 449 ?1 29 449 303 0 448 464 431 0.000400099064473788 -0.000374908555229
36 0 17 450 0 443 444 426 448 453 451 0 447 +16 451 304 0 ?450 445 460 452 0 0 1
 30 452 305 0 451 461 446 0 +0.0004000990674550081 -0.0006249085552293602 0 -1.1
92488063850306e-008 1 0 17 453 0 482 438 468 427 450 451 0 435 -14 454 306 456 1
e-008 469 439 458 38 455 -0 0 469 439 36 50 455 307 0 454 470 440 0 +0.000400099
064473788 -0.00037490855522936 0.0002 1.192488045780269e-008 -1 0 1 1.1924880457
80269e-008 0 81 1 456 308 32 454 0 0 471 441 457 83 3 457 0.7529411911964417 0.7
529411911964417 0.7529411911964417 15 458 309 0 459 454 0 17 459 0 458 88 465 84
 462 460 0 83 -16 460 310 0 ?462 451 466 461 0 0 1 30 461 311 0 460 467 452 0 +0
.000100099064473788 -0.0003749085588068242 0.0002 -0 0 -1 17 462 0 473 474 92 46
3 459 460 0 465 +18 463 312 0 462 448 492 464 ?1 29 464 313 0 463 493 449 0.0001
00099064473788 -0.0003749085588068242 0 17 465 0 458 459 447 463 468 466 0 477 +
16 466 314 0 ?465 460 475 467 0 0 1 30 467 315 0 466 476 461 0 +0.00040009906447
3788 -0.00037490855522936 0 -1 -1.192488045780269e-008 0 17 468 0 482 453 477 44
8 465 466 0 0 -14 469 316 471 1e-008 478 454 473 38 470 -0 0 478 454 36 50 470 3
17 0 469 479 455 0 +0.0001000990674550081 -0.0006249085588068241 0.0002 1 1.1924
88063850306e-008 0 0 0 1 81 1 471 318 32 469 0 0 480 456 472 83 3 472 0.75294119
11964417 0.7529411911964417 0.7529411911964417 15 473 319 0 434 469 0 17 474 0 4
73 434 462 430 477 475 0 0 +16 475 320 0 ?474 466 489 476 0 0 1 30 476 321 0 475
 490 467 0 +0.0001000990674550081 -0.0006249085588068241 0 1.192488063850306e-00
8 -1 0 17 477 0 482 468 438 463 474 475 0 0 -14 478 322 480 1e-008 483 469 482 3
8 479 +0 0 483 469 36 50 479 323 0 478 484 470 0 +0.0001000990674550081 -0.00062
49085588068241 0 0 0 -1 -1.192488063850306e-008 1 0 81 1 480 324 32 478 0 0 485
 471 481 83 3 481 0.7529411911964417 0.7529411911964417 0.7529411911964417 15 48
2 325 0 438 478 0 14 483 326 485 1e-008 504 478 487 38 484 -0 0 504 478 36 50 48
4 327 0 483 505 479 0 +-0.0003999009385074323 -0.0001249085647692647 0.0002 -1.1
92488099990378e-008 1 0 -1 -1.192488099990378e-008 0 81 1 485 328 32 483 0 0 506
 480 486 83 3 486 0.7529411911964417 0.7529411911964417 0.7529411911964417 15 48
7 329 0 488 483 0 17 488 0 487 174 500 170 491 489 0 0 -16 489 330 0 ?491 475 49
7 490 0 0 1 30 490 331 0 489 498 476 0 +-9.990093850743224e-005 -0.0001249085611
918003 0.0002 -0 0 -1 17 491 0 508 515 182 492 488 489 0 0 +18 492 332 0 500 463
 495 493 ?1 29 493 333 0 492 496 464 -9.990093850743224e-005 -0.0001249085611918
003 0 17 494 0 487 500 174 495 499 497 0 0 +18 495 334 0 503 492 513 496 ?1 29 4
96 335 0 495 514 493 -0.0003999009385074323 -0.0001249085647692647 0 16 497 336
 0 ?494 489 501 498 0 0 1 30 498 337 0 497 502 490 0 +-0.0003999009385074323 -0.
0001249085647692647 0.0002 -0 0 -1 17 499 0 538 192 539 175 494 497 0 0 -17 500
 0 487 488 494 492 503 501 0 518 +16 501 338 0 ?500 497 510 502 0 0 1 30 502 339
 0 501 511 498 0 +-0.0003999009385074323 -0.0001249085647692647 0 1 1.1924880999
90378e-008 0 17 503 0 547 542 518 495 500 501 0 539 -14 504 340 506 1e-008 519 4
83 508 38 505 -0 0 519 483 36 50 505 341 0 504 520 484 0 +-9.990093850743224e-00
5 -0.0001249085611918003 0.0002 -1 -1.192488063850306e-008 0 0 -0 -1 81 1 506 34
2 32 504 0 0 521 485 507 83 3 507 0.7529411911964417 0.7529411911964417 0.752941
1911964417 15 508 343 0 509 504 0 17 509 0 508 182 515 178 512 510 0 177 -16 510
 344 0 ?512 501 516 511 0 0 1 30 511 345 0 510 517 502 0 +-9.990094148865241e-00
5 0.0001250914388081997 0.0002 -0 0 -1 17 512 0 523 530 188 513 509 510 0 515 +1
8 513 346 0 512 495 528 514 ?1 29 514 347 0 513 529 496 -9.990094148865241e-005
 0.0001250914388081997 0 17 515 0 508 509 491 513 518 516 0 533 +16 516 348 0 ?5
15 510 525 517 0 0 1 30 517 349 0 516 526 511 0 +-9.990093850743224e-005 -0.0001
249085611918003 0 -1.192488063850306e-008 1 0 17 518 0 547 503 533 492 515 516 0
 491 -14 519 350 521 1e-008 534 504 523 38 520 -0 0 534 504 36 50 520 351 0 519
 535 505 0 +-0.0003999009414886524 0.0001250914352307355 0.0002 1.19248808192034
2e-008 -1 0 1 1.192488081920342e-008 0 81 1 521 352 32 519 0 0 536 506 522 83 3
 522 0.7529411911964417 0.7529411911964417 0.7529411911964417 15 523 353 0 524 5
19 0 17 524 0 523 188 530 184 527 525 0 183 -16 525 354 0 ?527 516 531 526 0 0 1
 30 526 355 0 525 532 517 0 +-0.0003999009414886524 0.0001250914352307355 0.0002
 -0 0 -1 17 527 0 538 539 192 528 524 525 0 530 +18 528 356 0 527 513 557 529 ?1
 29 529 357 0 528 558 514 -0.0003999009414886524 0.0001250914352307355 0 17 530
 0 523 524 512 528 533 531 0 542 +16 531 358 0 ?530 525 540 532 0 0 1 30 532 359
 0 531 541 526 0 +-0.0003999009414886524 0.0001250914352307355 0 -1 -1.192488081
920342e-008 0 17 533 0 547 518 542 513 530 531 0 0 -14 534 360 536 1e-008 543 51
9 538 38 535 -0 0 543 519 36 50 535 361 0 534 544 520 0 +-0.0003999009385074323
 -0.0001249085647692647 0.0002 1 1.192488063850306e-008 0 0 0 1 81 1 536 362 32
 534 0 0 545 521 537 83 3 537 0.7529411911964417 0.7529411911964417 0.7529411911
964417 15 538 363 0 499 534 0 17 539 0 538 499 527 495 542 540 0 494 +16 540 364
 0 ?539 531 554 541 0 0 1 30 541 365 0 540 555 532 0 +-0.0003999009385074323 -0.
0001249085647692647 0 1.192488063850306e-008 -1 0 17 542 0 547 533 503 528 539 5
40 0 0 -14 543 366 545 1e-008 548 534 547 38 544 -0 0 548 534 36 50 544 367 0 54
3 549 535 0 +-9.990093850743224e-005 -0.0001249085611918003 0 0 0 1 1.1924880638
50306e-008 -1 0 81 1 545 368 32 543 0 0 550 536 546 83 3 546 0.7529411911964417
 0.7529411911964417 0.7529411911964417 15 547 369 0 503 543 0 14 548 370 550 1e-
008 569 543 552 38 549 -0 0 569 543 36 50 549 371 0 548 570 544 0 +-0.0003999009
325449919 -0.0006249085647692646 0.0002 -1.192488099990378e-008 1 0 -1 -1.192488
099990378e-008 0 81 1 550 372 32 548 0 0 571 545 551 83 3 551 0.7529411911964417
 0.7529411911964417 0.7529411911964417 15 552 373 0 553 548 0 17 553 0 552 49 56
5 45 556 554 0 0 -16 554 374 0 ?556 540 562 555 0 0 1 30 555 375 0 554 563 541 0
 +-9.990093254499193e-005 -0.0006249085611918004 0.0002 -0 0 -1 17 556 0 573 580
 57 557 553 554 0 583 +18 557 376 0 565 528 560 558 ?1 29 558 377 0 557 561 529
 -9.990093254499193e-005 -0.0006249085611918004 0 17 559 0 552 565 49 560 564 56
2 0 0 +18 560 378 0 604 557 578 561 ?1 29 561 379 0 560 579 558 -0.0003999009325
449919 -0.0006249085647692646 0 16 562 380 0 ?559 554 566 563 0 0 1 30 563 381 0
 562 567 555 0 +-0.0003999009325449919 -0.0006249085647692646 0.0002 -0 0 -1 17
 564 0 603 67 604 50 559 562 0 0 -17 565 0 552 553 559 557 568 566 0 556 +16 566
 382 0 ?565 562 575 567 0 0 1 30 567 383 0 566 576 563 0 +-0.0003999009325449919
 -0.0006249085647692646 0 1 1.192488099990378e-008 0 17 568 0 612 607 583 560 56
5 566 0 559 -14 569 384 571 1e-008 584 548 573 38 570 -0 0 584 548 36 50 570 385
 0 569 585 549 0 +-9.990093254499193e-005 -0.0006249085611918004 0.0002 -1 -1.19
2488063850306e-008 0 0 -0 -1 81 1 571 386 32 569 0 0 586 550 572 83 3 572 0.7529
411911964417 0.7529411911964417 0.7529411911964417 15 573 387 0 574 569 0 17 574
 0 573 57 580 53 577 575 0 0 -16 575 388 0 ?577 566 581 576 0 0 1 30 576 389 0 5
75 582 567 0 +-9.990093552621208e-005 -0.0003749085611918003 0.0002 -0 0 -1 17 5
77 0 588 595 63 578 574 575 0 580 +18 578 390 0 598 560 593 579 ?1 29 579 391 0
 578 594 561 -9.990093552621208e-005 -0.0003749085611918003 0 17 580 0 573 574 5
56 578 583 581 0 0 +16 581 392 0 ?580 575 590 582 0 0 1 30 582 393 0 581 591 576
 0 +-9.990093254499193e-005 -0.0006249085611918004 0 -1.192488063850306e-008 1 0
 17 583 0 612 568 598 557 580 581 0 0 -14 584 394 586 1e-008 599 569 588 38 585
 -0 0 599 569 36 50 585 395 0 584 600 570 0 +-0.0003999009355262121 -0.000374908
5647692645 0.0002 1.192488081920342e-008 -1 0 1 1.192488081920342e-008 0 81 1 58
6 396 32 584 0 0 601 571 587 83 3 587 0.7529411911964417 0.7529411911964417 0.75
29411911964417 15 588 397 0 589 584 0 17 589 0 588 63 595 59 592 590 0 58 -16 59
0 398 0 ?592 581 596 591 0 0 1 30 591 399 0 590 597 582 0 +-0.000399900935526212
1 -0.0003749085647692645 0.0002 -0 0 -1 17 592 0 603 604 67 593 589 590 0 595 +1
8 593 400 0 592 578 622 594 ?1 29 594 401 0 593 623 579 -0.0003999009355262121 -
0.0003749085647692645 0 17 595 0 588 589 577 593 598 596 0 607 +16 596 402 0 ?59
5 590 605 597 0 0 1 30 597 403 0 596 606 591 0 +-0.0003999009355262121 -0.000374
9085647692645 0 -1 -1.192488081920342e-008 0 17 598 0 612 583 607 578 595 596 0
 577 -14 599 404 601 1e-008 608 584 603 38 600 -0 0 608 584 36 50 600 405 0 599
 609 585 0 +-0.0003999009325449919 -0.0006249085647692646 0.0002 1 1.19248806385
0306e-008 0 0 0 1 81 1 601 406 32 599 0 0 610 586 602 83 3 602 0.752941191196441
7 0.7529411911964417 0.7529411911964417 15 603 407 0 564 599 0 17 604 0 603 564
 592 560 607 605 0 568 +16 605 408 0 ?604 596 619 606 0 0 1 30 606 409 0 605 620
 597 0 +-0.0003999009325449919 -0.0006249085647692646 0 1.192488063850306e-008 -
1 0 17 607 0 612 598 568 593 604 605 0 0 -14 608 410 610 1e-008 613 599 612 38 6
09 -0 0 613 599 36 50 609 411 0 608 614 600 0 +-9.990093254499193e-005 -0.000624
9085611918004 0 0 0 1 1.192488063850306e-008 -1 0 81 1 610 412 32 608 0 0 615 60
1 611 83 3 611 0.7529411911964417 0.7529411911964417 0.7529411911964417 15 612 4
13 0 568 608 0 14 613 414 615 1e-008 634 608 617 38 614 -0 0 634 608 36 50 614 4
15 0 613 635 609 0 +-0.0003999009474510928 0.0006250914352307356 0.0002 1.192488
027710233e-008 -1 0 1 1.192488027710233e-008 0 81 1 615 416 32 613 0 0 636 610 6
16 83 3 616 0.7529411911964417 0.7529411911964417 0.7529411911964417 15 617 417
 0 618 613 0 17 618 0 617 199 630 195 621 619 0 207 -16 619 418 0 ?621 605 627 6
20 0 0 1 30 620 419 0 619 628 606 0 +-0.0003999009474510928 0.000625091435230735
6 0.0002 -0 0 -1 17 621 0 638 645 207 622 618 619 0 630 +18 622 420 0 621 593 62
5 623 ?1 29 623 421 0 622 626 594 -0.0003999009474510928 0.0006250914352307356 0
 17 624 0 617 630 199 625 629 627 0 633 +18 625 422 0 624 622 643 626 ?1 29 626
 423 0 625 644 623 -9.990094745109272e-005 0.0006250914388081997 0 16 627 424 0
 ?624 619 631 628 0 0 1 30 628 425 0 627 632 620 0 +-9.990094745109272e-005 0.00
06250914388081997 0.0002 -0 0 -1 17 629 0 668 217 669 200 624 627 0 199 -17 630
 0 617 618 624 622 633 631 0 648 +16 631 426 0 ?630 627 640 632 0 0 1 30 632 427
 0 631 641 628 0 +-0.0003999009474510928 0.0006250914352307356 0 -1 -1.192488027
710233e-008 -0 17 633 0 677 672 648 625 630 631 0 669 -14 634 428 636 1e-008 649
 613 638 38 635 -0 0 649 613 36 50 635 429 0 634 650 614 0 +-0.00039990094745109
28 0.0006250914352307356 0.0002 1 1.192488063850306e-008 0 0 0 1 81 1 636 430 32
 634 0 0 651 615 637 83 3 637 0.7529411911964417 0.7529411911964417 0.7529411911
964417 15 638 431 0 639 634 0 17 639 0 638 207 645 203 642 640 0 213 -16 640 432
 0 ?642 631 646 641 0 0 1 30 641 433 0 640 647 632 0 +-0.0003999009444698726 0.0
003750914352307354 0.0002 -0 0 -1 17 642 0 653 660 213 643 639 640 0 645 +18 643
 434 0 642 625 658 644 ?1 29 644 435 0 643 659 626 -0.0003999009444698726 0.0003
750914352307354 0 17 645 0 638 639 621 643 648 646 0 663 +16 646 436 0 ?645 640
 655 647 0 0 1 30 647 437 0 646 656 641 0 +-0.0003999009474510928 0.000625091435
2307356 0 1.192488063850306e-008 -1 0 17 648 0 677 633 663 622 645 646 0 0 -14 6
49 438 651 1e-008 664 634 653 38 650 -0 0 664 634 36 50 650 439 0 649 665 635 0
 +-0.0003999009444698726 0.0003750914352307355 0.0002 -1.192488045780269e-008 1
 0 -1 -1.192488045780269e-008 0 81 1 651 440 32 649 0 0 666 636 652 83 3 652 0.7
529411911964417 0.7529411911964417 0.7529411911964417 15 653 441 0 654 649 0 17
 654 0 653 213 660 209 657 655 0 208 -16 655 442 0 ?657 646 661 656 0 0 1 30 656
 443 0 655 662 647 0 +-9.990094446987257e-005 0.0003750914388081997 0.0002 -0 0
 -1 17 657 0 668 669 217 658 654 655 0 0 +18 658 444 0 660 643 0 659 ?1 29 659 4
45 0 658 0 644 -9.990094446987257e-005 0.0003750914388081997 0 17 660 0 653 654
 642 658 663 661 0 672 +16 661 446 0 ?660 655 670 662 0 0 1 30 662 447 0 661 671
 656 0 +-0.0003999009444698726 0.0003750914352307354 0 1 1.192488045780269e-008
 0 17 663 0 677 648 672 643 660 661 0 0 -14 664 448 666 1e-008 673 649 668 38 66
5 -0 0 673 649 36 50 665 449 0 664 674 650 0 +-9.990094745109272e-005 0.00062509
14388081997 0.0002 -1 -1.192488063850306e-008 0 0 -0 -1 81 1 666 450 32 664 0 0
 675 651 667 83 3 667 0.7529411911964417 0.7529411911964417 0.7529411911964417 1
5 668 451 0 629 664 0 17 669 0 668 629 657 625 672 670 0 0 +16 670 452 0 ?669 66
1 684 671 0 0 1 30 671 453 0 670 685 662 0 +-9.990094745109272e-005 0.0006250914
388081997 0 -1.192488063850306e-008 1 -0 17 672 0 677 663 633 658 669 670 0 657
 -14 673 454 675 1e-008 678 664 677 38 674 +0 0 678 664 36 50 674 455 0 673 679
 665 0 +-9.990094745109272e-005 0.0006250914388081997 0 0 0 -1 -1.19248806385030
6e-008 1 0 81 1 675 456 32 673 0 0 680 666 676 83 3 676 0.7529411911964417 0.752
9411911964417 0.7529411911964417 15 677 457 0 633 673 0 14 678 458 680 1e-008 68
7 673 682 38 679 -0 0 687 673 36 52 679 459 0 678 688 674 0 +-0.0002499009453642
386 0.0004500914370194676 0.00051 0 0 1 0.00012 0.500000000000001 0.866025403784
438 1.192488063850306e-008 -1 0 81 1 680 460 32 678 0 0 689 675 681 83 3 681 0.1
25490203499794 0.125490203499794 0.125490203499794 15 682 461 0 21 678 0 17 683
 0 682 31 21 14 686 684 0 0 -16 684 462 0 ?686 670 0 685 0 0 1 31 685 463 0 684
 0 671 0 +-0.0002499009453642386 0.0004500914370194676 0.00047 -0 0 1 1.19248806
3850306e-008 -1 0 9.690598923241486e-005 17 686 0 691 13 13 9 683 684 0 0 +14 68
7 464 689 1e-008 0 678 691 38 688 +0 0 0 678 36 50 688 465 0 687 0 679 0 +-0.000
2499009453642386 0.0004500914370194676 0.00047 0 0 1 1.192488063850306e-008 -1 0
 81 1 689 466 32 687 0 0 0 680 690 83 3 690 0.7529411911964417 0.752941191196441
7 0.7529411911964417 15 691 467 0 686 687 0 1 0 
