**ABCDEFGHIJKLMNOPQRSTUVWXYZabcdefghijklmnopqrstuvwxyz**************************
**PARASOLID !"#$%&'()*+,-./:;<=>?@[\]^_`{|}~0123456789**************************
**PART1;
MC=AMD64;
MC_MODEL=Intel64 Family 6 Model 158 Stepping 10, GenuineIntel;
MC_ID=unknown;
OS=Windows_NT;
OS_RELEASE=unknown;
FRU=CAD Exchanger 3.6.1 (cadexchanger.com);
APPL=unknown;
SITE=unknown;
USER=unknown;
FORMAT=text;
GUISE=transmit;
KEY=RESC0603(1608)_L_CMP-009-00176-2;
FILE=RESC0603(1608)_L_CMP-009-00176-2.x_t;
DATE=Mon Jun 08 09:31:52 2020;
**PART2;
SCH=SCH_1200000_12006;
USFLD_SIZE=0;
**PART3;
**END_OF_HEADER*****************************************************************
T51 : TRANSMIT FILE created by modeller version 120000017 SCH_1200000_120060 74
 4 1 4 0 2 105 206 475 12 2 68 0 3 0 0 0 0 1000 1e-008 0 0 0 1 0 1 1 39 7 13 11
 36 12 10 70 3 0 2 0 0 4 1 20 0 4 4 1 T74 20 4 1 0 5 0 0 0 0 0 0 0 0 0 0 0 0 0 0
 0 0 0 0 0 81 1 5 7 33 6 0 0 42 0 35 14 6 5 5 1e-008 40 0 8 39 7 -0 0 40 0 37 50
 7 6 0 6 41 0 0 +-0.0007499187899392121 0.0004000811313802678 0.0004000000174845
55 0.9999999999999848 1.748455531469491e-007 0 -1.748455531469489e-007 0.9999999
999999838 4.371138828673856e-008 15 8 8 0 9 6 0 17 9 0 8 17 29 10 14 12 0 22 +18
 10 9 0 9 0 15 11 ?2 29 11 10 0 10 16 0 -0.0007499187899392148 0.000400081146679
2537 5.00000174845553e-005 16 12 11 0 ?9 0 20 13 0 0 2 30 13 12 0 12 21 0 0 +-0.
0007499187899392121 0.0004000811313802678 0.000400000017484555 -7.64274186381587
3e-015 4.371138828673789e-008 -0.9999999999999991 17 14 0 86 91 87 15 9 12 0 94
 -18 15 13 0 29 10 18 16 ?2 29 16 14 0 15 19 11 -0.0007499187899392121 0.0004000
811313802678 0.000400000017484555 17 17 0 8 23 9 18 22 20 0 28 +18 18 15 0 17 15
 24 19 ?2 29 19 16 0 18 25 16 -0.0007499186500627724 -0.0003999188533207333 4.99
9998251544464e-005 16 20 17 0 ?17 12 26 21 0 0 2 30 21 18 0 20 27 13 0 +-0.00074
99187899392148 0.0004000811466792538 5.000001748455528e-005 1.748455531469489e-0
07 -0.9999999999999838 -4.371138828673856e-008 17 22 0 104 90 50 10 17 20 0 87 -
17 23 0 8 29 17 24 28 26 0 0 -18 24 19 0 32 18 46 25 ?2 29 25 20 0 24 47 19 -0.0
007499186500627696 -0.0003999188686197194 0.0003999999825154444 16 26 21 0 ?28 2
0 30 27 0 0 2 30 27 22 0 26 31 21 0 +-0.0007499186500627696 -0.00039991886861971
94 0.0003999999825154444 -7.642741863815873e-015 4.371138828673789e-008 -0.99999
99999999991 17 28 0 44 45 57 18 23 26 0 50 +17 29 0 8 9 23 15 32 30 0 14 -16 30
 23 0 ?32 26 48 31 0 0 2 30 31 24 0 30 49 27 0 +-0.0007499187899392121 0.0004000
811313802678 0.000400000017484555 1.748455531469489e-007 -0.9999999999999838 -4.
371138828673856e-008 17 32 0 99 60 94 24 29 30 0 57 +80 1 33 0 34 8001 0 0 0 0 3
 5 0 0 FFFFTFTFFFFFFF2 79 15 34 SDL/TYSA_COLOUR83 3 35 0.843137264251709 0.81568
62854957581 0.7529411911964417 19 36 1 0 2 38 0 37 V13 37 2 0 2 0 0 0 0 36 6 19
 38 3 0 2 0 36 39 S13 39 4 0 2 0 6 0 0 38 0 14 40 25 42 1e-008 61 6 44 39 41 -0
 0 61 6 37 50 41 26 0 40 62 7 0 +0.0007500813499372076 -0.0003999186063513895 0.
0003999999825154444 -1.748455532915092e-007 0.9999999999999838 4.371138828673856
e-008 -0.9999999999999848 -1.748455532915094e-007 -6.318930952378583e-024 81 1 4
2 27 33 40 0 0 63 5 43 83 3 43 0.843137264251709 0.8156862854957581 0.7529411911
964417 15 44 28 0 28 40 0 17 45 0 44 51 28 46 50 48 0 56 -18 46 29 0 45 24 52 47
 ?2 29 47 30 0 46 53 25 0.0007500813499372048 -0.0003999185910524036 4.999998251
544464e-005 16 48 31 0 ?50 30 54 49 0 0 2 30 49 32 0 48 55 31 0 +-0.000749918650
0627724 -0.0003999188533207333 4.999998251544464e-005 -0.9999999999999848 -1.748
455531469491e-007 0 17 50 0 104 22 71 18 45 48 0 0 +17 51 0 44 57 45 52 56 54 0
 0 -18 52 33 0 60 46 67 53 ?2 29 53 34 0 52 68 47 0.0007500813499372076 -0.00039
99186063513895 0.0003999999825154444 16 54 35 0 ?56 48 58 55 0 0 2 30 55 36 0 54
 59 49 0 +0.0007500813499372076 -0.0003999186063513895 0.0003999999825154444 -7.
642741863815873e-015 4.371138828673789e-008 -0.9999999999999991 17 56 0 65 66 78
 46 51 54 0 71 +17 57 0 44 28 51 24 60 58 0 23 -16 58 37 0 ?60 54 69 59 0 0 2 30
 59 38 0 58 70 55 0 +0.0007500813499372076 -0.0003999186063513895 0.000399999982
5154444 0.9999999999999848 1.748455532915094e-007 6.318930952378583e-024 17 60 0
 99 81 32 52 57 58 0 78 +14 61 39 63 1e-008 82 40 65 39 62 -0 0 82 40 37 50 62 4
0 0 61 83 41 0 +0.000750081210060765 0.0004000813936485977 0.000400000017484555
 -0.9999999999999848 -1.748455532824743e-007 -5.923997767854923e-024 1.748455532
824742e-007 -0.9999999999999838 -4.371138828673856e-008 81 1 63 41 33 61 0 0 84
 42 64 83 3 64 0.843137264251709 0.8156862854957581 0.7529411911964417 15 65 42
 0 56 61 0 17 66 0 65 72 56 67 71 69 0 0 -18 67 43 0 90 52 73 68 ?2 29 68 44 0 6
7 74 53 0.0007500812100607623 0.0004000814089475835 5.000001748455528e-005 16 69
 45 0 ?71 58 75 70 0 0 2 30 70 46 0 69 76 59 0 +0.0007500812100607623 0.00040008
14089475835 5.000001748455528e-005 1.748455531469489e-007 -0.9999999999999838 -4
.371138828673856e-008 17 71 0 104 50 90 46 66 69 0 0 +17 72 0 65 78 66 73 77 75
 0 0 -18 73 47 0 81 67 0 74 ?2 29 74 48 0 73 0 68 0.000750081210060765 0.0004000
813936485977 0.000400000017484555 16 75 49 0 ?77 69 79 76 0 0 2 30 76 50 0 75 80
 70 0 +0.000750081210060765 0.0004000813936485977 0.000400000017484555 -7.642741
863815873e-015 4.371138828673789e-008 -0.9999999999999991 17 77 0 86 87 91 67 72
 75 0 66 +17 78 0 65 56 72 52 81 79 0 51 -16 79 51 0 ?81 75 88 80 0 0 2 30 80 52
 0 79 89 76 0 +0.000750081210060765 0.0004000813936485977 0.000400000017484555 -
1.748455532824742e-007 0.9999999999999838 4.371138828673856e-008 17 81 0 99 94 6
0 73 78 79 0 91 +14 82 53 84 1e-008 95 61 86 39 83 -0 0 95 61 37 50 83 54 0 82 9
6 62 0 +0.000750081210060765 0.0004000813936485977 0.000400000017484555 1.748455
532553691e-007 -0.9999999999999838 -4.371138828673856e-008 0.9999999999999848 1.
748455532553693e-007 4.739198214283937e-024 81 1 84 55 33 82 0 0 97 63 85 83 3 8
5 0.843137264251709 0.8156862854957581 0.7529411911964417 15 86 56 0 77 82 0 17
 87 0 86 14 77 10 90 88 0 0 +16 88 57 0 ?87 79 92 89 0 0 2 30 89 58 0 88 93 80 0
 +-0.0007499187899392148 0.0004000811466792538 5.000001748455528e-005 -0.9999999
999999848 -1.748455531469491e-007 0 17 90 0 104 71 22 67 87 88 0 77 -17 91 0 86
 77 14 73 94 92 0 72 -16 92 59 0 ?94 88 0 93 0 0 2 30 93 60 0 92 0 89 0 +0.00075
0081210060765 0.0004000813936485977 0.000400000017484555 -0.9999999999999848 -1.
748455532553693e-007 -4.739198214283937e-024 17 94 0 99 32 81 15 91 92 0 0 +14 9
5 61 97 1e-008 100 82 99 39 96 -0 0 100 82 37 50 96 62 0 95 101 83 0 +-0.0007499
186500627696 -0.0003999188686197194 0.0003999999825154444 -7.642741863815873e-01
5 4.371138828673789e-008 -0.9999999999999991 -1.748455531469489e-007 0.999999999
9999838 4.371138828673856e-008 81 1 97 63 33 95 0 0 102 84 98 83 3 98 0.84313726
4251709 0.8156862854957581 0.7529411911964417 15 99 64 0 60 95 0 14 100 65 102 1
e-008 0 95 104 39 101 -0 0 0 95 37 50 101 66 0 100 0 96 0 +-0.000749918789939214
8 0.0004000811466792538 5.000001748455528e-005 7.642741863815873e-015 -4.3711388
28673789e-008 0.9999999999999991 1.748455531469489e-007 -0.9999999999999838 -4.3
71138828673856e-008 81 1 102 67 33 100 0 0 0 97 103 83 3 103 0.843137264251709 0
.8156862854957581 0.7529411911964417 15 104 68 0 50 100 0 12 105 68 0 106 0 0 0
 0 1000 1e-008 0 0 0 1 0 1 1 140 110 116 114 137 115 113 70 106 0 105 0 0 4 1 20
 0 107 107 1 T74 20 107 1 0 108 0 0 0 0 0 0 0 0 0 0 0 0 0 0 0 0 0 0 0 81 1 108 7
 33 109 0 0 143 0 136 14 109 5 108 1e-008 141 0 111 140 110 -0 0 141 0 138 50 11
0 6 0 109 142 0 0 +0.001301642327031269 -0.0003999185120989751 0.000449999982515
4483 -1.748455530114236e-007 0.9999999999999838 4.371138828673856e-008 -0.999999
9999999848 -1.748455530114238e-007 5.923997767854922e-024 15 111 8 0 112 109 0 1
7 112 0 111 120 132 113 117 115 0 125 -18 113 9 0 112 0 118 114 ?105 29 114 10 0
 113 119 0 0.0005000813499372116 -0.0003999186522483475 0.0004499999825154465 16
 115 11 0 ?117 0 123 116 0 0 105 30 116 12 0 115 124 0 0 +0.0005000813499372116
 -0.0003999186522483474 0.00044999998251545 -9.811146208786844e-015 4.3711388286
73751e-008 -0.9999999999999991 17 117 0 205 149 191 118 112 115 0 132 +18 118 13
 0 117 113 121 119 ?105 29 119 14 0 118 122 114 0.000500081349937211 -0.00039991
8650062778 0.0003999999825154466 17 120 0 111 126 112 121 125 123 0 192 +18 121
 15 0 120 118 127 122 ?105 29 122 16 0 121 128 119 -0.0004999186500627733 -0.000
3999188270939004 0.0004499999825154444 16 123 17 0 ?120 115 129 124 0 0 105 30 1
24 18 0 123 130 116 0 +0.001301642327031269 -0.0003999185120989751 0.00044999998
25154483 -0.9999999999999848 -1.748455530114237e-007 -2.168404339047004e-015 17
 125 0 187 188 192 113 120 123 0 191 -17 126 0 111 132 120 127 131 129 0 157 +18
 127 19 0 135 121 150 128 ?105 29 128 20 0 127 151 122 -0.0004999186500627736 -0
.000399918824908331 0.0003999999825154444 16 129 21 0 ?126 123 133 130 0 0 105 3
0 130 22 0 129 134 124 0 +-0.0004999186500627733 -0.0003999188270939004 0.000449
9999825154444 -5.474337518844899e-015 4.371138828673827e-008 -0.9999999999999991
 17 131 0 200 195 157 121 126 129 0 0 -17 132 0 111 112 126 118 135 133 0 146 -1
6 133 23 0 ?135 129 147 134 0 0 105 30 134 24 0 133 148 130 0 +0.001301642327031
269 -0.0003999185099134057 0.0003999999825154483 -0.9999999999999848 -1.74845553
0114237e-007 -2.168404339047004e-015 17 135 0 145 152 146 127 132 133 0 126 +83
 3 136 0.09803921729326248 0.09803921729326248 0.09803921729326248 19 137 1 0 10
5 139 0 138 V13 138 2 0 105 0 0 0 0 137 109 19 139 3 0 105 0 137 140 S13 140 4 0
 105 0 109 0 0 139 0 14 141 25 143 1e-008 162 109 145 140 142 -0 0 162 109 138 5
0 142 26 0 141 163 110 0 +0.001301642327031269 -0.0003999185099134058 0.00039999
99825154483 5.474337518844903e-015 -4.371138828673827e-008 0.9999999999999991 -0
.9999999999999848 -1.74845553146949e-007 -2.168404344971001e-015 81 1 143 27 33
 141 0 0 164 108 144 83 3 144 0.09803921729326248 0.09803921729326248 0.09803921
729326248 15 145 28 0 146 141 0 17 146 0 145 135 158 118 149 147 0 0 -16 147 29
 0 ?149 133 155 148 0 0 105 30 148 30 0 147 156 134 0 +0.0005000813499372111 -0.
0003999186500627785 0.0003999999825154466 -1.748455535715948e-007 0.999999999999
9838 4.371138828673856e-008 17 149 0 205 170 117 150 146 147 0 167 +18 150 31 0
 158 127 153 151 ?105 29 151 32 0 150 154 128 0.0005000812100607682 0.0004000813
499372093 0.0004000000174845572 17 152 0 145 158 135 153 157 155 0 178 +18 153 3
3 0 161 150 171 154 ?105 29 154 34 0 153 172 151 -0.0004999187899392161 0.000400
0811750916562 0.000400000017484555 16 155 35 0 ?152 147 159 156 0 0 105 30 156 3
6 0 155 160 148 0 +-0.0004999186500627736 -0.000399918824908331 0.00039999998251
54444 -1.748455530114236e-007 0.9999999999999838 4.371138828673856e-008 17 157 0
 200 131 178 127 152 155 0 0 -17 158 0 145 146 152 150 161 159 0 149 -16 159 37
 0 ?161 155 168 160 0 0 105 30 160 38 0 159 169 156 0 +0.001301642187154826 0.00
04000814900865816 0.0004000000174845589 -0.9999999999999848 -1.748455530114237e-
007 -2.168404339047004e-015 17 161 0 166 173 167 153 158 159 0 152 +14 162 39 16
4 1e-008 183 141 166 140 163 -0 0 183 141 138 50 163 40 0 162 184 142 0 +0.00130
1642187154827 0.0004000814879010122 0.0004500000174845589 1.748455530114236e-007
 -0.9999999999999838 -4.371138828673856e-008 0.9999999999999848 1.74845553011423
8e-007 -5.923997767854922e-024 81 1 164 41 33 162 0 0 185 143 165 83 3 165 0.098
03921729326248 0.09803921729326248 0.09803921729326248 15 166 42 0 167 162 0 17
 167 0 166 161 179 150 170 168 0 0 -16 168 43 0 ?170 159 176 169 0 0 105 30 169
 44 0 168 177 160 0 +0.0005000812100607688 0.0004000813477516398 0.0004500000174
845606 9.811146208786844e-015 -4.371138828673751e-008 0.9999999999999991 17 170
 0 205 191 149 171 167 168 0 0 +18 171 45 0 179 153 174 172 ?105 29 172 46 0 171
 175 154 0.0005000812100607688 0.0004000813477516398 0.0004500000174845571 17 17
3 0 166 179 161 174 178 176 0 0 +18 174 47 0 182 171 0 175 ?105 29 175 48 0 174
 0 172 -0.0004999187899392156 0.0004000811729060868 0.000450000017484555 16 176
 49 0 ?173 168 180 177 0 0 105 30 177 50 0 176 181 169 0 +-0.0004999187899392156
 0.0004000811729060868 0.000450000017484555 7.642741863815873e-015 -4.3711388286
73789e-008 0.9999999999999991 17 178 0 200 157 195 153 173 176 0 0 -17 179 0 166
 167 173 171 182 180 0 188 -16 180 51 0 ?182 176 189 181 0 0 105 30 181 52 0 180
 190 177 0 +0.001301642187154827 0.0004000814879010122 0.0004500000174845589 -0.
9999999999999848 -1.748455530114237e-007 -2.168404339047004e-015 17 182 0 187 19
2 188 174 179 180 0 195 +14 183 53 185 1e-008 196 162 187 140 184 -0 0 196 162 1
38 50 184 54 0 183 197 163 0 +0.001301642327031269 -0.0003999185120989751 0.0004
499999825154483 -5.474337518844903e-015 4.371138828673827e-008 -0.99999999999999
91 0.9999999999999848 1.74845553146949e-007 2.168404344971001e-015 81 1 185 55 3
3 183 0 0 198 164 186 83 3 186 0.09803921729326248 0.09803921729326248 0.0980392
1729326248 15 187 56 0 188 183 0 17 188 0 187 182 125 171 191 189 0 170 -16 189
 57 0 ?191 180 193 190 0 0 105 30 190 58 0 189 194 181 0 +0.0005000813499372116
 -0.0003999186522483479 0.0004499999825154465 1.748455535715948e-007 -0.99999999
99999838 -4.371138828673856e-008 17 191 0 205 117 170 113 188 189 0 0 +17 192 0
 187 125 182 121 195 193 0 131 +16 193 59 0 ?192 189 0 194 0 0 105 30 194 60 0 1
93 0 190 0 +-0.0004999186500627733 -0.0003999188270939004 0.0004499999825154444
 1.748455528758984e-007 -0.9999999999999838 -4.371138828673856e-008 17 195 0 200
 178 131 174 192 193 0 173 -14 196 61 198 1e-008 201 183 200 140 197 -0 0 201 18
3 138 50 197 62 0 196 202 184 0 +-0.0004999186500627736 -0.000399918824908331 0.
0003999999825154444 0.9999999999999848 1.748455530114237e-007 2.168404339047008e
-015 5.474337518844899e-015 -4.371138828673827e-008 0.9999999999999991 81 1 198
 63 33 196 0 0 203 185 199 83 3 199 0.09803921729326248 0.09803921729326248 0.09
803921729326248 15 200 64 0 178 196 0 14 201 65 203 1e-008 0 196 205 140 202 +0
 0 0 196 138 50 202 66 0 201 0 197 0 +0.0005000813499372116 -0.00039991865224834
72 0.0004499999825154444 0.9999999999999848 1.74845553571595e-007 -2.16840432640
9142e-015 -9.811146208786844e-015 4.371138828673751e-008 -0.9999999999999991 81
 1 203 67 33 201 0 0 0 198 204 83 3 204 0.09803921729326248 0.09803921729326248
 0.09803921729326248 15 205 68 0 191 201 0 12 206 180 0 207 0 0 0 0 1000 1e-008
 0 0 0 1 0 1 1 241 211 217 215 238 216 214 70 207 0 206 0 0 4 1 20 0 208 208 1 T
74 20 208 1 0 209 0 0 0 0 0 0 0 0 0 0 0 0 0 0 0 0 0 0 0 81 1 209 7 33 210 0 0 24
4 0 237 14 210 5 209 1e-008 242 0 212 241 211 -0 0 242 0 239 50 211 6 0 210 243
 0 0 +-0.0007499187899392152 0.0004000811466792539 5.000001748455514e-005 -7.518
510341189253e-015 4.371138815121264e-008 -0.9999999999999991 -1.748455531469489e
-007 0.9999999999999838 4.371138815121329e-008 15 212 8 0 213 210 0 17 213 0 212
 221 233 214 218 216 0 376 -18 214 9 0 213 0 219 215 ?206 29 215 10 0 214 220 0
 -0.0004999187899392188 0.0004000811903906422 5.000001748455559e-005 16 216 11 0
 ?218 0 224 217 0 0 206 30 217 12 0 216 225 0 0 +-0.0004999187899392188 0.000400
0811903906422 5.000001748455517e-005 1.748455531469489e-007 -0.9999999999999838
 -4.371138815121329e-008 17 218 0 446 428 376 219 213 216 0 425 +18 219 13 0 218
 214 222 220 ?206 29 220 14 0 219 223 215 -0.0004999186500627762 -0.000399918809
609345 4.999998251544464e-005 17 221 0 212 227 213 222 226 224 0 232 -18 222 15
 0 287 219 228 223 ?206 29 223 16 0 222 229 220 -0.000749918789939215 0.00040008
11466792539 5.000001748455546e-005 16 224 17 0 ?226 216 230 225 0 0 206 30 225 1
8 0 224 231 217 0 +-0.000749918789939215 0.0004000811466792539 5.000001748455546
e-005 0.9999999999999848 1.748455531469491e-007 1.242314989306306e-016 17 226 0
 362 373 287 214 221 224 0 0 +17 227 0 212 233 221 228 232 230 0 236 -18 228 19
 0 276 222 248 229 ?206 29 229 20 0 228 249 223 -0.0007499186500627725 -0.000399
9188533207333 4.999998251544489e-005 16 230 21 0 ?232 224 234 231 0 0 206 30 231
 22 0 230 235 225 0 +-0.0007499187899392151 0.0004000811466792539 5.000001748455
514e-005 -1.748455532824742e-007 0.9999999999999838 4.371138815121329e-008 17 23
2 0 275 282 276 222 227 230 0 0 +17 233 0 212 213 227 219 236 234 0 0 +16 234 23
 0 ?233 230 250 235 0 0 206 30 235 24 0 234 251 231 0 +-0.0007499186500627725 -0
.0003999188533207333 4.999998251544489e-005 0.9999999999999848 1.748455531469491
e-007 1.242314989306306e-016 17 236 0 420 279 425 228 233 234 0 0 -83 3 237 0.89
80392217636108 0.9176470637321472 0.929411768913269 19 238 1 0 206 240 0 239 V13
 239 2 0 206 0 0 0 0 238 210 19 240 3 0 206 0 238 241 S13 241 4 0 206 0 210 0 0
 240 0 14 242 25 244 1e-008 271 210 246 241 243 -0 0 271 210 239 50 243 26 0 242
 272 211 0 +-0.0007999186500627722 -0.0003999188598774416 -1.748455547732575e-01
1 7.518510364885244e-015 -4.371138828673791e-008 0.9999999999999991 -0.999999999
9999848 -1.748455531469491e-007 -1.242314989306306e-016 81 1 244 27 33 242 0 0 2
73 209 245 83 3 245 0.8980392217636108 0.9176470637321472 0.929411768913269 15 2
46 28 0 247 242 0 17 247 0 246 255 267 248 252 250 0 260 -18 248 29 0 428 228 25
3 249 ?206 29 249 30 0 248 254 229 -0.0004999186500627766 -0.0003999188074237757
 -1.748455541295125e-011 16 250 31 0 ?252 234 258 251 0 0 206 30 251 32 0 250 25
9 235 0 +-0.0004999186500627766 -0.0003999188074237757 -1.74845554400563e-011 -1
.748455531469489e-007 0.9999999999999838 4.371138828673856e-008 17 252 0 446 376
 428 253 247 250 0 373 +18 253 33 0 252 248 256 254 ?206 29 254 34 0 253 257 249
 -0.0004999187899392191 0.0004000811925762114 1.748455518933455e-011 17 255 0 24
6 261 247 256 260 258 0 308 -18 256 35 0 266 253 262 257 ?206 29 257 36 0 256 26
3 254 -0.0007999186500627724 -0.0003999188598774416 -1.748455545022069e-011 16 2
58 37 0 ?260 250 264 259 0 0 206 30 259 38 0 258 265 251 0 +-0.00079991865006277
24 -0.0003999188598774416 -1.748455545022069e-011 0.9999999999999848 1.748455531
469491e-007 1.242314989306306e-016 17 260 0 420 425 308 248 255 258 0 0 +17 261
 0 246 267 255 262 266 264 0 297 -18 262 39 0 261 256 280 263 ?206 29 263 40 0 2
62 281 257 -0.0007999187899392146 0.0004000811401225455 1.74845551520651e-011 16
 264 41 0 ?266 258 268 265 0 0 206 30 265 42 0 264 269 259 0 +-0.000799918650062
7722 -0.0003999188598774416 -1.748455547732575e-011 1.748455531469489e-007 -0.99
99999999999838 -4.371138828673856e-008 17 266 0 296 303 297 256 261 264 0 255 +1
7 267 0 246 247 261 253 270 268 0 0 +16 268 43 0 ?267 264 277 269 0 0 206 30 269
 44 0 268 278 265 0 +-0.0007999187899392146 0.0004000811401225455 1.748455515206
51e-011 0.9999999999999848 1.748455531469491e-007 1.242314989306306e-016 17 270
 0 362 300 373 262 267 268 0 0 -14 271 45 273 1e-008 292 242 275 241 272 +0 0 29
2 242 239 50 272 46 0 271 293 243 0 +-0.0007499187899392123 0.000400081131380268
1 0.000400000017484555 0.9999999999999848 1.748455532824743e-007 -2.409338101838
92e-016 7.883675679923759e-015 -4.371138828673785e-008 0.9999999999999991 81 1 2
73 47 33 271 0 0 294 244 274 83 3 274 0.8980392217636108 0.9176470637321472 0.92
9411768913269 15 275 48 0 276 271 0 17 276 0 275 232 288 228 279 277 0 227 +16 2
77 49 0 ?276 268 285 278 0 0 206 30 278 50 0 277 286 269 0 +-0.00074991865006276
96 -0.0003999188686197193 0.0003999999825154444 -7.883675679923759e-015 4.371138
828673785e-008 -0.9999999999999991 17 279 0 420 341 236 280 276 277 0 338 -18 28
0 51 0 288 262 283 281 ?206 29 281 52 0 280 284 263 -0.0007499186500627696 -0.00
03999188686197193 0.0003999999825154444 17 282 0 275 288 232 283 287 285 0 347 -
18 283 53 0 282 280 301 284 ?206 29 284 54 0 283 302 281 -0.0007499187899392123
 0.000400081131380268 0.0004000000174845551 16 285 55 0 ?287 277 289 286 0 0 206
 30 286 56 0 285 290 278 0 +-0.0007499187899392123 0.000400081131380268 0.000400
0000174845551 -7.883675679923759e-015 4.371138828673785e-008 -0.9999999999999991
 17 287 0 362 226 347 222 282 285 0 221 +17 288 0 275 276 282 280 291 289 0 279
 +16 289 57 0 ?288 285 298 290 0 0 206 30 290 58 0 289 299 286 0 +-0.00074991878
99392123 0.0004000811313802681 0.000400000017484555 1.748455532824742e-007 -0.99
99999999999838 -4.371138842226383e-008 17 291 0 317 342 338 283 288 289 0 0 -14
 292 59 294 1e-008 313 271 296 241 293 +0 0 313 271 239 50 293 60 0 292 314 272
 0 +-0.0007999186500627688 -0.0003999188795475663 0.0004499999825154444 -0.99999
99999999848 -1.748455531469491e-007 2.409338161078897e-016 -7.883675679923759e-0
15 4.371138828673785e-008 -0.9999999999999991 81 1 294 61 33 292 0 0 315 273 295
 83 3 295 0.8980392217636108 0.9176470637321472 0.929411768913269 15 296 62 0 29
7 292 0 17 297 0 296 266 309 262 300 298 0 270 +16 298 63 0 ?297 289 306 299 0 0
 206 30 299 64 0 298 307 290 0 +-0.0007999187899392112 0.0004000811204524208 0.0
00450000017484555 -7.883675679923759e-015 4.371138828673785e-008 -0.999999999999
9991 17 300 0 362 363 270 301 297 298 0 368 -18 301 65 0 309 283 304 302 ?206 29
 302 66 0 301 305 284 -0.0007999187899392112 0.0004000811204524208 0.00045000001
7484555 17 303 0 296 309 266 304 308 306 0 415 -18 304 67 0 312 301 319 305 ?206
 29 305 68 0 304 320 302 -0.0007999186500627688 -0.0003999188795475663 0.0004499
999825154443 16 306 69 0 ?308 298 310 307 0 0 206 30 307 70 0 306 311 299 0 +-0.
0007999186500627688 -0.0003999188795475663 0.0004499999825154443 -7.883675679923
759e-015 4.371138828673785e-008 -0.9999999999999991 17 308 0 420 260 415 256 303
 306 0 0 +17 309 0 296 297 303 301 312 310 0 300 +16 310 71 0 ?309 306 321 311 0
 0 206 30 311 72 0 310 322 307 0 +-0.0007999186500627688 -0.0003999188795475663
 0.0004499999825154444 -1.748455531469489e-007 0.9999999999999838 4.371138828673
856e-008 17 312 0 381 412 368 304 309 310 0 303 -14 313 73 315 1e-008 358 292 31
7 241 314 -0 0 358 292 239 50 314 74 0 313 359 293 0 +-0.00157647976703327 0.000
4000809868597567 0.000400000017484555 7.642741887511865e-015 -4.371138842226316e
-008 0.9999999999999991 1.748455531469489e-007 -0.9999999999999838 -4.3711388422
26383e-008 81 1 315 75 33 313 0 0 360 294 316 83 3 316 0.8980392217636108 0.9176
470637321472 0.929411768913269 15 317 76 0 318 313 0 17 318 0 317 326 354 319 32
3 321 0 331 +18 319 77 0 434 304 324 320 ?206 29 320 78 0 319 325 305 -0.0004999
186675473287 -0.0002999188249083326 0.0003999999868865832 16 321 79 0 ?318 310 3
29 322 0 0 206 30 322 80 0 321 330 311 0 +-0.0004999187899392162 0.0004000811750
916562 0.000400000017484555 1.748455532824742e-007 -0.9999999999999838 -4.371138
842226383e-008 17 323 0 433 438 434 324 318 321 0 441 -18 324 81 0 354 319 327 3
25 ?206 29 325 82 0 324 328 320 -0.0004999187724546607 0.0003000811750916579 0.0
004000000131134161 17 326 0 317 332 318 327 331 329 0 337 -18 327 83 0 326 324 3
33 328 ?206 29 328 84 0 327 334 325 -0.0006799186675473261 -0.000299918856380532
2 0.0003999999868865832 16 329 85 0 ?331 321 335 330 0 0 206 30 330 86 0 329 336
 322 0 +-0.0004999186675473289 -0.0002999188249083326 0.0003999999868865832 0.99
99999999999848 1.748455531469491e-007 0 17 331 0 465 437 466 319 326 329 0 0 +17
 332 0 317 338 326 333 337 335 0 424 -18 333 87 0 332 327 343 334 ?206 29 334 88
 0 333 344 328 -0.0006799186500627708 -0.0003999188563805305 0.00039999998251544
44 16 335 89 0 ?337 329 339 336 0 0 206 30 336 90 0 335 340 330 0 +-0.0006799186
500627708 -0.0003999188563805306 0.0003999999825154443 -1.748455531469489e-007 0
.9999999999999838 4.371138842226383e-008 17 337 0 474 469 424 327 332 335 0 466
 +17 338 0 317 291 332 280 341 339 0 0 -16 339 91 0 ?341 335 345 340 0 0 206 30
 340 92 0 339 346 336 0 +-0.001576479627156827 -0.0003999190131402305 0.00039999
99825154443 0.9999999999999848 1.748455531469491e-007 0 17 341 0 420 421 279 333
 338 339 0 0 +17 342 0 317 348 291 343 347 345 0 353 +18 343 93 0 369 333 349 34
4 ?206 29 344 94 0 343 350 334 -0.0006799187899392131 0.0004000811436194567 0.00
0400000017484555 16 345 95 0 ?342 339 351 346 0 0 206 30 346 96 0 345 352 340 0
 +-0.00157647976703327 0.0004000809868597567 0.000400000017484555 0.999999999999
9848 1.748455531469491e-007 0 17 347 0 362 287 369 283 342 345 0 291 -17 348 0 3
17 354 342 349 353 351 0 452 -18 349 97 0 357 343 364 350 ?206 29 350 98 0 349 3
65 344 -0.0006799187724546578 0.0003000811436194585 0.0004000000131134161 16 351
 99 0 ?353 345 355 352 0 0 206 30 352 100 0 351 356 346 0 +-0.000679918789939213
1 0.0004000811436194568 0.000400000017484555 -1.748455531469489e-007 0.999999999
9999838 4.371138842226383e-008 17 353 0 451 372 452 343 348 351 0 0 +17 354 0 31
7 318 348 324 357 355 0 323 -16 355 101 0 ?357 351 366 356 0 0 206 30 356 102 0
 355 367 352 0 +-0.0004999187724546607 0.0003000811750916579 0.00040000001311341
61 -0.9999999999999848 -1.748455525446145e-007 2.632887904987566e-023 17 357 0 4
60 455 441 349 354 355 0 348 +14 358 103 360 1e-008 377 313 362 241 359 -0 0 377
 313 239 50 359 104 0 358 378 314 0 +-0.001576479767033269 0.0004000809846741873
 0.000450000017484555 1.748455531469489e-007 -0.9999999999999838 -4.371138828673
856e-008 0.9999999999999848 1.748455531469491e-007 0 81 1 360 105 33 358 0 0 379
 315 361 83 3 361 0.8980392217636108 0.9176470637321472 0.929411768913269 15 362
 106 0 363 358 0 17 363 0 362 369 300 364 368 366 0 408 +18 364 107 0 372 349 38
3 365 ?206 29 365 108 0 364 384 350 -0.0006799187899392127 0.0004000811414338874
 0.000450000017484555 16 366 109 0 ?363 355 370 367 0 0 206 30 367 110 0 366 371
 356 0 +-0.001576479767033269 0.0004000809846741873 0.000450000017484555 0.99999
99999999848 1.748455531469491e-007 0 17 368 0 381 312 408 301 363 366 0 0 -17 36
9 0 362 347 363 343 372 370 0 342 -16 370 111 0 ?372 366 374 371 0 0 206 30 371
 112 0 370 375 367 0 +-0.0006799187899392162 0.0004000811611477235 -9.9998251544
48714e-007 7.642741863815873e-015 -4.371138828673789e-008 0.9999999999999991 17
 372 0 451 411 353 364 369 370 0 363 +17 373 0 362 270 226 253 376 374 0 267 -16
 374 113 0 ?376 370 385 375 0 0 206 30 375 114 0 374 386 371 0 +-0.0004999187899
392175 0.0004000811827411492 0.0002250000174845553 7.518510364885244e-015 -4.371
138828673791e-008 0.9999999999999991 17 376 0 446 218 252 214 373 374 0 226 +14
 377 115 379 1e-008 416 358 381 241 378 -0 0 416 358 239 50 378 116 0 377 417 35
9 0 +-0.001576479627156827 -0.0003999190153257999 0.0004499999825154444 -7.64274
1863815873e-015 4.371138828673789e-008 -0.9999999999999991 -1.748455531469489e-0
07 0.9999999999999838 4.371138828673856e-008 81 1 379 117 33 377 0 0 418 360 380
 83 3 380 0.8980392217636108 0.9176470637321472 0.929411768913269 15 381 118 0 3
82 377 0 17 382 0 381 390 412 383 387 385 0 395 -18 383 119 0 382 364 388 384 ?2
06 29 384 120 0 383 389 365 -0.0006799186675473257 -0.0002999188585661016 0.0004
499999868865832 16 385 121 0 ?387 374 393 386 0 0 206 30 386 122 0 385 394 375 0
 +-0.0006799186500627705 -0.0003999188585661 0.0004499999825154444 1.74845553146
9489e-007 -0.9999999999999838 -4.371138828673856e-008 17 387 0 474 424 469 388 3
82 385 0 412 +18 388 123 0 387 383 391 389 ?206 29 389 124 0 388 392 384 -0.0006
799186500627705 -0.0003999188585661 0.0004499999825154444 17 390 0 381 396 382 3
91 395 393 0 401 -18 391 125 0 437 388 397 392 ?206 29 392 126 0 391 398 389 -0.
0004999186675473285 -0.000299918827093902 0.0004499999868865832 16 393 127 0 ?39
5 385 399 394 0 0 206 30 394 128 0 393 400 386 0 +-0.0004999186675473285 -0.0002
99918827093902 0.0004499999868865832 -0.9999999999999848 -1.748455531469491e-007
 0 17 395 0 465 466 437 383 390 393 0 469 +17 396 0 381 402 390 397 401 399 0 0
 +18 397 129 0 407 391 403 398 ?206 29 398 130 0 397 404 392 -0.0004999187724546
604 0.0003000811729060885 0.0004500000131134162 16 399 131 0 ?396 393 405 400 0
 0 206 30 400 132 0 399 406 394 0 +-0.0004999186500627732 -0.0003999188270939004
 0.0004499999825154444 -1.748455530114236e-007 0.9999999999999838 4.371138828673
856e-008 17 401 0 433 434 438 391 396 399 0 0 -17 402 0 381 408 396 403 407 405
 0 411 -18 403 133 0 402 397 0 404 ?206 29 404 134 0 403 0 398 -0.00067991877245
46575 0.000300081141433889 0.0004500000131134162 16 405 135 0 ?407 399 409 406 0
 0 206 30 406 136 0 405 410 400 0 +-0.0004999187724546603 0.0003000811729060885
 0.0004500000131134162 0.9999999999999848 1.748455525446145e-007 -2.632887896824
411e-023 17 407 0 460 441 455 397 402 405 0 438 +17 408 0 381 368 402 364 411 40
9 0 0 -16 409 137 0 ?411 405 413 410 0 0 206 30 410 138 0 409 414 406 0 +-0.0006
799187899392127 0.0004000811414338874 0.000450000017484555 1.748455531469489e-00
7 -0.9999999999999838 -4.371138828673856e-008 17 411 0 451 452 372 403 408 409 0
 455 +17 412 0 381 382 312 388 415 413 0 421 +16 413 139 0 ?412 409 422 414 0 0
 206 30 414 140 0 413 423 410 0 +-0.001576479627156827 -0.0003999190153257999 0.
0004499999825154444 0.9999999999999848 1.748455531469491e-007 0 17 415 0 420 308
 421 304 412 413 0 0 -14 416 141 418 1e-008 429 377 420 241 417 -0 0 429 377 239
 50 417 142 0 416 430 378 0 +-0.001576479627156827 -0.0003999190131402305 0.0003
999999825154443 -1.748455531469489e-007 0.9999999999999838 4.371138937094073e-00
8 7.642742053383801e-015 -4.371138937094006e-008 0.9999999999999991 81 1 418 143
 33 416 0 0 431 379 419 83 3 419 0.8980392217636108 0.9176470637321472 0.9294117
68913269 15 420 144 0 341 416 0 17 421 0 420 415 341 388 424 422 0 0 +16 422 145
 0 ?421 413 426 423 0 0 206 30 423 146 0 422 427 414 0 +-0.000679918650062774 -0
.0003999188388522639 -1.000017484555501e-006 7.642741863815873e-015 -4.371138828
673789e-008 0.9999999999999991 17 424 0 474 337 387 333 421 422 0 341 -17 425 0
 420 236 260 219 428 426 0 233 -16 426 147 0 ?428 422 435 427 0 0 206 30 427 148
 0 426 436 423 0 +-0.0004999186500627749 -0.0003999188172588378 0.00022499998251
54447 -7.518510175317316e-015 4.371138720253574e-008 -0.9999999999999991 17 428
 0 446 252 218 248 425 426 0 247 +14 429 149 431 1e-008 442 416 433 241 430 -0 0
 442 416 239 50 430 150 0 429 443 417 0 +-0.0004999186500627732 -0.0003999188270
939005 0.0004499999825154444 -0.9999999999999848 -1.748455530114237e-007 -2.1684
04339047004e-015 -5.474337518844903e-015 4.371138828673827e-008 -0.9999999999999
991 81 1 431 151 33 429 0 0 444 418 432 83 3 432 0.8980392217636108 0.9176470637
321472 0.929411768913269 15 433 152 0 401 429 0 17 434 0 433 323 401 319 437 435
 0 318 -16 435 153 0 ?437 426 439 436 0 0 206 30 436 154 0 435 440 427 0 +-0.000
499918667547332 -0.0002999188073800659 -1.000013113416672e-006 7.642741863815873
e-015 -4.371138828673789e-008 0.9999999999999991 17 437 0 465 395 331 391 434 43
5 0 390 +17 438 0 433 401 323 397 441 439 0 396 +16 439 155 0 ?438 435 453 440 0
 0 206 30 440 156 0 439 454 436 0 +-0.0004999187724546636 0.0003000811926199246
 -9.999868865837002e-007 7.642741863815873e-015 -4.371138828673789e-008 0.999999
9999999991 17 441 0 460 357 407 324 438 439 0 0 -14 442 157 444 1e-008 447 429 4
46 241 443 +0 0 447 429 239 50 443 158 0 442 448 430 0 +-0.0004999187200009978 8
.119148343326017e-008 2.500000000000006e-005 0.9999999999999848 1.74845553146949
1e-007 1.242314989306306e-016 7.518510364885244e-015 -4.371138828673791e-008 0.9
999999999999991 81 1 444 159 33 442 0 0 449 431 445 83 3 445 0.8980392217636108
 0.9176470637321472 0.929411768913269 15 446 160 0 428 442 0 14 447 161 449 1e-0
08 456 442 451 241 448 -0 0 456 442 239 50 448 162 0 447 457 443 0 +-0.000679918
7899392162 0.0004000811611477235 -9.999825154448714e-007 -0.9999999999999848 -1.
748455531469491e-007 0 1.748455531469489e-007 -0.9999999999999838 -4.37113882867
3856e-008 81 1 449 163 33 447 0 0 458 444 450 83 3 450 0.8980392217636108 0.9176
470637321472 0.929411768913269 15 451 164 0 353 447 0 17 452 0 451 353 411 349 4
55 453 0 0 -16 453 165 0 ?455 439 467 454 0 0 206 30 454 166 0 453 468 440 0 +-0
.000679918772454661 0.0003000811611477252 -9.999868865837002e-007 7.642741863815
873e-015 -4.371138828673789e-008 0.9999999999999991 17 455 0 460 407 357 403 452
 453 0 0 +14 456 167 458 1e-008 461 447 460 241 457 -0 0 461 447 239 50 457 168
 0 456 462 448 0 +-0.0004999187724546636 0.0003000811926199246 -9.99986886583700
2e-007 1.748455525446144e-007 -0.9999999999999838 -4.371138828673856e-008 0.9999
999999999848 1.748455525446145e-007 -2.632887896824411e-023 81 1 458 169 33 456
 0 0 463 449 459 83 3 459 0.8980392217636108 0.9176470637321472 0.92941176891326
9 15 460 170 0 357 456 0 14 461 171 463 1e-008 470 456 465 241 462 -0 0 470 456
 239 50 462 172 0 461 471 457 0 +-0.000499918667547332 -0.0002999188073800659 -1
.000013113416672e-006 -1.748455531469489e-007 0.9999999999999838 4.3711388286738
56e-008 -0.9999999999999848 -1.748455531469491e-007 0 81 1 463 173 33 461 0 0 47
2 458 464 83 3 464 0.8980392217636108 0.9176470637321472 0.929411768913269 15 46
5 174 0 331 461 0 17 466 0 465 331 395 327 469 467 0 0 -16 467 175 0 ?469 453 0
 468 0 0 206 30 468 176 0 467 0 454 0 +-0.0006799186675473292 -0.000299918838852
2655 -1.000013113416672e-006 7.642741863815873e-015 -4.371138828673789e-008 0.99
99999999999991 17 469 0 474 387 337 383 466 467 0 0 +14 470 177 472 1e-008 0 461
 474 241 471 -0 0 0 461 239 50 471 178 0 470 0 462 0 +-0.000679918650062774 -0.0
003999188388522639 -1.000017484555501e-006 -0.9999999999999848 -1.74845553146949
1e-007 0 1.748455531469489e-007 -0.9999999999999838 -4.371138828673856e-008 81 1
 472 179 33 470 0 0 0 463 473 83 3 473 0.8980392217636108 0.9176470637321472 0.9
29411768913269 15 474 180 0 337 470 0 12 475 180 0 476 0 0 0 0 1000 1e-008 0 0 0
 1 0 1 1 510 480 486 484 507 485 483 70 476 0 475 0 0 4 1 20 0 477 477 1 T74 20
 477 1 0 478 0 0 0 0 0 0 0 0 0 0 0 0 0 0 0 0 0 0 0 81 1 478 7 33 479 0 0 513 0 5
06 14 479 5 478 1e-008 511 0 481 510 480 -0 0 511 0 508 50 480 6 0 479 512 0 0 +
0.0007500812100607622 0.0004000814089475839 5.000001748455514e-005 -7.7669733390
5051e-015 4.37113881512126e-008 -0.9999999999999991 -1.748455534360695e-007 0.99
99999999999838 4.371138815121329e-008 15 481 8 0 482 479 0 17 482 0 481 490 502
 483 487 485 0 495 +18 483 9 0 482 0 488 484 ?475 29 484 10 0 483 489 0 0.000500
0813499372084 -0.0003999186347637917 4.999998251544464e-005 16 485 11 0 ?482 0 4
93 486 0 0 475 30 486 12 0 485 494 0 0 +0.0005000812100607658 0.0004000813652361
956 5.000001748455517e-005 1.748455534360695e-007 -0.9999999999999838 -4.3711388
15121329e-008 17 487 0 715 645 697 488 482 485 0 502 -18 488 13 0 487 483 491 48
9 ?475 29 489 14 0 488 492 484 0.0005000812100607658 0.0004000813652361955 5.000
001748455559e-005 17 490 0 481 496 482 491 495 493 0 550 -18 491 15 0 501 488 49
7 492 ?475 29 492 16 0 491 498 489 0.0007500813499372045 -0.0003999185910524034
 4.999998251544489e-005 16 493 17 0 ?495 485 499 494 0 0 475 30 494 18 0 493 500
 486 0 +0.0007500813499372045 -0.0003999185910524034 4.999998251544489e-005 -0.9
999999999999848 -1.748455534360697e-007 1.242314862927687e-016 17 495 0 689 694
 550 483 490 493 0 697 +17 496 0 481 502 490 497 501 499 0 557 +18 497 19 0 496
 491 517 498 ?475 29 498 20 0 497 518 492 0.000750081210060762 0.000400081408947
5838 5.000001748455546e-005 16 499 21 0 ?496 493 503 500 0 0 475 30 500 22 0 499
 504 494 0 +0.0007500812100607621 0.0004000814089475839 5.000001748455514e-005 -
1.748455533005442e-007 0.9999999999999838 4.371138815121329e-008 17 501 0 544 54
5 557 491 496 499 0 490 -17 502 0 481 482 496 488 505 503 0 642 +16 503 23 0 ?50
2 499 519 504 0 0 475 30 504 24 0 503 520 500 0 +0.000750081210060762 0.00040008
14089475838 5.000001748455546e-005 -0.9999999999999848 -1.748455534360697e-007 1
.242314862927687e-016 17 505 0 631 560 642 497 502 503 0 0 -83 3 506 0.898039221
7636108 0.9176470637321472 0.929411768913269 19 507 1 0 475 509 0 508 V13 508 2
 0 475 0 0 0 0 507 479 19 509 3 0 475 0 507 510 S13 510 4 0 475 0 479 0 0 509 0
 14 511 25 513 1e-008 540 479 515 510 512 -0 0 540 479 508 50 512 26 0 511 541 4
80 0 +0.0008000813499372036 -0.0003999185801245564 -1.748455547732574e-011 7.766
973362746502e-015 -4.371138828673787e-008 0.9999999999999991 0.9999999999999848
 1.748455534360697e-007 -1.242314862927687e-016 81 1 513 27 33 511 0 0 542 478 5
14 83 3 514 0.8980392217636108 0.9176470637321472 0.929411768913269 15 515 28 0
 516 511 0 17 516 0 515 524 536 517 521 519 0 645 +18 517 29 0 529 497 522 518 ?
475 29 518 30 0 517 523 498 0.0005000812100607654 0.0004000813674217647 1.748455
518933456e-011 16 519 31 0 ?516 503 527 520 0 0 475 30 520 32 0 519 528 504 0 +0
.0005000813499372081 -0.0003999186325782224 -1.74845554400563e-011 -1.7484555343
60695e-007 0.9999999999999838 4.371138828673856e-008 17 521 0 715 697 645 522 51
6 519 0 536 -18 522 33 0 521 517 525 523 ?475 29 523 34 0 522 526 518 0.00050008
13499372081 -0.0003999186325782224 -1.748455541295124e-011 17 524 0 515 530 516
 525 529 527 0 0 -18 525 35 0 535 522 531 526 ?475 29 526 36 0 525 532 523 0.000
800081210060761 0.0004000814198754309 1.748455515206511e-011 16 527 37 0 ?529 51
9 533 528 0 0 475 30 528 38 0 527 534 520 0 +0.000800081210060761 0.000400081419
8754309 1.748455515206511e-011 -0.9999999999999848 -1.748455534360697e-007 1.242
314862927687e-016 17 529 0 631 642 571 517 524 527 0 516 +17 530 0 515 536 524 5
31 535 533 0 578 +18 531 39 0 530 525 546 532 ?475 29 532 40 0 531 547 526 0.000
8000813499372038 -0.0003999185801245563 -1.748455545022069e-011 16 533 41 0 ?530
 527 537 534 0 0 475 30 534 42 0 533 538 528 0 +0.0008000813499372036 -0.0003999
185801245564 -1.748455547732574e-011 1.748455534360695e-007 -0.9999999999999838
 -4.371138828673856e-008 17 535 0 565 566 578 525 530 533 0 571 -17 536 0 515 51
6 530 522 539 537 0 694 +16 537 43 0 ?536 533 548 538 0 0 475 30 538 44 0 537 54
9 534 0 +0.0008000813499372038 -0.0003999185801245563 -1.748455545022069e-011 -0
.9999999999999848 -1.748455534360697e-007 1.242314862927687e-016 17 539 0 689 58
1 694 531 536 537 0 0 -14 540 45 542 1e-008 561 511 544 510 541 +0 0 561 511 508
 50 541 46 0 540 562 512 0 +0.0007500812100607648 0.000400081393648598 0.0004000
00017484555 -0.9999999999999848 -1.748455533005444e-007 -2.409338228217538e-016
 7.401808047707987e-015 -4.371138828673793e-008 0.9999999999999991 81 1 542 47 3
3 540 0 0 563 513 543 83 3 543 0.8980392217636108 0.9176470637321472 0.929411768
913269 15 544 48 0 545 540 0 17 545 0 544 551 501 546 550 548 0 592 -18 546 49 0
 556 531 552 547 ?475 29 547 50 0 546 553 532 0.0007500813499372072 -0.000399918
6063513893 0.0003999999825154444 16 548 51 0 ?550 537 554 549 0 0 475 30 549 52
 0 548 555 538 0 +0.0007500813499372072 -0.0003999186063513893 0.000399999982515
4444 -7.401808047707987e-015 4.371138828673793e-008 -0.9999999999999991 17 550 0
 689 495 592 491 545 548 0 0 +17 551 0 544 557 545 552 556 554 0 560 -18 552 53
 0 551 546 567 553 ?475 29 553 54 0 552 568 547 0.0007500812100607648 0.00040008
13936485979 0.0004000000174845551 16 554 55 0 ?556 548 558 555 0 0 475 30 555 56
 0 554 559 549 0 +0.0007500812100607648 0.000400081393648598 0.00040000001748455
5 1.748455533005442e-007 -0.9999999999999838 -4.371138842226383e-008 17 556 0 58
6 587 623 546 551 554 0 545 +17 557 0 544 501 551 497 560 558 0 505 +16 558 57 0
 ?557 554 569 559 0 0 475 30 559 58 0 558 570 555 0 +0.0007500812100607648 0.000
4000813936485979 0.0004000000174845551 -7.401808047707987e-015 4.371138828673793
e-008 -0.9999999999999991 17 560 0 631 626 505 552 557 558 0 623 -14 561 59 563
 1e-008 582 540 565 510 562 +0 0 582 540 508 50 562 60 0 561 583 541 0 +0.000800
0813499372069 -0.0003999185997946811 0.0004499999825154444 0.9999999999999848 1.
748455534360697e-007 2.409338287457516e-016 -7.401808047707987e-015 4.3711388286
73793e-008 -0.9999999999999991 81 1 563 61 33 561 0 0 584 542 564 83 3 564 0.898
0392217636108 0.9176470637321472 0.929411768913269 15 565 62 0 566 561 0 17 566
 0 565 572 535 567 571 569 0 638 -18 567 63 0 577 552 573 568 ?475 29 568 64 0 5
67 574 553 0.0008000812100607644 0.0004000814002053061 0.000450000017484555 16 5
69 65 0 ?571 558 575 570 0 0 475 30 570 66 0 569 576 559 0 +0.000800081210060764
4 0.0004000814002053061 0.000450000017484555 -7.401808047707987e-015 4.371138828
673793e-008 -0.9999999999999991 17 571 0 631 529 638 525 566 569 0 524 +17 572 0
 565 578 566 573 577 575 0 665 -18 573 67 0 581 567 588 574 ?475 29 574 68 0 573
 589 568 0.0008000813499372069 -0.0003999185997946811 0.0004499999825154443 16 5
75 69 0 ?577 569 579 576 0 0 475 30 576 70 0 575 580 570 0 +0.000800081349937206
9 -0.0003999185997946811 0.0004499999825154444 -1.748455534360695e-007 0.9999999
999999838 4.371138828673856e-008 17 577 0 650 641 665 567 572 575 0 566 +17 578
 0 565 535 572 531 581 579 0 539 +16 579 71 0 ?578 575 590 580 0 0 475 30 580 72
 0 579 591 576 0 +0.0008000813499372069 -0.0003999185997946811 0.000449999982515
4443 -7.401808047707987e-015 4.371138828673793e-008 -0.9999999999999991 17 581 0
 689 668 539 573 578 579 0 572 -14 582 73 584 1e-008 627 561 586 510 583 -0 0 62
7 561 508 50 583 74 0 582 628 562 0 +0.001576642187154822 0.0004000815381691094
 0.000400000017484555 7.642741887511865e-015 -4.371138842226316e-008 0.999999999
9999991 1.748455534360695e-007 -0.9999999999999838 -4.371138842226383e-008 81 1
 584 75 33 582 0 0 629 563 585 83 3 585 0.8980392217636108 0.9176470637321472 0.
929411768913269 15 586 76 0 587 582 0 17 587 0 586 593 556 588 592 590 0 598 +18
 588 77 0 587 573 594 589 ?475 29 589 78 0 588 595 574 0.0006800813499372084 -0.
0003999186185905781 0.0003999999825154443 16 590 79 0 ?587 579 596 591 0 0 475 3
0 591 80 0 590 597 580 0 +0.001576642327031265 -0.0003999184618308778 0.00039999
99825154443 -0.9999999999999848 -1.748455534360697e-007 -1.263786190475717e-023
 17 592 0 689 550 690 546 587 590 0 0 -17 593 0 586 599 587 594 598 596 0 735 -1
8 594 81 0 604 588 600 595 ?475 29 595 82 0 594 601 589 0.0006800813324526531 -0
.0002999186185905799 0.0003999999868865832 16 596 83 0 ?598 590 602 597 0 0 475
 30 597 84 0 596 603 591 0 +0.0006800813499372084 -0.0003999186185905783 0.00039
99999825154443 1.748455531469489e-007 -0.9999999999999838 -4.371138842226383e-00
8 17 598 0 734 693 735 588 593 596 0 690 +17 599 0 586 605 593 600 604 602 0 610
 -18 600 85 0 599 594 606 601 ?475 29 601 86 0 600 607 595 0.0005000813324526558
 -0.0002999186500627795 0.0003999999868865832 16 602 87 0 ?604 596 608 603 0 0 4
75 30 603 88 0 602 609 597 0 +0.0005000813324526558 -0.0002999186500627795 0.000
3999999868865832 0.9999999999999848 1.748455531469491e-007 -3.918314502740955e-0
32 17 604 0 743 738 706 594 599 602 0 593 +17 605 0 586 611 599 606 610 608 0 70
7 -18 606 89 0 616 600 612 607 ?475 29 607 90 0 606 613 601 0.000500081227545323
7 0.0003000813499372106 0.0004000000131134161 16 608 91 0 ?610 602 614 609 0 0 4
75 30 609 92 0 608 615 603 0 +0.0005000812100607685 0.0004000813499372096 0.0004
00000017484555 1.748455533005442e-007 -0.9999999999999838 -4.371138842226383e-00
8 17 610 0 702 703 707 600 605 608 0 706 +17 611 0 586 617 605 612 616 614 0 622
 -18 612 93 0 611 606 618 613 ?475 29 613 94 0 612 619 607 0.0006800812275453212
 0.00030008138140941 0.0004000000131134161 16 614 95 0 ?616 608 620 615 0 0 475
 30 615 96 0 614 621 609 0 +0.0005000812275453239 0.0003000813499372106 0.000400
0000131134161 -0.9999999999999848 -1.748455525446145e-007 2.63288790890588e-023
 17 616 0 720 710 721 606 611 614 0 605 +17 617 0 586 623 611 618 622 620 0 626
 -18 618 97 0 617 612 633 619 ?475 29 619 98 0 618 634 613 0.0006800812100607662
 0.0004000813814094083 0.0004000000174845551 16 620 99 0 ?622 614 624 621 0 0 47
5 30 621 100 0 620 625 615 0 +0.0006800812100607662 0.0004000813814094083 0.0004
00000017484555 1.748455488101402e-007 -0.9999999999999838 -4.371138842226383e-00
8 17 622 0 729 724 637 612 617 620 0 721 +17 623 0 586 556 617 552 626 624 0 0 -
16 624 101 0 ?626 620 635 625 0 0 475 30 625 102 0 624 636 621 0 +0.001576642187
154822 0.0004000815381691094 0.000400000017484555 -0.9999999999999848 -1.7484555
34360697e-007 -1.263786190475717e-023 17 626 0 631 632 560 618 623 624 0 637 +14
 627 103 629 1e-008 646 582 631 510 628 -0 0 646 582 508 50 628 104 0 627 647 58
3 0 +0.001576642187154822 0.00040008153598354 0.000450000017484555 1.74845553436
0695e-007 -0.9999999999999838 -4.371138828673856e-008 -0.9999999999999848 -1.748
455534360697e-007 -1.263786190475717e-023 81 1 629 105 33 627 0 0 648 584 630 83
 3 630 0.8980392217636108 0.9176470637321472 0.929411768913269 15 631 106 0 626
 627 0 17 632 0 631 638 626 633 637 635 0 0 +18 633 107 0 674 618 652 634 ?475 2
9 634 108 0 633 653 619 0.0006800812100607667 0.0004000813792238389 0.0004500000
17484555 16 635 109 0 ?632 624 639 636 0 0 475 30 636 110 0 635 640 625 0 +0.000
6800812100607632 0.000400081398937675 -9.999825154448714e-007 7.642741863815873e
-015 -4.371138828673789e-008 0.9999999999999991 17 637 0 729 622 674 618 632 635
 0 0 -17 638 0 631 571 632 567 641 639 0 0 -16 639 111 0 ?641 635 643 640 0 0 47
5 30 640 112 0 639 644 636 0 +0.001576642187154822 0.00040008153598354 0.0004500
00017484555 -0.9999999999999848 -1.748455534360697e-007 -1.263786190475717e-023
 17 641 0 650 669 577 633 638 639 0 632 +17 642 0 631 505 529 488 645 643 0 0 +1
6 643 113 0 ?642 639 654 644 0 0 475 30 644 114 0 643 655 640 0 +0.0005000812100
607672 0.0004000813575867025 0.0002250000174845553 7.766973362746502e-015 -4.371
138828673787e-008 0.9999999999999991 17 645 0 715 521 487 517 642 643 0 0 -14 64
6 115 648 1e-008 685 627 650 510 647 -0 0 685 627 508 50 647 116 0 646 686 628 0
 +0.001576642327031265 -0.0003999184640164473 0.0004499999825154444 -7.642741863
815873e-015 4.371138828673789e-008 -0.9999999999999991 -1.748455534360695e-007 0
.9999999999999838 4.371138828673856e-008 81 1 648 117 33 646 0 0 687 629 649 83
 3 649 0.8980392217636108 0.9176470637321472 0.929411768913269 15 650 118 0 651
 646 0 17 651 0 650 659 681 652 656 654 0 664 -18 652 119 0 651 633 657 653 ?475
 29 653 120 0 652 658 634 0.0006800813324526534 -0.0002999186207761493 0.0004499
999868865832 16 654 121 0 ?656 643 662 655 0 0 475 30 655 122 0 654 663 644 0 +0
.0005000813324526562 -0.0002999186522483489 0.0004499999868865832 -0.99999999999
99848 -1.748455531469491e-007 0 17 656 0 743 706 738 657 651 654 0 703 +18 657 1
23 0 656 652 660 658 ?475 29 658 124 0 657 661 653 0.0005000813324526562 -0.0002
999186522483489 0.0004499999868865832 17 659 0 650 665 651 660 664 662 0 668 -18
 660 125 0 659 657 670 661 ?475 29 661 126 0 660 671 658 0.0006800813499372087 -
0.0003999186207761477 0.0004499999825154444 16 662 127 0 ?664 654 666 663 0 0 47
5 30 663 128 0 662 667 655 0 +0.0006800813499372087 -0.0003999186207761477 0.000
4499999825154444 -1.748455531469489e-007 0.9999999999999838 4.371138828673856e-0
08 17 664 0 734 735 693 652 659 662 0 738 +17 665 0 650 577 659 573 668 666 0 0
 -16 666 129 0 ?668 662 672 667 0 0 475 30 667 130 0 666 673 663 0 +0.0015766423
27031265 -0.0003999184640164473 0.0004499999825154444 -0.9999999999999848 -1.748
455534360697e-007 -1.263786190475717e-023 17 668 0 689 690 581 660 665 666 0 693
 +17 669 0 650 675 641 670 674 672 0 680 -18 670 131 0 669 660 676 671 ?475 29 6
71 132 0 670 677 661 0.0006800812275453215 0.0003000813792238406 0.0004500000131
134162 16 672 133 0 ?674 666 678 673 0 0 475 30 673 134 0 672 679 667 0 +0.00068
00812100607667 0.0004000813792238389 0.000450000017484555 -1.748455488101402e-00
7 0.9999999999999838 4.371138828673856e-008 17 674 0 729 637 724 633 669 672 0 6
41 +17 675 0 650 681 669 676 680 678 0 684 -18 676 135 0 675 670 0 677 ?475 29 6
77 136 0 676 0 671 0.0005000812275453243 0.0003000813477516411 0.000450000013113
4162 16 678 137 0 ?680 672 682 679 0 0 475 30 679 138 0 678 683 673 0 +0.0005000
812275453243 0.0003000813477516411 0.0004500000131134162 0.9999999999999848 1.74
8455525446145e-007 -2.632887896824411e-023 17 680 0 720 721 710 670 675 678 0 72
4 +17 681 0 650 651 675 657 684 682 0 0 -16 682 139 0 ?684 678 691 683 0 0 475 3
0 683 140 0 682 692 679 0 +0.0005000813499372116 -0.0003999186522483472 0.000449
9999825154444 -1.748455535715948e-007 0.9999999999999838 4.371138828673856e-008
 17 684 0 702 707 703 676 681 682 0 710 +14 685 141 687 1e-008 698 646 689 510 6
86 -0 0 698 646 508 50 686 142 0 685 699 647 0 +0.001576642327031265 -0.00039991
84618308778 0.0003999999825154443 -1.748455534360695e-007 0.9999999999999838 4.3
71138937094073e-008 7.642742053383801e-015 -4.371138937094006e-008 0.99999999999
99991 81 1 687 143 33 685 0 0 700 648 688 83 3 688 0.8980392217636108 0.91764706
37321472 0.929411768913269 15 689 144 0 668 685 0 17 690 0 689 592 668 588 693 6
91 0 0 -16 691 145 0 ?693 682 695 692 0 0 475 30 692 146 0 691 696 683 0 +0.0006
800813499372052 -0.0003999186010623116 -1.000017484555501e-006 7.642741863815873
e-015 -4.371138828673789e-008 0.9999999999999991 17 693 0 734 664 598 660 690 69
1 0 0 +17 694 0 689 539 495 522 697 695 0 0 +16 695 147 0 ?694 691 704 696 0 0 4
75 30 696 148 0 695 705 692 0 +0.0005000813499372097 -0.0003999186424132844 0.00
02249999825154447 -7.766973173178573e-015 4.37113872025357e-008 -0.9999999999999
991 17 697 0 715 487 521 483 694 695 0 0 -14 698 149 700 1e-008 711 685 702 510
 699 -0 0 711 685 508 50 699 150 0 698 712 686 0 +0.0005000813499372116 -0.00039
99186522483472 0.0004499999825154444 0.9999999999999848 1.74845553571595e-007 -2
.168404326409142e-015 -9.811146208786844e-015 4.371138828673751e-008 -0.99999999
99999991 81 1 700 151 33 698 0 0 713 687 701 83 3 701 0.8980392217636108 0.91764
70637321472 0.929411768913269 15 702 152 0 610 698 0 17 703 0 702 684 610 657 70
6 704 0 681 +16 704 153 0 ?703 695 708 705 0 0 475 30 705 154 0 704 709 696 0 +0
.0005000813324526527 -0.0002999186325345128 -1.000013113416672e-006 7.6427418638
15873e-015 -4.371138828673789e-008 0.9999999999999991 17 706 0 743 604 656 600 7
03 704 0 0 -17 707 0 702 610 684 606 710 708 0 0 -16 708 155 0 ?710 704 722 709
 0 0 475 30 709 156 0 708 723 705 0 +0.0005000812275453208 0.0003000813674654773
 -9.999868865837002e-007 7.642741863815873e-015 -4.371138828673789e-008 0.999999
9999999991 17 710 0 720 680 616 676 707 708 0 0 +14 711 157 713 1e-008 716 698 7
15 510 712 +0 0 716 698 508 50 712 158 0 711 717 699 0 +0.0005000812799989869 8.
136632898655168e-008 2.500000000000006e-005 -0.9999999999999848 -1.7484555343606
97e-007 1.242314862927687e-016 7.766973362746502e-015 -4.371138828673787e-008 0.
9999999999999991 81 1 713 159 33 711 0 0 718 700 714 83 3 714 0.8980392217636108
 0.9176470637321472 0.929411768913269 15 715 160 0 697 711 0 14 716 161 718 1e-0
08 725 711 720 510 717 -0 0 725 711 508 50 717 162 0 716 726 712 0 +0.0005000812
275453208 0.0003000813674654773 -9.999868865837002e-007 1.748455525446144e-007 -
0.9999999999999838 -4.371138828673856e-008 0.9999999999999848 1.748455525446145e
-007 -2.632887896824411e-023 81 1 718 163 33 716 0 0 727 713 719 83 3 719 0.8980
392217636108 0.9176470637321472 0.929411768913269 15 720 164 0 616 716 0 17 721
 0 720 616 680 612 724 722 0 0 -16 722 165 0 ?724 708 736 723 0 0 475 30 723 166
 0 722 737 709 0 +0.0006800812275453181 0.0003000813989376767 -9.999868865837002
e-007 7.642741863815873e-015 -4.371138828673789e-008 0.9999999999999991 17 724 0
 729 674 622 670 721 722 0 0 +14 725 167 727 1e-008 730 716 729 510 726 -0 0 730
 716 508 50 726 168 0 725 731 717 0 +0.0006800812100607632 0.000400081398937675
 -9.999825154448714e-007 0.9999999999999848 1.748455488101404e-007 -1.8956792857
13576e-022 -1.748455488101402e-007 0.9999999999999838 4.371138828673856e-008 81
 1 727 169 33 725 0 0 732 718 728 83 3 728 0.8980392217636108 0.9176470637321472
 0.929411768913269 15 729 170 0 622 725 0 14 730 171 732 1e-008 739 725 734 510
 731 -0 0 739 725 508 50 731 172 0 730 740 726 0 +0.0006800813499372053 -0.00039
99186010623116 -1.000017484555501e-006 0.9999999999999848 1.748455531469491e-007
 0 -1.748455531469489e-007 0.9999999999999838 4.371138828673856e-008 81 1 732 17
3 33 730 0 0 741 727 733 83 3 733 0.8980392217636108 0.9176470637321472 0.929411
768913269 15 734 174 0 598 730 0 17 735 0 734 598 664 594 738 736 0 0 -16 736 17
5 0 ?738 722 0 737 0 0 475 30 737 176 0 736 0 723 0 +0.00068008133245265 -0.0002
999186010623132 -1.000013113416672e-006 7.642741863815873e-015 -4.37113882867378
9e-008 0.9999999999999991 17 738 0 743 656 604 652 735 736 0 0 +14 739 177 741 1
e-008 0 730 743 510 740 -0 0 0 730 508 50 740 178 0 739 0 731 0 +0.0005000813324
526527 -0.0002999186325345128 -1.000013113416672e-006 -1.748455531469489e-007 0.
9999999999999838 4.371138828673856e-008 -0.9999999999999848 -1.748455531469491e-
007 0 81 1 741 179 33 739 0 0 0 732 742 83 3 742 0.8980392217636108 0.9176470637
321472 0.929411768913269 15 743 180 0 604 739 0 1 0 
