**ABCDEFGHIJKLMNOPQRSTUVWXYZabcdefghijklmnopqrstuvwxyz**************************
**PARASOLID !"#$%&'()*+,-./:;<=>?@[\]^_`{|}~0123456789**************************
**PART1;
MC=AMD64;
MC_MODEL=Intel64 Family 6 Model 158 Stepping 10, GenuineIntel;
MC_ID=unknown;
OS=Windows_NT;
OS_RELEASE=unknown;
FRU=CAD Exchanger 3.6.1 (cadexchanger.com);
APPL=unknown;
SITE=unknown;
USER=unknown;
FORMAT=text;
GUISE=transmit;
KEY=RESC0402(1005)_L_CMP-009-00157-2;
FILE=RESC0402(1005)_L_CMP-009-00157-2.x_t;
DATE=Mon Jun 08 09:31:52 2020;
**PART2;
SCH=SCH_1200000_12006;
USFLD_SIZE=0;
**PART3;
**END_OF_HEADER*****************************************************************
T51 : TRANSMIT FILE created by modeller version 120000017 SCH_1200000_120060 12
 1 440 0 2 0 0 0 0 1000 1e-008 0 0 0 1 0 1 1 38 6 12 10 35 11 9 70 2 0 1 0 0 4 1
 20 0 3 3 1 T74 20 3 1 0 4 0 0 0 0 0 0 0 0 0 0 0 0 0 0 0 0 0 0 0 81 1 4 7 32 5 0
 0 41 0 34 14 5 5 4 1e-008 39 0 7 38 6 +0 0 39 0 36 50 6 6 0 5 40 0 0 +-0.000299
9999562886072 -0.0002499187724546677 0.00028 0.9999999999999848 1.74845553146949
1e-007 0 0 0 -1 15 7 8 0 8 5 0 17 8 0 7 16 28 9 13 11 0 21 +18 9 9 0 8 0 14 10 ?
1 29 10 10 0 9 15 0 -0.000299999957162835 -0.0002449187724546678 0.00028 16 11 1
1 0 ?8 0 19 12 0 0 1 30 12 12 0 11 20 0 0 +-0.000299999957162835 -0.000244918772
4546678 0.00024 0 0 1 17 13 0 583 268 584 14 8 11 0 28 -18 14 13 0 13 9 17 15 ?1
 29 15 14 0 14 18 10 -0.000299999957162835 -0.0002449187724546678 0.00024 17 16
 0 7 22 8 17 21 19 0 27 -18 17 15 0 16 14 23 18 ?1 29 18 16 0 17 24 15 -0.000299
9999562886072 -0.0002499187724546677 0.00028 16 19 17 0 ?21 11 25 20 0 0 1 30 20
 18 0 19 26 12 0 +-0.0002999999562886072 -0.0002499187724546677 0.00028 -1.74845
5531469491e-007 0.9999999999999848 0 17 21 0 385 386 394 9 16 19 0 584 +17 22 0
 7 28 16 23 27 25 0 31 +18 23 19 0 22 17 45 24 ?1 29 24 20 0 23 46 18 -0.0002999
999562886072 -0.0002499187724546677 0.00024 16 25 21 0 ?22 19 29 26 0 0 1 30 26
 22 0 25 30 20 0 +-0.0002999999562886072 -0.0002499187724546677 0.00028 0 0 -1 1
7 27 0 402 397 274 17 22 25 0 394 -17 28 0 7 8 22 14 31 29 0 265 +16 29 23 0 ?28
 25 47 30 0 0 1 30 30 24 0 29 48 26 0 +-0.0002999999562886072 -0.000249918772454
6677 0.00024 -1.748455531469491e-007 0.9999999999999848 0 17 31 0 254 269 265 23
 28 29 0 274 -80 1 32 0 33 8001 0 0 0 0 3 5 0 0 FFFFTFTFFFFFFF2 79 15 33 SDL/TYS
A_COLOUR83 3 34 0.7529411911964417 0.7529411911964417 0.7529411911964417 19 35 1
 0 1 37 0 36 V13 36 2 0 1 0 0 0 0 35 5 19 37 3 0 1 0 35 38 S13 38 4 0 1 0 5 0 0
 37 0 14 39 25 41 1e-008 68 5 43 38 40 +0 0 68 5 36 50 40 26 0 39 69 6 0 +0.0003
000000437113838 -0.0002499186675473358 0.00028 -0.9999999999999848 -1.7484555314
69491e-007 0 0 0 1 81 1 41 27 32 39 0 0 70 4 42 83 3 42 0.7529411911964417 0.752
9411911964417 0.7529411911964417 15 43 28 0 44 39 0 17 44 0 43 52 64 45 49 47 0
 268 -18 45 29 0 57 23 50 46 ?1 29 46 30 0 45 51 24 0.0003000000428371561 -0.000
244918667547336 0.00024 16 47 31 0 ?49 29 55 48 0 0 1 30 48 32 0 47 56 30 0 +0.0
00300000042837156 -0.000244918667547336 0.00024 0 0 1 17 49 0 583 584 268 50 44
 47 0 614 +18 50 33 0 561 45 53 51 ?1 29 51 34 0 50 54 46 0.0003000000428371561
 -0.000244918667547336 0.00028 17 52 0 43 58 44 53 57 55 0 63 -18 53 35 0 52 50
 59 54 ?1 29 54 36 0 53 60 51 0.0003000000437113838 -0.0002499186675473358 0.000
24 16 55 37 0 ?57 47 61 56 0 0 1 30 56 38 0 55 62 48 0 +0.0003000000437113838 -0
.0002499186675473358 0.00024 -1.748455531469491e-007 0.9999999999999848 0 17 57
 0 254 265 261 45 52 55 0 44 +17 58 0 43 64 52 59 63 61 0 568 +18 59 39 0 58 53
 74 60 ?1 29 60 40 0 59 75 54 0.0003000000437113838 -0.0002499186675473358 0.000
28 16 61 41 0 ?58 55 65 62 0 0 1 30 62 42 0 61 66 56 0 +0.0003000000437113838 -0
.0002499186675473358 0.00028 0 0 1 17 63 0 573 264 568 53 58 61 0 261 -17 64 0 4
3 44 58 50 67 65 0 587 +16 65 43 0 ?64 61 76 66 0 0 1 30 66 44 0 65 77 62 0 +0.0
003000000437113838 -0.0002499186675473358 0.00028 -1.748455531469491e-007 0.9999
999999999848 0 17 67 0 556 565 561 59 64 65 0 0 -14 68 45 70 1e-008 109 39 72 38
 69 -0 0 109 39 36 50 69 46 0 68 110 40 0 +-0.0004600000419629258 0.000240081199
5700364 0.00024 1.748455531469491e-007 -0.9999999999999848 0 0 0 -1 81 1 70 47 3
2 68 0 0 111 41 71 83 3 71 0.501960813999176 0.501960813999176 0.501960813999176
 15 72 48 0 73 68 0 17 73 0 72 81 105 74 78 76 0 86 +18 74 49 0 158 59 79 75 ?1
 29 75 50 0 74 80 60 0.0002999999580370628 0.0002400813324526568 4e-005 16 76 51
 0 ?73 65 84 77 0 0 1 30 77 52 0 76 85 66 0 +-0.0004600000419629258 0.0002400811
995700364 4e-005 -0.9999999999999848 -1.748455531469491e-007 -0 17 78 0 412 413
 425 79 73 76 0 418 -18 79 53 0 105 74 82 80 ?1 29 80 54 0 79 83 75 0.0004599999
580370603 0.0002400813604279453 4e-005 17 81 0 72 87 73 82 86 84 0 92 +18 82 55
 0 173 79 88 83 ?1 29 83 56 0 82 89 80 -0.0003000000419629282 0.0002400812275453
249 4e-005 16 84 57 0 ?81 76 90 85 0 0 1 30 85 58 0 84 91 77 0 +-0.0004600000419
629258 0.0002400811995700364 4e-005 -0.9999999999999848 -1.748455531469491e-007
 -0 17 86 0 154 155 159 74 81 84 0 425 -17 87 0 72 93 81 88 92 90 0 0 +18 88 59
 0 98 82 94 89 ?1 29 89 60 0 88 95 83 -0.0004600000419629258 0.00024008119957003
64 4e-005 16 90 61 0 ?87 84 96 91 0 0 1 30 91 62 0 90 97 85 0 +-0.00046000004196
29258 0.0002400811995700364 4e-005 -0.9999999999999848 -1.748455531469491e-007 -
0 17 92 0 167 168 180 82 87 90 0 0 -17 93 0 72 99 87 94 98 96 0 104 -18 94 63 0
 93 88 100 95 ?1 29 95 64 0 94 101 89 -0.0004600000419629258 0.00024008119957003
64 0.00024 16 96 65 0 ?98 90 102 97 0 0 1 30 97 66 0 96 103 91 0 +-0.00046000004
19629258 0.0002400811995700364 0.00024 0 -0 -1 17 98 0 283 183 215 88 93 96 0 18
0 +17 99 0 72 105 93 100 104 102 0 246 -18 100 67 0 99 94 115 101 ?1 29 101 68 0
 100 116 95 0.0004599999580370603 0.0002400813604279453 0.00024 16 102 69 0 ?104
 96 106 103 0 0 1 30 103 70 0 102 107 97 0 +-0.0004600000419629258 0.00024008119
95700364 0.00024 -0.9999999999999848 -1.748455531469491e-007 -0 17 104 0 209 210
 246 94 99 102 0 215 +17 105 0 72 73 99 79 108 106 0 78 +16 106 71 0 ?105 102 11
7 107 0 0 1 30 107 72 0 106 118 103 0 +0.0004599999580370603 0.00024008136042794
53 0.00024 0 -0 -1 17 108 0 454 249 418 100 105 106 0 0 -14 109 73 111 1e-008 15
0 68 113 38 110 -0 0 150 68 36 50 110 74 0 109 151 69 0 +-0.0004599999580370602
 -0.0002399188004299564 0.00024 -1.748455531469491e-007 0.9999999999999848 0 0 0
 1 81 1 111 75 32 109 0 0 152 70 112 83 3 112 0.501960813999176 0.50196081399917
6 0.501960813999176 15 113 76 0 114 109 0 17 114 0 113 122 146 115 119 117 0 201
 +18 115 77 0 162 100 120 116 ?1 29 116 78 0 115 121 101 -0.0002999999580370628
 -0.0002399187724546679 4e-005 16 117 79 0 ?114 106 125 118 0 0 1 30 118 80 0 11
7 126 107 0 +-0.0004599999580370602 -0.0002399188004299564 4e-005 0.999999999999
9848 1.748455531469491e-007 0 17 119 0 188 189 201 120 114 117 0 194 -18 120 81
 0 146 115 123 121 ?1 29 121 82 0 120 124 116 -0.0004599999580370603 -0.00023991
88004299564 4e-005 17 122 0 113 128 114 123 127 125 0 439 +18 123 83 0 133 120 1
29 124 ?1 29 124 84 0 123 130 121 0.0003000000419629282 -0.000239918667547336 4e
-005 16 125 85 0 ?122 117 131 126 0 0 1 30 126 86 0 125 132 118 0 +-0.0004599999
580370602 -0.0002399188004299564 4e-005 0.9999999999999848 1.748455531469491e-00
7 0 17 127 0 154 159 155 115 122 125 0 0 -17 128 0 113 134 122 129 133 131 0 139
 +18 129 87 0 128 123 135 130 ?1 29 130 88 0 129 136 124 0.0004600000419629258 -
0.0002399186395720475 4e-005 16 131 89 0 ?128 125 137 132 0 0 1 30 132 90 0 131
 138 126 0 +-0.0004599999580370602 -0.0002399188004299564 4e-005 0.9999999999999
848 1.748455531469491e-007 0 17 133 0 433 434 446 123 128 131 0 155 -17 134 0 11
3 140 128 135 139 137 0 260 -18 135 91 0 134 129 141 136 ?1 29 136 92 0 135 142
 130 0.0004600000419629258 -0.0002399186395720475 0.00024 16 137 93 0 ?139 131 1
43 138 0 0 1 30 138 94 0 137 144 132 0 +0.0004600000419629258 -0.000239918639572
0475 0.00024 0 -0 -1 17 139 0 463 449 260 129 134 137 0 446 +17 140 0 113 146 13
4 141 145 143 0 275 -18 141 95 0 149 135 169 142 ?1 29 142 96 0 141 170 136 -0.0
004599999580370603 -0.0002399188004299564 0.00024 16 143 97 0 ?145 137 147 144 0
 0 1 30 144 98 0 143 148 138 0 +-0.0004599999580370602 -0.0002399188004299564 0.
00024 0.9999999999999848 1.748455531469491e-007 0 17 145 0 254 255 275 135 140 1
43 0 0 +17 146 0 113 114 140 120 149 147 0 119 +16 147 99 0 ?146 143 156 148 0 0
 1 30 148 100 0 147 157 144 0 +-0.0004599999580370602 -0.0002399188004299564 0.0
0024 0 -0 -1 17 149 0 292 278 194 141 146 147 0 140 -14 150 101 152 1e-008 163 1
09 154 38 151 -0 0 163 109 36 50 151 102 0 150 164 110 0 +0.0004600000419629258
 -0.0002399186395720475 4e-005 0 0 1 0.9999999999999848 1.748455531469491e-007 0
 81 1 152 103 32 150 0 0 165 111 153 83 3 153 0.501960813999176 0.50196081399917
6 0.501960813999176 15 154 104 0 86 150 0 17 155 0 154 127 86 123 158 156 0 122
 +16 156 105 0 ?155 147 160 157 0 0 1 30 157 106 0 156 161 148 0 +0.000300000041
9629282 -0.000239918667547336 4e-005 1.748455531469491e-007 -0.9999999999999848
 0 17 158 0 493 428 439 74 155 156 0 73 -17 159 0 154 86 127 82 162 160 0 81 +16
 160 107 0 ?159 156 171 161 0 0 1 30 161 108 0 160 172 157 0 +-0.000299999958037
0628 -0.0002399187724546679 4e-005 -1.748455531469491e-007 0.9999999999999848 0
 17 162 0 351 204 173 115 159 160 0 114 -14 163 109 165 1e-008 184 150 167 38 16
4 +0 0 184 150 36 50 164 110 0 163 185 151 0 +-0.0004599999562886047 -0.00024991
88004299562 4e-005 0 0 1 0.9999999999999848 1.748455531469491e-007 0 81 1 165 11
1 32 163 0 0 186 152 166 83 3 166 0.7529411911964417 0.7529411911964417 0.752941
1911964417 15 167 112 0 92 163 0 17 168 0 167 174 92 169 173 171 0 179 +18 169 1
13 0 168 141 175 170 ?1 29 170 114 0 169 176 142 -0.0003000000437113838 0.000250
0812275453247 4e-005 16 171 115 0 ?168 160 177 172 0 0 1 30 172 116 0 171 178 16
1 0 +-0.0002999999562886072 -0.0002499187724546677 4e-005 -1.748455531469491e-00
7 0.9999999999999848 0 17 173 0 351 162 352 82 168 171 0 159 -17 174 0 167 180 1
68 175 179 177 0 183 -18 175 117 0 174 169 190 176 ?1 29 176 118 0 175 191 170 -
0.0004600000437113813 0.0002500811995700362 4e-005 16 177 119 0 ?179 171 181 178
 0 0 1 30 178 120 0 177 182 172 0 +-0.0004600000437113813 0.0002500811995700362
 4e-005 0.9999999999999848 1.748455531469491e-007 0 17 179 0 407 355 287 169 174
 177 0 352 +17 180 0 167 92 174 88 183 181 0 87 -16 181 121 0 ?183 177 192 182 0
 0 1 30 182 122 0 181 193 178 0 +-0.0004599999562886047 -0.0002499188004299562 4
e-005 -1.748455531469491e-007 0.9999999999999848 0 17 183 0 283 284 98 175 180 1
81 0 287 +14 184 123 186 1e-008 205 163 188 38 185 +0 0 205 163 36 50 185 124 0
 184 206 164 0 +-0.0004599999562886047 -0.0002499188004299562 4e-005 0 0 1 0.999
9999999999848 1.748455531469491e-007 0 81 1 186 125 32 184 0 0 207 165 187 83 3
 187 0.7529411911964417 0.7529411911964417 0.7529411911964417 15 188 126 0 119 1
84 0 17 189 0 188 195 119 190 194 192 0 200 -18 190 127 0 189 175 196 191 ?1 29
 191 128 0 190 197 176 -0.0004599999562886047 -0.0002499188004299562 4e-005 16 1
92 129 0 ?194 181 198 193 0 0 1 30 193 130 0 192 199 182 0 +-0.00045999995628860
47 -0.0002499188004299562 4e-005 -1.748455531469491e-007 0.9999999999999848 0 17
 194 0 292 149 293 120 189 192 0 0 +17 195 0 188 201 189 196 200 198 0 359 +18 1
96 131 0 204 190 211 197 ?1 29 197 132 0 196 212 191 -0.0002999999562886072 -0.0
002499187724546677 4e-005 16 198 133 0 ?195 192 202 199 0 0 1 30 199 134 0 198 2
03 193 0 +-0.0004599999562886047 -0.0002499188004299562 4e-005 0.999999999999984
8 1.748455531469491e-007 0 17 200 0 402 296 359 190 195 198 0 293 -17 201 0 188
 119 195 115 204 202 0 127 +16 202 135 0 ?201 198 213 203 0 0 1 30 203 136 0 202
 214 199 0 +-0.0002999999562886072 -0.0002499187724546677 4e-005 -1.748455531469
491e-007 0.9999999999999848 0 17 204 0 351 356 162 196 201 202 0 195 -14 205 137
 207 1e-008 250 184 209 38 206 +0 0 250 184 36 50 206 138 0 205 251 185 0 +-0.00
02999999562886072 -0.0002499187724546677 0.0002400000000000001 -1.69406589450857
4e-016 -2.961998883927373e-023 -1 -0.9999999999999848 -1.748455531469491e-007 1.
6940658945086e-016 81 1 207 139 32 205 0 0 252 186 208 83 3 208 0.75294119119644
17 0.7529411911964417 0.7529411911964417 15 209 140 0 104 205 0 17 210 0 209 216
 104 211 215 213 0 221 +18 211 141 0 210 196 217 212 ?1 29 212 142 0 211 218 197
 -0.0004600000437113813 0.0002500811995700362 0.00024 16 213 143 0 ?210 202 219
 214 0 0 1 30 214 144 0 213 220 203 0 +-0.0004599999562886047 -0.000249918800429
9562 0.00024 -1.748455531469491e-007 0.9999999999999848 0 17 215 0 283 98 284 94
 210 213 0 0 -17 216 0 209 222 210 217 221 219 0 376 -18 217 145 0 227 211 223 2
18 ?1 29 218 146 0 217 224 212 -0.0003000000437113838 0.0002500812275453247 0.00
024 16 219 147 0 ?221 213 225 220 0 0 1 30 220 148 0 219 226 214 0 +-0.000300000
0437113838 0.0002500812275453247 0.00024 -0.9999999999999848 -1.748455531469491e
-007 1.6940658945086e-016 17 221 0 407 287 376 211 216 219 0 284 +17 222 0 209 2
28 216 223 227 225 0 233 -18 223 149 0 222 217 229 224 ?1 29 224 150 0 223 230 2
18 -0.0003000000428371561 0.0002450812275453247 0.00024 16 225 151 0 ?227 219 23
1 226 0 0 1 30 226 152 0 225 232 220 0 +-0.0002999999562886072 -0.00024991877245
46677 0.00024 -1.748455531469491e-007 0.9999999999999848 0 17 227 0 364 371 365
 217 222 225 0 216 +17 228 0 209 234 222 229 233 231 0 239 -18 229 153 0 228 223
 235 230 ?1 29 230 154 0 229 236 224 0.000299999957162835 0.0002450813324526566
 0.00024 16 231 155 0 ?233 225 237 232 0 0 1 30 232 156 0 231 238 226 0 +-0.0003
000000428371561 0.0002450812275453248 0.00024 -0.9999999999999848 -1.74845553146
9491e-007 -0 17 233 0 592 368 478 223 228 231 0 365 +17 234 0 209 240 228 235 23
9 237 0 0 +18 235 157 0 485 229 241 236 ?1 29 236 158 0 235 242 230 0.0002999999
562886072 0.0002500813324526566 0.00024 16 237 159 0 ?234 231 243 238 0 0 1 30 2
38 160 0 237 244 232 0 +0.0003000000437113838 -0.0002499186675473358 0.00024 -1.
748455531469491e-007 0.9999999999999848 0 17 239 0 472 473 485 229 234 237 0 478
 -17 240 0 209 246 234 241 245 243 0 249 -18 241 161 0 240 235 256 242 ?1 29 242
 162 0 241 257 236 0.0004599999562886047 0.0002500813604279451 0.00024 16 243 16
3 0 ?245 237 247 244 0 0 1 30 244 164 0 243 248 238 0 +0.0002999999562886072 0.0
002500813324526566 0.00024 -0.9999999999999848 -1.748455531469491e-007 -1.694065
8945086e-016 17 245 0 578 488 458 235 240 243 0 234 +17 246 0 209 104 240 100 24
9 247 0 108 -16 247 165 0 ?249 243 258 248 0 0 1 30 248 166 0 247 259 244 0 +0.0
004600000437113813 -0.0002499186395720473 0.00024 -1.748455531469491e-007 0.9999
999999999848 0 17 249 0 454 455 108 241 246 247 0 458 +14 250 167 252 1e-008 279
 205 254 38 251 +0 0 279 205 36 50 251 168 0 250 280 206 0 +-0.00029999995628860
72 -0.0002499187724546677 0.0002400000000000001 -1.694065894508574e-016 -2.96199
8883927373e-023 -1 -0.9999999999999848 -1.748455531469491e-007 1.6940658945086e-
016 81 1 252 169 32 250 0 0 281 207 253 83 3 253 0.7529411911964417 0.7529411911
964417 0.7529411911964417 15 254 170 0 145 250 0 17 255 0 254 261 145 256 260 25
8 0 264 -18 256 171 0 255 241 270 257 ?1 29 257 172 0 256 271 242 0.000460000043
7113813 -0.0002499186395720473 0.00024 16 258 173 0 ?260 247 262 259 0 0 1 30 25
9 174 0 258 263 248 0 +0.0004600000437113813 -0.0002499186395720473 0.00024 -1.7
48455531469491e-007 0.9999999999999848 0 17 260 0 463 139 464 135 255 258 0 145
 +17 261 0 254 57 255 53 264 262 0 0 +16 262 175 0 ?261 258 266 263 0 0 1 30 263
 176 0 262 267 259 0 +0.0003000000437113838 -0.0002499186675473358 0.00024 -0.99
99999999999848 -1.748455531469491e-007 -1.6940658945086e-016 17 264 0 573 467 63
 256 261 262 0 464 -17 265 0 254 31 57 14 268 266 0 0 -16 266 177 0 ?268 262 272
 267 0 0 1 30 267 178 0 266 273 263 0 +-0.000299999957162835 -0.0002449187724546
678 0.00024 0.9999999999999848 1.748455531469491e-007 0 17 268 0 583 49 13 45 26
5 266 0 0 +17 269 0 254 275 31 270 274 272 0 278 +18 270 179 0 269 256 303 271 ?
1 29 271 180 0 270 304 257 -0.0004599999562886047 -0.0002499188004299562 0.00024
 16 272 181 0 ?269 266 276 273 0 0 1 30 273 182 0 272 277 267 0 +-0.000299999956
2886072 -0.0002499187724546677 0.00024 -0.9999999999999848 -1.748455531469491e-0
07 1.6940658945086e-016 17 274 0 402 27 296 23 269 272 0 0 -17 275 0 254 145 269
 141 278 276 0 0 +16 276 183 0 ?275 272 285 277 0 0 1 30 277 184 0 276 286 273 0
 +-0.0004599999562886047 -0.0002499188004299562 0.00024 -1.748455531469491e-007
 0.9999999999999848 0 17 278 0 292 293 149 270 275 276 0 296 -14 279 185 281 1e-
008 288 250 283 38 280 +0 0 288 250 36 50 280 186 0 279 289 251 0 +-0.0004599999
562886047 -0.0002499188004299562 4e-005 0.9999999999999848 1.748455531469491e-00
7 0 0 0 -1 81 1 281 187 32 279 0 0 290 252 282 83 3 282 0.7529411911964417 0.752
9411911964417 0.7529411911964417 15 283 188 0 98 279 0 17 284 0 283 215 183 211
 287 285 0 0 -16 285 189 0 ?287 276 294 286 0 0 1 30 286 190 0 285 295 277 0 +-0
.0004600000437113813 0.0002500811995700362 4e-005 0 -0 -1 17 287 0 407 179 221 1
75 284 285 0 0 +14 288 191 290 1e-008 297 279 292 38 289 +0 0 297 279 36 50 289
 192 0 288 298 280 0 +-0.0004599999562886047 -0.0002499188004299562 4e-005 0.999
9999999999848 1.748455531469491e-007 0 0 0 -1 81 1 290 193 32 288 0 0 299 281 29
1 83 3 291 0.7529411911964417 0.7529411911964417 0.7529411911964417 15 292 194 0
 149 288 0 17 293 0 292 194 278 190 296 294 0 0 +16 294 195 0 ?293 285 305 295 0
 0 1 30 295 196 0 294 306 286 0 +-0.0004599999562886047 -0.0002499188004299562 4
e-005 0 -0 -1 17 296 0 402 274 200 270 293 294 0 0 -14 297 197 299 1e-008 326 28
8 301 38 298 +0 0 326 288 36 50 298 198 0 297 327 289 0 +-0.0004999999562886041
 -0.0002499188074237783 0 -0.9999999999999848 -1.748455531469491e-007 0 0 0 1 81
 1 299 199 32 297 0 0 328 290 300 83 3 300 0.7529411911964417 0.7529411911964417
 0.7529411911964417 15 301 200 0 302 297 0 17 302 0 301 310 322 303 307 305 0 31
5 +18 303 201 0 302 270 308 304 ?1 29 304 202 0 303 309 271 -0.00050000004371138
07 0.0002500811925762141 0.00028 16 305 203 0 ?302 294 313 306 0 0 1 30 306 204
 0 305 314 295 0 +-0.0004999999562886041 -0.0002499188074237783 0.00028 -1.74845
5531469491e-007 0.9999999999999848 0 17 307 0 385 394 390 308 302 305 0 0 -18 30
8 205 0 322 303 311 309 ?1 29 309 206 0 308 312 304 -0.0004999999562886041 -0.00
02499188074237783 0.00028 17 310 0 301 316 302 311 315 313 0 321 -18 311 207 0 3
36 308 317 312 ?1 29 312 208 0 311 318 309 -0.0005000000437113807 0.000250081192
5762141 0 16 313 209 0 ?315 305 319 314 0 0 1 30 314 210 0 313 320 306 0 +-0.000
5000000437113807 0.0002500811925762141 0 0 0 1 17 315 0 407 393 336 303 310 313
 0 390 +17 316 0 301 322 310 317 321 319 0 0 -18 317 211 0 325 311 332 318 ?1 29
 318 212 0 317 333 312 -0.0004999999562886041 -0.0002499188074237783 0 16 319 21
3 0 ?321 313 323 320 0 0 1 30 320 214 0 319 324 314 0 +-0.0004999999562886041 -0
.0002499188074237783 0 -1.748455531469491e-007 0.9999999999999848 0 17 321 0 330
 331 343 311 316 319 0 0 +17 322 0 301 302 316 308 325 323 0 397 +16 323 215 0 ?
322 319 334 324 0 0 1 30 324 216 0 323 335 320 0 +-0.0004999999562886041 -0.0002
499188074237783 0 0 0 1 17 325 0 402 346 397 317 322 323 0 343 -14 326 217 328 1
e-008 347 297 330 38 327 +0 0 347 297 36 50 327 218 0 326 348 298 0 +-0.00049999
99562886041 -0.0002499188074237783 0 0 0 -1 -0.9999999999999848 -1.7484555314694
91e-007 0 81 1 328 219 32 326 0 0 349 299 329 83 3 329 0.7529411911964417 0.7529
411911964417 0.7529411911964417 15 330 220 0 321 326 0 17 331 0 330 337 321 332
 336 334 0 342 -18 332 221 0 331 317 338 333 ?1 29 333 222 0 332 339 318 -0.0003
000000437113838 0.0002500812275453247 0 16 334 223 0 ?336 323 340 335 0 0 1 30 3
35 224 0 334 341 324 0 +-0.0005000000437113807 0.0002500811925762141 0 -0.999999
9999999848 -1.748455531469491e-007 -0 17 336 0 407 315 355 311 331 334 0 310 +17
 337 0 330 343 331 338 342 340 0 346 -18 338 225 0 337 332 369 339 ?1 29 339 226
 0 338 370 333 -0.0002999999562886072 -0.0002499187724546677 0 16 340 227 0 ?342
 334 344 341 0 0 1 30 341 228 0 340 345 335 0 +-0.0002999999562886072 -0.0002499
187724546677 0 -1.748455531469491e-007 0.9999999999999848 0 17 342 0 351 352 356
 332 337 340 0 355 +17 343 0 330 321 337 317 346 344 0 316 +16 344 229 0 ?343 34
0 353 345 0 0 1 30 345 230 0 344 354 341 0 +-0.0004999999562886041 -0.0002499188
074237783 0 -0.9999999999999848 -1.748455531469491e-007 -0 17 346 0 402 359 325
 338 343 344 0 356 -14 347 231 349 1e-008 360 326 351 38 348 +0 0 360 326 36 50
 348 232 0 347 361 327 0 +-0.0002999999562886072 -0.0002499187724546677 0 0.9999
999999999848 1.748455531469491e-007 0 0 0 -1 81 1 349 233 32 347 0 0 362 328 350
 83 3 350 0.7529411911964417 0.7529411911964417 0.7529411911964417 15 351 234 0
 342 347 0 17 352 0 351 173 342 169 355 353 0 0 -16 353 235 0 ?355 344 357 354 0
 0 1 30 354 236 0 353 358 345 0 +-0.0003000000437113838 0.0002500812275453247 0
 0 -0 -1 17 355 0 407 336 179 332 352 353 0 0 +17 356 0 351 342 204 338 359 357
 0 0 +16 357 237 0 ?356 353 366 358 0 0 1 30 358 238 0 357 367 354 0 +-0.0002999
999562886072 -0.0002499187724546677 0 0 -0 -1 17 359 0 402 200 346 196 356 357 0
 0 -14 360 239 362 1e-008 381 347 364 38 361 +0 0 381 347 36 50 361 240 0 360 38
2 348 0 +-0.0002999999562886072 -0.0002499187724546677 0.00028 0.999999999999984
8 1.748455531469491e-007 0 0 0 -1 81 1 362 241 32 360 0 0 383 349 363 83 3 363 0
.7529411911964417 0.7529411911964417 0.7529411911964417 15 364 242 0 365 360 0 1
7 365 0 364 227 377 223 368 366 0 0 -16 366 243 0 ?368 357 374 367 0 0 1 30 367
 244 0 366 375 358 0 +-0.0003000000428371561 0.0002450812275453248 0.00024 0 0 1
 17 368 0 592 593 233 369 365 366 0 386 +18 369 245 0 596 338 372 370 ?1 29 370
 246 0 369 373 339 -0.0003000000428371561 0.0002450812275453247 0.00028 17 371 0
 364 377 227 372 376 374 0 0 -18 372 247 0 380 369 414 373 ?1 29 373 248 0 372 4
15 370 -0.0003000000437113838 0.0002500812275453247 0.00028 16 374 249 0 ?376 36
6 378 375 0 0 1 30 375 250 0 374 379 367 0 +-0.0003000000437113838 0.00025008122
75453247 0.00028 0 0 -1 17 376 0 407 221 393 217 371 374 0 0 +17 377 0 364 365 3
71 369 380 378 0 368 -16 378 251 0 ?380 374 387 379 0 0 1 30 379 252 0 378 388 3
75 0 +-0.0002999999562886072 -0.0002499187724546677 0.00028 -1.748455531469491e-
007 0.9999999999999848 0 17 380 0 385 390 386 372 377 378 0 393 +14 381 253 383
 1e-008 398 360 385 38 382 +0 0 398 360 36 50 382 254 0 381 399 361 0 +-0.000499
9999562886041 -0.0002499188074237783 0.00028 0 0 1 0.9999999999999848 1.74845553
1469491e-007 0 81 1 383 255 32 381 0 0 400 362 384 83 3 384 0.7529411911964417 0
.7529411911964417 0.7529411911964417 15 385 256 0 21 381 0 17 386 0 385 380 21 3
69 389 387 0 0 -16 387 257 0 ?389 378 391 388 0 0 1 30 388 258 0 387 392 379 0 +
-0.0003000000428371561 0.0002450812275453248 0.00028 1.748455531469491e-007 -0.9
999999999999848 0 17 389 0 637 638 628 9 386 387 0 0 +17 390 0 385 307 380 303 3
93 391 0 0 -16 391 259 0 ?393 387 395 392 0 0 1 30 392 260 0 391 396 388 0 +-0.0
005000000437113807 0.0002500811925762141 0.00028 0.9999999999999848 1.7484555314
69491e-007 0 17 393 0 407 376 315 372 390 391 0 371 +17 394 0 385 21 307 17 397
 395 0 0 +16 395 261 0 ?394 391 416 396 0 0 1 30 396 262 0 395 417 392 0 +-0.000
4999999562886041 -0.0002499188074237783 0.00028 0.9999999999999848 1.74845553146
9491e-007 0 17 397 0 402 325 27 308 394 395 0 307 -14 398 263 400 1e-008 403 381
 402 38 399 -0 0 403 381 36 50 399 264 0 398 404 382 0 +-0.0004999999562886041 -
0.0002499188074237783 0.00028 -1.748455531469491e-007 0.9999999999999848 0 0 0 1
 81 1 400 265 32 398 0 0 405 383 401 83 3 401 0.7529411911964417 0.7529411911964
417 0.7529411911964417 15 402 266 0 325 398 0 14 403 267 405 1e-008 408 398 407
 38 404 +0 0 408 398 36 50 404 268 0 403 409 399 0 +-0.0005000000437113807 0.000
2500811925762141 0.00028 -1.748455531469491e-007 0.9999999999999848 0 0 0 1 81 1
 405 269 32 403 0 0 410 400 406 83 3 406 0.7529411911964417 0.7529411911964417 0
.7529411911964417 15 407 270 0 315 403 0 14 408 271 410 1e-008 429 403 412 38 40
9 +0 0 429 403 36 50 409 272 0 408 430 404 0 +0.0004600000437113813 -0.000249918
6395720474 4e-005 0 0 1 0.9999999999999848 1.748455531469491e-007 0 81 1 410 273
 32 408 0 0 431 405 411 83 3 411 0.7529411911964417 0.7529411911964417 0.7529411
911964417 15 412 274 0 78 408 0 17 413 0 412 419 78 414 418 416 0 424 +18 414 27
5 0 413 372 420 415 ?1 29 415 276 0 414 421 373 0.0004599999562886047 0.00025008
13604279451 4e-005 16 416 277 0 ?413 395 422 417 0 0 1 30 417 278 0 416 423 396
 0 +0.0004600000437113813 -0.0002499186395720473 4e-005 -1.748455531469491e-007
 0.9999999999999848 0 17 418 0 454 108 455 79 413 416 0 0 -17 419 0 412 425 413
 420 424 422 0 0 -18 420 279 0 499 414 435 421 ?1 29 421 280 0 420 436 415 0.000
2999999562886072 0.0002500813324526566 4e-005 16 422 281 0 ?424 416 426 423 0 0
 1 30 423 282 0 422 427 417 0 +0.0004599999562886047 0.0002500813604279451 4e-00
5 0.9999999999999848 1.748455531469491e-007 0 17 424 0 578 458 499 414 419 422 0
 455 +17 425 0 412 78 419 74 428 426 0 0 -16 426 283 0 ?428 422 437 427 0 0 1 30
 427 284 0 426 438 423 0 +0.0003000000437113838 -0.0002499186675473358 4e-005 -1
.748455531469491e-007 0.9999999999999848 0 17 428 0 493 494 158 420 425 426 0 41
9 +14 429 285 431 1e-008 450 408 433 38 430 +0 0 450 408 36 50 430 286 0 429 451
 409 0 +0.0004600000437113813 -0.0002499186395720474 4e-005 0 0 1 0.999999999999
9848 1.748455531469491e-007 0 81 1 431 287 32 429 0 0 452 410 432 83 3 432 0.752
9411911964417 0.7529411911964417 0.7529411911964417 15 433 288 0 133 429 0 17 43
4 0 433 440 133 435 439 437 0 0 -18 435 289 0 506 420 441 436 ?1 29 436 290 0 43
5 442 421 0.0003000000437113838 -0.0002499186675473358 4e-005 16 437 291 0 ?439
 426 443 438 0 0 1 30 438 292 0 437 444 427 0 +0.0003000000437113838 -0.00024991
86675473358 4e-005 -1.748455531469491e-007 0.9999999999999848 0 17 439 0 493 158
 506 123 434 437 0 0 +17 440 0 433 446 434 441 445 443 0 449 +18 441 293 0 440 4
35 474 442 ?1 29 442 294 0 441 475 436 0.0004600000437113813 -0.0002499186395720
473 4e-005 16 443 295 0 ?440 437 447 444 0 0 1 30 444 296 0 443 448 438 0 +0.000
4600000437113813 -0.0002499186395720473 4e-005 0.9999999999999848 1.748455531469
491e-007 0 17 445 0 573 509 467 435 440 443 0 434 -17 446 0 433 133 440 129 449
 447 0 0 +16 447 297 0 ?446 443 456 448 0 0 1 30 448 298 0 447 457 444 0 +0.0004
600000437113813 -0.0002499186395720473 4e-005 -1.748455531469491e-007 0.99999999
99999848 0 17 449 0 463 464 139 441 446 447 0 467 -14 450 299 452 1e-008 459 429
 454 38 451 +0 0 459 429 36 50 451 300 0 450 460 430 0 +0.0004600000437113813 -0
.0002499186395720474 4e-005 -0.9999999999999848 -1.748455531469491e-007 0 0 0 1
 81 1 452 301 32 450 0 0 461 431 453 83 3 453 0.7529411911964417 0.7529411911964
417 0.7529411911964417 15 454 302 0 108 450 0 17 455 0 454 418 249 414 458 456 0
 0 -16 456 303 0 ?458 447 465 457 0 0 1 30 457 304 0 456 466 448 0 +0.0004599999
562886047 0.0002500813604279451 4e-005 0 0 1 17 458 0 578 245 424 241 455 456 0
 0 +14 459 305 461 1e-008 468 450 463 38 460 +0 0 468 450 36 50 460 306 0 459 46
9 451 0 +0.0004600000437113813 -0.0002499186395720474 4e-005 -0.9999999999999848
 -1.748455531469491e-007 0 0 0 1 81 1 461 307 32 459 0 0 470 452 462 83 3 462 0.
7529411911964417 0.7529411911964417 0.7529411911964417 15 463 308 0 139 459 0 17
 464 0 463 260 449 256 467 465 0 0 +16 465 309 0 ?464 456 476 466 0 0 1 30 466 3
10 0 465 477 457 0 +0.0004600000437113813 -0.0002499186395720473 4e-005 0 0 1 17
 467 0 573 445 264 441 464 465 0 0 -14 468 311 470 1e-008 489 459 472 38 469 +0
 0 489 459 36 50 469 312 0 468 490 460 0 +0.0003000000437113838 -0.0002499186675
473358 0.00028 -0.9999999999999848 -1.748455531469491e-007 0 0 0 1 81 1 470 313
 32 468 0 0 491 461 471 83 3 471 0.7529411911964417 0.7529411911964417 0.7529411
911964417 15 472 314 0 473 468 0 17 473 0 472 479 239 474 478 476 0 484 +18 474
 315 0 564 441 480 475 ?1 29 475 316 0 474 481 442 0.000299999957162835 0.000245
0813324526567 0.00028 16 476 317 0 ?473 465 482 477 0 0 1 30 477 318 0 476 483 4
66 0 +0.000299999957162835 0.0002450813324526567 0.00024 0 0 1 17 478 0 592 233
 593 229 473 476 0 0 -17 479 0 472 485 473 480 484 482 0 0 +18 480 319 0 488 474
 495 481 ?1 29 481 320 0 480 496 475 0.0002999999562886072 0.0002500813324526566
 0.00028 16 482 321 0 ?479 476 486 483 0 0 1 30 483 322 0 482 487 477 0 +0.00030
00000437113838 -0.0002499186675473358 0.00028 -1.748455531469491e-007 0.99999999
99999848 0 17 484 0 556 561 557 474 479 482 0 0 -17 485 0 472 239 479 235 488 48
6 0 245 -16 486 323 0 ?488 482 497 487 0 0 1 30 487 324 0 486 498 483 0 +0.00029
99999562886072 0.0002500813324526566 0.00028 0 0 1 17 488 0 578 560 245 480 485
 486 0 557 +14 489 325 491 1e-008 510 468 493 38 490 +0 0 510 468 36 50 490 326
 0 489 511 469 0 +0.0003000000437113838 -0.0002499186675473358 0 -0.999999999999
9848 -1.748455531469491e-007 0 0 0 1 81 1 491 327 32 489 0 0 512 470 492 83 3 49
2 0.7529411911964417 0.7529411911964417 0.7529411911964417 15 493 328 0 439 489
 0 17 494 0 493 500 428 495 499 497 0 505 -18 495 329 0 494 480 501 496 ?1 29 49
6 330 0 495 502 481 0.0002999999562886072 0.0002500813324526566 0 16 497 331 0 ?
499 486 503 498 0 0 1 30 498 332 0 497 504 487 0 +0.0002999999562886072 0.000250
0813324526566 0 0 0 1 17 499 0 578 424 520 420 494 497 0 428 +17 500 0 493 506 4
94 501 505 503 0 509 -18 501 333 0 527 495 516 502 ?1 29 502 334 0 501 517 496 0
.0003000000437113838 -0.0002499186675473358 0 16 503 335 0 ?505 497 507 504 0 0
 1 30 504 336 0 503 508 498 0 +0.0003000000437113838 -0.0002499186675473358 0 -1
.748455531469491e-007 0.9999999999999848 0 17 505 0 514 515 527 495 500 503 0 52
0 +17 506 0 493 439 500 435 509 507 0 445 +16 507 337 0 ?506 503 518 508 0 0 1 3
0 508 338 0 507 519 504 0 +0.0003000000437113838 -0.0002499186675473358 0 0 0 1
 17 509 0 573 530 445 501 506 507 0 0 -14 510 339 512 1e-008 531 489 514 38 511
 +0 0 531 489 36 50 511 340 0 510 532 490 0 +0.0005000000437113807 -0.0002499186
325782252 0 0 0 -1 -0.9999999999999848 -1.748455531469491e-007 0 81 1 512 341 32
 510 0 0 533 491 513 83 3 513 0.7529411911964417 0.7529411911964417 0.7529411911
964417 15 514 342 0 505 510 0 17 515 0 514 521 505 516 520 518 0 0 -18 516 343 0
 526 501 522 517 ?1 29 517 344 0 516 523 502 0.0004999999562886041 0.00025008136
74217672 0 16 518 345 0 ?520 507 524 519 0 0 1 30 519 346 0 518 525 508 0 +0.000
4999999562886041 0.0002500813674217672 0 -0.9999999999999848 -1.748455531469491e
-007 0 17 520 0 578 499 541 495 515 518 0 0 +17 521 0 514 527 515 522 526 524 0
 530 -18 522 347 0 521 516 537 523 ?1 29 523 348 0 522 538 517 0.000500000043711
3807 -0.0002499186325782252 0 16 524 349 0 ?526 518 528 525 0 0 1 30 525 350 0 5
24 529 519 0 +0.0005000000437113807 -0.0002499186325782252 0 -1.748455531469491e
-007 0.9999999999999848 0 17 526 0 535 536 548 516 521 524 0 541 +17 527 0 514 5
05 521 501 530 528 0 500 +16 528 351 0 ?527 524 539 529 0 0 1 30 529 352 0 528 5
40 525 0 +0.0005000000437113807 -0.0002499186325782252 0 -0.9999999999999848 -1.
748455531469491e-007 0 17 530 0 573 551 509 522 527 528 0 548 -14 531 353 533 1e
-008 552 510 535 38 532 +0 0 552 510 36 50 532 354 0 531 553 511 0 +0.0005000000
437113807 -0.0002499186325782252 0 0.9999999999999848 1.748455531469491e-007 0 0
 0 -1 81 1 533 355 32 531 0 0 554 512 534 83 3 534 0.7529411911964417 0.75294119
11964417 0.7529411911964417 15 535 356 0 526 531 0 17 536 0 535 542 526 537 541
 539 0 547 -18 537 357 0 536 522 543 538 ?1 29 538 358 0 537 544 523 0.000499999
9562886041 0.0002500813674217672 0.00028 16 539 359 0 ?541 528 545 540 0 0 1 30
 540 360 0 539 546 529 0 +0.0004999999562886041 0.0002500813674217672 0 0 -0 -1
 17 541 0 578 520 560 516 536 539 0 515 +17 542 0 535 548 536 543 547 545 0 551
 -18 543 361 0 565 537 603 544 ?1 29 544 362 0 543 604 538 0.0005000000437113807
 -0.0002499186325782252 0.00028 16 545 363 0 ?547 539 549 546 0 0 1 30 546 364 0
 545 550 540 0 +0.0005000000437113807 -0.0002499186325782252 0.00028 -1.74845553
1469491e-007 0.9999999999999848 0 17 547 0 556 557 565 537 542 545 0 560 +17 548
 0 535 526 542 522 551 549 0 0 +16 549 365 0 ?548 545 558 550 0 0 1 30 550 366 0
 549 559 546 0 +0.0005000000437113807 -0.0002499186325782252 0 0 -0 -1 17 551 0
 573 568 530 543 548 549 0 0 -14 552 367 554 1e-008 569 531 556 38 553 +0 0 569
 531 36 50 553 368 0 552 570 532 0 +0.0005000000437113807 -0.0002499186325782252
 0.00028 0 0 1 0.9999999999999848 1.748455531469491e-007 0 81 1 554 369 32 552 0
 0 571 533 555 83 3 555 0.7529411911964417 0.7529411911964417 0.7529411911964417
 15 556 370 0 547 552 0 17 557 0 556 484 547 480 560 558 0 479 -16 558 371 0 ?56
0 549 562 559 0 0 1 30 559 372 0 558 563 550 0 +0.0004999999562886041 0.00025008
13674217672 0.00028 0.9999999999999848 1.748455531469491e-007 0 17 560 0 578 541
 488 537 557 558 0 0 +17 561 0 556 67 484 50 564 562 0 64 -16 562 373 0 ?564 558
 566 563 0 0 1 30 563 374 0 562 567 559 0 +0.000299999957162835 0.00024508133245
26567 0.00028 -1.748455530363162e-007 0.9999999999999848 0 17 564 0 601 602 614
 474 561 562 0 593 +17 565 0 556 547 67 543 568 566 0 542 +16 566 375 0 ?565 562
 585 567 0 0 1 30 567 376 0 566 586 563 0 +0.0005000000437113807 -0.000249918632
5782252 0.00028 0.9999999999999848 1.748455531469491e-007 0 17 568 0 573 63 551
 59 565 566 0 67 -14 569 377 571 1e-008 574 552 573 38 570 +0 0 574 552 36 50 57
0 378 0 569 575 553 0 +0.0003000000437113838 -0.0002499186675473358 0.0002400000
000000001 1.748455531469491e-007 -0.9999999999999848 0 0 0 -1 81 1 571 379 32 56
9 0 0 576 554 572 83 3 572 0.7529411911964417 0.7529411911964417 0.7529411911964
417 15 573 380 0 63 569 0 14 574 381 576 1e-008 579 569 578 38 575 -0 0 579 569
 36 50 575 382 0 574 580 570 0 +0.0002999999562886072 0.0002500813324526566 0.00
02400000000000001 1.748455531469491e-007 -0.9999999999999848 0 0 0 -1 81 1 576 3
83 32 574 0 0 581 571 577 83 3 577 0.7529411911964417 0.7529411911964417 0.75294
11911964417 15 578 384 0 488 574 0 14 579 385 581 1e-008 588 574 583 38 580 +0 0
 588 574 36 50 580 386 0 579 589 575 0 +-0.000299999957162835 -0.000244918772454
6678 0.0002400000000000001 1.748455531469491e-007 -0.9999999999999848 0 0 0 -1 8
1 1 581 387 32 579 0 0 590 576 582 83 3 582 0.1176470592617989 0.117647059261798
9 0.1176470592617989 15 583 388 0 584 579 0 17 584 0 583 13 49 9 587 585 0 643 -
16 585 389 0 ?587 566 594 586 0 0 1 30 586 390 0 585 595 567 0 +-0.0002999999571
62835 -0.0002449187724546678 0.00028 0.9999999999999848 1.748455531469491e-007 0
 17 587 0 652 617 643 50 584 585 0 49 +14 588 391 590 1e-008 597 579 592 38 589
 +0 0 597 579 36 50 589 392 0 588 598 580 0 +-0.0003000000428371561 0.0002450812
275453248 0.0002400000000000001 -1.748455531469491e-007 0.9999999999999848 0 0 0
 1 81 1 590 393 32 588 0 0 599 581 591 83 3 591 0.1176470592617989 0.11764705926
17989 0.1176470592617989 15 592 394 0 593 588 0 17 593 0 592 478 368 474 596 594
 0 607 -16 594 395 0 ?596 585 605 595 0 0 1 30 595 396 0 594 606 586 0 +-0.00030
00000428371561 0.0002450812275453248 0.00028 -0.9999999999999848 -1.748455531469
491e-007 -0 17 596 0 622 623 607 369 593 594 0 628 +14 597 397 599 1e-008 618 58
8 601 38 598 +0 0 618 588 36 50 598 398 0 597 619 589 0 +0.000299999957162835 0.
0002450813324526567 0.00028 0.8660254037844248 1.514206906681891e-007 0.50000000
00000011 0.4999999999999935 8.742277657347473e-008 -0.866025403784438 81 1 599 3
99 32 597 0 0 620 590 600 83 3 600 0.1176470592617989 0.1176470592617989 0.11764
70592617989 15 601 400 0 564 597 0 17 602 0 601 608 564 603 607 605 0 613 -18 60
3 401 0 602 543 609 604 ?1 29 604 402 0 603 610 544 0.0002884529537979851 0.0002
335343250499217 0.0003 16 605 403 0 ?607 594 611 606 0 0 1 30 606 404 0 605 612
 595 0 +0.0001799999781443028 0.0001250813114711917 0.0004878460969082655 0.4472
135173066434 0.4472136736932604 -0.7745966692414825 17 607 0 622 596 629 474 602
 605 0 473 +17 608 0 601 614 602 609 613 611 0 656 -18 609 405 0 617 603 624 610
 ?1 29 610 406 0 609 625 604 0.000288453035434421 -0.0002333716641824861 0.0003
 16 611 407 0 ?613 605 615 612 0 0 1 30 612 408 0 611 616 606 0 +0.0002884529517
790425 0.0002450813304337142 0.0003 -1.748455530363162e-007 0.9999999999999848 0
 17 613 0 661 632 656 603 608 611 0 629 +17 614 0 601 564 608 50 617 615 0 0 +16
 615 409 0 ?614 611 626 616 0 0 1 30 616 410 0 615 627 612 0 +0.0002020000257022
929 -0.0001469186846822014 0.0004497409791417501 0.4472136736932603 -0.447213517
3066434 -0.7745966692414826 17 617 0 652 653 587 609 614 615 0 608 -14 618 411 6
20 1e-008 633 597 622 38 619 +0 0 633 597 36 50 619 412 0 618 634 598 0 +-0.0003
000000428371561 0.0002450812275453248 0.00028 -1.51420690764e-007 0.866025403784
4248 0.5000000000000011 8.742277657347473e-008 -0.4999999999999935 0.86602540378
4438 81 1 620 413 32 618 0 0 635 599 621 83 3 621 0.1176470592617989 0.117647059
2617989 0.1176470592617989 15 622 414 0 596 618 0 17 623 0 622 629 596 624 628 6
26 0 644 -18 624 415 0 623 609 639 625 ?1 29 625 416 0 624 640 610 -0.0002884530
35434421 0.0002335342241804749 0.0003 16 626 417 0 ?628 615 630 627 0 0 1 30 627
 418 0 626 631 616 0 +-0.0003000000428371561 0.0002450812275453248 0.00028 -0.44
72136736932604 0.4472135173066434 -0.7745966692414825 17 628 0 637 389 644 369 6
23 626 0 377 +17 629 0 622 607 623 603 632 630 0 0 -16 630 419 0 ?632 626 641 63
1 0 0 1 30 631 420 0 630 642 627 0 +-0.0003000000408182135 0.0002335342221615324
 0.0003 -0.9999999999999848 -1.748455531469491e-007 0 17 632 0 661 647 613 624 6
29 630 0 0 +14 633 421 635 1e-008 648 618 637 38 634 +0 0 648 618 36 50 634 422
 0 633 649 619 0 +-0.0003000000428371561 0.0002450812275453248 0.00028 -0.866025
4037844248 -1.51420690764e-007 0.5000000000000011 0.4999999999999935 8.742277657
347473e-008 0.866025403784438 81 1 635 423 32 633 0 0 650 620 636 83 3 636 0.117
6470592617989 0.1176470592617989 0.1176470592617989 15 637 424 0 389 633 0 17 63
8 0 637 644 389 639 643 641 0 647 -18 639 425 0 638 624 0 640 ?1 29 640 426 0 63
9 0 625 -0.0002884529537979851 -0.0002333717650519329 0.0003 16 641 427 0 ?643 6
30 645 642 0 0 1 30 642 428 0 641 646 631 0 +-0.000299999957162835 -0.0002449187
724546678 0.00028 -0.4472135173066434 -0.4472136736932604 -0.7745966692414825 17
 643 0 652 587 653 9 638 641 0 389 +17 644 0 637 628 638 624 647 645 0 632 -16 6
45 429 0 ?647 641 654 646 0 0 1 30 646 430 0 645 655 642 0 +-0.00028845303745336
36 0.0002450812295642674 0.0003 1.748455531469491e-007 -0.9999999999999848 -0 17
 647 0 661 656 632 639 644 645 0 653 +14 648 431 650 1e-008 657 633 652 38 649 +
0 0 657 633 36 50 649 432 0 648 658 634 0 +-0.000299999957162835 -0.000244918772
4546678 0.00028 1.51420690764e-007 -0.8660254037844248 0.5000000000000011 8.7422
77657347473e-008 -0.4999999999999935 -0.866025403784438 81 1 650 433 32 648 0 0
 659 635 651 83 3 651 0.1176470592617989 0.1176470592617989 0.1176470592617989 1
5 652 434 0 587 648 0 17 653 0 652 643 617 639 656 654 0 0 -16 654 435 0 ?656 64
5 0 655 0 0 1 30 655 436 0 654 0 646 0 +-0.0002999999591817775 -0.00023337176707
08754 0.0003 0.9999999999999848 1.748455531469491e-007 0 17 656 0 661 613 647 60
9 653 654 0 0 +14 657 437 659 1e-008 0 648 661 38 658 +0 0 0 648 36 50 658 438 0
 657 0 649 0 +0.0003000000428371559 -0.000244918667547336 0.0003 0 0 1 0.9999999
999999848 1.748455531469491e-007 0 81 1 659 439 32 657 0 0 0 650 660 83 3 660 0.
1176470592617989 0.1176470592617989 0.1176470592617989 15 661 440 0 613 657 0 1
 0 
